<?xml version="1.0" encoding="UTF-8"?>
<svg version="1.0" viewBox="0 0 16 16" xmlns="http://www.w3.org/2000/svg"><g transform="matrix(.062471 0 0 .062325 -5.0234 -9.9626)" fill="#fff"><g transform="matrix(8.259 0 0 8.259 -1246.1 -3046.4)" fill="#fff"><path transform="matrix(1.2678 1.7357 -1.7357 1.2678 187.63 395.98)" d="m3.8498 13-5.7925 0.92859-4.7525-3.4393-0.92859-5.7925 3.4393-4.7525 5.7925-0.92859 4.7525 3.4393 0.92859 5.7925z" stroke="#000" stroke-linecap="square" stroke-width=".23263"/><path transform="matrix(1.1488 1.5728 -1.5728 1.1488 186.64 396.59)" d="m3.8498 13-5.7925 0.92859-4.7525-3.4393-0.92859-5.7925 3.4393-4.7525 5.7925-0.92859 4.7525 3.4393 0.92859 5.7925z"/><path transform="matrix(.96443 0 0 1.2232 150.79 384.56)" d="m19.535 18.613h-3.5273l-0.55664 1.5938h-2.2676l3.2402-8.748h2.6895l3.2402 8.748h-2.2676zm-2.9648-1.623h2.3965l-1.1953-3.4805zm10.441-2.1445c0.35546 5e-6 0.625-0.07812 0.80859-0.23438 0.18359-0.15624 0.27538-0.38671 0.27539-0.69141-6e-6 -0.30078-0.0918-0.53027-0.27539-0.68848-0.1836-0.1582-0.45313-0.2373-0.80859-0.2373h-1.248v1.8516zm0.07617 3.8262c0.45312 1e-6 0.79394-0.0957 1.0225-0.28711 0.22851-0.1914 0.34277-0.48047 0.34277-0.86719-6e-6 -0.3789-0.11329-0.66308-0.33984-0.85254-0.22657-0.18945-0.56836-0.28418-1.0254-0.28418h-1.3242v2.291zm2.0977-3.1465c0.48437 0.14063 0.85937 0.4004 1.125 0.7793 0.26562 0.37891 0.39843 0.84375 0.39844 1.3945-8e-6 0.84375-0.28516 1.4727-0.85547 1.8867-0.57032 0.41406-1.4375 0.62109-2.6016 0.62109h-3.7441v-8.748h3.3867c1.2148 9e-6 2.0947 0.1836 2.6396 0.55078 0.54491 0.3672 0.81738 0.95509 0.81738 1.7637-8e-6 0.42579-0.09962 0.78809-0.29883 1.0869-0.19923 0.29883-0.48829 0.52051-0.86719 0.66504zm3.4629-4.0664h3.7441c1.1133 9e-6 1.9678 0.24708 2.5635 0.74121 0.5957 0.49415 0.89355 1.1982 0.89355 2.1123-8e-6 0.91797-0.29786 1.624-0.89355 2.1182-0.59571 0.49414-1.4502 0.74121-2.5635 0.74121h-1.4883v3.0352h-2.2559zm2.2559 1.6348v2.4434h1.248c0.4375 5e-6 0.77538-0.10644 1.0137-0.31934 0.23828-0.21288 0.35742-0.51464 0.35742-0.90527-6e-6 -0.39062-0.11915-0.6914-0.35742-0.90234-0.23829-0.21093-0.57618-0.3164-1.0137-0.31641z"/></g></g><g fill="#808080" stroke-width=".072811"><path d="m3.0738 13.015-2.0801-2.0453v-5.9074l4.1181-4.1096h5.9071l4.1181 4.1096v5.8884l-4.1181 4.1096h-5.8652zm-0.29118-2.6451 0.12827-0.47267h1.7177l0.11453 0.39297c0.062992 0.21613 0.11453 0.42884 0.11453 0.47267 0 0.05149 0.21753 0.07971 0.61454 0.07971h0.61454l-0.13048-0.4545c-0.071764-0.24997-0.43553-1.4935-0.80836-2.7633l-0.67788-2.3088-1.3985 0.0014546-0.78688 2.7081c-0.43278 1.4894-0.78546 2.7326-0.78372 2.7626 0.00173 0.03 0.26197 0.05454 0.57829 0.05454h0.57514zm6.6346 0.33599c0.59102-0.26778 0.8838-0.8509 0.81438-1.622-0.042094-0.46758-0.27748-0.94481-0.5334-1.0814l-0.17128-0.091436 0.18132-0.16762c0.2484-0.22962 0.32593-0.46793 0.32405-0.99601-0.002198-0.62605-0.189-1.0115-0.59438-1.2267-0.28731-0.15253-0.42703-0.16959-1.5729-0.19207l-1.2576-0.024669v5.5387l1.2576-0.0016c1.0622-0.0014 1.3034-0.02234 1.5522-0.13509zm2.9496-0.80866v-0.94535l0.52856-4.321e-4c0.74165-5.979e-4 1.0588-0.10532 1.4054-0.46424 0.34579-0.35802 0.47188-0.72329 0.47188-1.367 0-0.63243-0.16563-1.0851-0.5109-1.3962-0.3885-0.35009-0.66682-0.40722-1.9861-0.40769l-1.1482-3.967e-4v5.5266h1.2394z"/><path d="m3.2538 8.7348c0-0.081733 0.41899-1.6538 0.48486-1.8192 0.049676-0.12474 0.044595-0.13931 0.37412 1.0726l0.22244 0.81809h-0.54071c-0.30576 0-0.54071-0.031075-0.54071-0.071506z"/><path d="m7.7738 6.8793v-0.54539h0.40097c0.30377 0 0.43632 0.035258 0.54678 0.14544 0.176 0.17556 0.19172 0.55673 0.032322 0.78373-0.095631 0.13618-0.18168 0.16162-0.54678 0.16162h-0.43329z"/><path d="m7.7738 9.1251v-0.6993l0.46975 0.029832c0.53801 0.034174 0.73137 0.16088 0.79967 0.52405 0.054483 0.28966-0.071675 0.67746-0.25164 0.77353-0.07334 0.039153-0.33234 0.071185-0.57556 0.071185h-0.44222z"/><path d="m12.367 7.1338v-0.72719h0.38475c0.2273 0 0.4499 0.045514 0.54395 0.11122 0.34269 0.23942 0.34269 0.99252 0 1.2319-0.09405 0.06571-0.31664 0.11122-0.54395 0.11122h-0.38475z"/></g></svg>
