<?xml version="1.0" encoding="UTF-8"?>
<svg version="1.0" viewBox="0 0 22 22" xmlns="http://www.w3.org/2000/svg"><g transform="matrix(.08572 0 0 .085259 -6.9101 -13.539)" fill="#fff"><g transform="matrix(8.259 0 0 8.259 -1246.1 -3046.4)" fill="#fff"><path transform="matrix(1.2678 1.7357 -1.7357 1.2678 187.63 395.98)" d="m3.8498 13-5.7925 0.92859-4.7525-3.4393-0.92859-5.7925 3.4393-4.7525 5.7925-0.92859 4.7525 3.4393 0.92859 5.7925z" stroke="#000" stroke-linecap="square" stroke-width=".23263"/><path transform="matrix(1.1488 1.5728 -1.5728 1.1488 186.64 396.59)" d="m3.8498 13-5.7925 0.92859-4.7525-3.4393-0.92859-5.7925 3.4393-4.7525 5.7925-0.92859 4.7525 3.4393 0.92859 5.7925z"/><path transform="matrix(.96443 0 0 1.2232 150.79 384.56)" d="m19.535 18.613h-3.5273l-0.55664 1.5938h-2.2676l3.2402-8.748h2.6895l3.2402 8.748h-2.2676zm-2.9648-1.623h2.3965l-1.1953-3.4805zm10.441-2.1445c0.35546 5e-6 0.625-0.07812 0.80859-0.23438 0.18359-0.15624 0.27538-0.38671 0.27539-0.69141-6e-6 -0.30078-0.0918-0.53027-0.27539-0.68848-0.1836-0.1582-0.45313-0.2373-0.80859-0.2373h-1.248v1.8516zm0.07617 3.8262c0.45312 1e-6 0.79394-0.0957 1.0225-0.28711 0.22851-0.1914 0.34277-0.48047 0.34277-0.86719-6e-6 -0.3789-0.11329-0.66308-0.33984-0.85254-0.22657-0.18945-0.56836-0.28418-1.0254-0.28418h-1.3242v2.291zm2.0977-3.1465c0.48437 0.14063 0.85937 0.4004 1.125 0.7793 0.26562 0.37891 0.39843 0.84375 0.39844 1.3945-8e-6 0.84375-0.28516 1.4727-0.85547 1.8867-0.57032 0.41406-1.4375 0.62109-2.6016 0.62109h-3.7441v-8.748h3.3867c1.2148 9e-6 2.0947 0.1836 2.6396 0.55078 0.54491 0.3672 0.81738 0.95509 0.81738 1.7637-8e-6 0.42579-0.09962 0.78809-0.29883 1.0869-0.19923 0.29883-0.48829 0.52051-0.86719 0.66504zm3.4629-4.0664h3.7441c1.1133 9e-6 1.9678 0.24708 2.5635 0.74121 0.5957 0.49415 0.89355 1.1982 0.89355 2.1123-8e-6 0.91797-0.29786 1.624-0.89355 2.1182-0.59571 0.49414-1.4502 0.74121-2.5635 0.74121h-1.4883v3.0352h-2.2559zm2.2559 1.6348v2.4434h1.248c0.4375 5e-6 0.77538-0.10644 1.0137-0.31934 0.23828-0.21288 0.35742-0.51464 0.35742-0.90527-6e-6 -0.39062-0.11915-0.6914-0.35742-0.90234-0.23829-0.21093-0.57618-0.3164-1.0137-0.31641z"/></g></g><g fill="#008000" stroke-width=".099756"><path d="m4.2432 17.918-2.8802-2.8068 0.0093-4.0289 0.0093-4.0288 5.5819-5.67 8.0627-0.06316 5.7521 5.726-0.0088 7.9654-5.6783 5.72-7.9678-7e-3zm-0.43501-3.6523 0.18039-0.69634h2.363l0.34322 1.3927h1.6553l-0.64984-2.2134c-0.35741-1.2174-0.85998-2.9296-1.1168-3.805l-0.46696-1.5916-0.92247-0.028606c-0.87925-0.02727-0.927-0.01795-1.0192 0.19896-0.053196 0.12516-0.55085 1.7864-1.1059 3.6916-0.55504 1.9052-1.0338 3.528-1.064 3.6061-0.044782 0.11605 0.098473 0.142 0.78406 0.142h0.83885zm9.266 0.39666c0.64873-0.3612 0.93374-0.9188 0.93543-1.83 0.0015-0.81294-0.20249-1.3909-0.60736-1.7209l-0.26954-0.21965 0.21479-0.228c0.30819-0.32714 0.42819-0.70756 0.42819-1.3574 0-0.81655-0.3085-1.3801-0.92626-1.6921-0.43012-0.21721-0.63543-0.24524-2.1258-0.29019l-1.6497-0.04976v7.707l1.7756-0.03453c1.6773-0.03262 1.8005-0.04838 2.2245-0.28448zm3.8026-0.97973v-1.2794l0.87532-0.05063c1.0128-0.05859 1.4463-0.21349 1.9032-0.68007 0.82507-0.84255 0.82518-2.862 2e-4 -3.6406-0.64146-0.60545-0.87003-0.66556-2.7037-0.71104l-1.6756-0.04156v7.6827h1.6006z"/><path d="m4.4724 11.969c0-0.19269 0.64429-2.4782 0.69861-2.4782 0.043648 0 0.20355 0.56703 0.68026 2.4123 0.039703 0.15368-0.038487 0.17408-0.66695 0.17408-0.44613 0-0.71192-0.04039-0.71192-0.10819z"/><path d="m10.675 9.5401v-0.74608h0.59454c0.50098 0 0.61905 0.0348 0.75027 0.22109 0.23003 0.32658 0.19341 0.74526-0.08982 1.0269-0.19581 0.19472-0.34777 0.24417-0.75027 0.24417h-0.50472z"/><path d="m10.675 12.635v-0.95663h0.58672c0.82198 0 1.1139 0.23363 1.1139 0.8915 0 0.7259-0.21348 0.92759-1.037 0.97974l-0.6636 0.04202z"/><path d="m16.877 9.8247v-1.0583l0.62409 0.05627c0.79142 0.07136 1.0765 0.3439 1.0765 1.0291 0 0.36446-0.05546 0.5049-0.29241 0.74054-0.25328 0.25187-0.36707 0.29078-0.85031 0.29078h-0.55789z"/></g></svg>
