<?xml version="1.0" encoding="UTF-8"?>
<svg version="1.1" viewBox="0 0 22 22" xmlns="http://www.w3.org/2000/svg"><defs><style type="text/css">.ColorScheme-Text {
        color:#eff0f1;
      }</style></defs><path class="ColorScheme-Text" d="m9.1538 1c-2.0455 0-3.6923 1.6725-3.6923 3.75s1.6468 3.75 3.6923 3.75 3.6923-1.6725 3.6923-3.75-1.6468-3.75-3.6923-3.75zm0 10c-3.4092 0-6.1538 1.115-6.1538 2.5v7.5h8.6154v-1.25h-7.3846v-5.7153c0-0.98929 2.1957-1.7847 4.9231-1.7847 2.2094 0 4.0485 0.52585 4.6755 1.25h1.4784c0-1.385-2.7446-2.5-6.1538-2.5zm6.1538 3.75v2.5h-2.4615v1.25h2.4615v2.5h1.2308v-2.5h2.4615v-1.25h-2.4615v-2.5z" color="#eff0f1" fill="currentColor"/></svg>
