<?xml version="1.0" encoding="UTF-8"?>
<svg viewBox="0 0 22 22" xmlns="http://www.w3.org/2000/svg"><defs><style type="text/css">.ColorScheme-Text {
        color:#eff0f1;
      }</style></defs><path class="ColorScheme-Text" d="m11 3c-1.385 0-2.5 1.115-2.5 2.5v6c0 1.385 1.115 2.5 2.5 2.5s2.5-1.115 2.5-2.5v-6c0-1.385-1.115-2.5-2.5-2.5zm-5.5 7v1c9.163e-4 2.2356 1.6341 4.1989 4 4.8086v2.1914h-2v1h7v-1h-2v-2.1934c2.3651-0.6095 3.9981-2.5718 4-4.8066v-1h-1v1c0 2.2091-2.0147 4-4.5 4s-4.5-1.7909-4.5-4v-1h-1z" fill="currentColor"/></svg>
