<?xml version="1.0" encoding="UTF-8"?>
<svg version="1.1" viewBox="0 0 22 22" xmlns="http://www.w3.org/2000/svg"><defs><style type="text/css">.ColorScheme-Text {
        color:#eff0f1;
      }</style></defs><path class="ColorScheme-Text" d="m10.688 10v4.125h1.375v2.75h-2.0625v4.125h4.125v-4.125h-1.375v-2.75h3.4375v-1.375h2.75v4.8125h-1.375v3.4375h3.4375v-3.4375h-1.375v-5.5h-3.4375v-2.0625h-5.5m0.6875 0.6875h4.125v2.75h-4.125v-2.75m-0.6875 6.875h2.75v2.75h-2.75v-2.75" color="#eff0f1" fill="currentColor"/><g transform="matrix(.8 0 0 .83333 -1.4 -864.3)"><path class="ColorScheme-Text" d="m8 1038.4c-1.662 0-3 1.338-3 3v3h-2v6h10v-6h-2v-3c0-1.662-1.338-3-3-3zm0 1c1.2465 0 2 0.5458 2 2v3h-4v-3c0-1.4542 0.75351-2 2-2zm-4 6h8v4h-8z" color="#eff0f1" fill="currentColor"/></g></svg>
