<?xml version="1.0" encoding="UTF-8"?>
<svg version="1.1" viewBox="0 0 22 22" xmlns="http://www.w3.org/2000/svg" xmlns:xlink="http://www.w3.org/1999/xlink"><linearGradient id="j" x1="6" x2="26" y1="6" y2="26" gradientTransform="matrix(.71428 0 0 .71429 -.42856 -.42857)" gradientUnits="userSpaceOnUse" xlink:href="#a"/><linearGradient id="a"><stop stop-color="#292c2f" offset="0"/><stop stop-opacity="0" offset="1"/></linearGradient><linearGradient id="i" x1="23" x2="30" y1="13" y2="20" gradientTransform="matrix(.71428 0 0 .71429 -.42856 -.42857)" gradientUnits="userSpaceOnUse" xlink:href="#a"/><linearGradient id="h" x1="2" x2="2" y1="30" y2="2" gradientTransform="matrix(.71428 0 0 .71429 -.42856 -.42857)" gradientUnits="userSpaceOnUse"><stop stop-color="#a5a5a5" offset="0"/><stop stop-color="#f5f2f5" offset="1"/></linearGradient><linearGradient id="b" x2="0" y1="23" y2="9" gradientTransform="matrix(.71428 0 0 .71429 -.42856 -.42857)" gradientUnits="userSpaceOnUse"><stop stop-color="#ffd42a" offset="0"/><stop stop-color="#ffdf62" offset="1"/></linearGradient><linearGradient id="g" x1="12" x2="25" y1="12" y2="25" gradientTransform="matrix(.71428 0 0 .71429 -.42856 -.42857)" gradientUnits="userSpaceOnUse" xlink:href="#a"/><g stroke-width=".71428"><rect x="1" y="1" width="20" height="20" rx="9.9999" fill="#4f575f"/><path d="m12.853 1.1771-2.125 0.27143-2.9536 1.7057-1.0728 1.8579s-1.4093 0.99286-1.6221 0.93571c-1.7978-0.020714-2.7636 0.475-3.2714 1.1057-0.215 0.50214-0.38357 1.0286-0.51428 1.5693-0.00429 0.54286 0.115 0.965 0.115 0.965 5.0428 4.5407 10.086 6.4979 15.13 9.745a9.9285 9.9286 0 0 0 0.91071-0.685l0.04929-0.04286c0.25714-0.22 0.50214-0.45429 0.73499-0.69929 0.05143-0.05429 0.1-0.11071 0.15-0.16571a9.9485 9.9486 0 0 0 1.2493-1.6964l0.03928-0.06428a9.9935 9.9936 0 0 0 1.3028-4.4871l0.0014-0.01429v-7.14e-4l-1.3028-5.4557a9.9642 9.9643 0 0 0-6.8214-4.845z" fill="url(#j)" fill-rule="evenodd" opacity=".2"/><path d="m20.294 7.3157-3.0764 4.7571 2.9428 2.9429a9.9978 9.9979 0 0 0 0.13357-7.7z" fill="url(#i)" fill-rule="evenodd" opacity=".2"/><path d="m11 1a9.9999 10 0 0 0-9.3278 6.4286h0.042142l2.1428-0.71429 1.4286 1.4286v-1.4286l1.4286-0.71429v-0.71429l1.4286-0.71429 1.4286-1.4286v0.71429l0.71428-0.71429-0.71428-0.71429h1.4286v0.71429l1.4286-0.71429-0.71428-0.71429v-0.67857a9.9999 10 0 0 0-0.71428-0.035714zm7.4107 3.3036-0.26786 0.26786v0.71429h1.0493a9.9999 10 0 0 0-0.78142-0.98214zm0.93999 1.2029-2.6364 2.6364-0.71428 2.1429v0.71429l1.4286 1.4286 1.4286 0.71429 1.9936-0.49143a9.9999 10 0 0 0 0.14928-1.6514 9.9999 10 0 0 0-1.6493-5.4936zm-16.922 3.3507-0.71428 0.71429h-0.59857c-0.035714 0.24286-0.062857 0.48643-0.080714 0.73071v0.0014l1.3936 0.69646 0.71428 0.71429 1.4286 0.71428 0.71428 0.71429-0.71428 0.71429v1.4286l0.71428 1.4286 1.4286 1.4286v1.8779a9.9999 10 0 0 0 4.2857 0.97929c0.12143-0.0021 0.24286-0.0064 0.36428-0.01286l0.35-0.70143v-0.71428l1.4286-0.71429 0.71428-0.71429v-1.4286l0.71428-0.71429v-0.71429l-0.71428-0.71428-2.1428-0.71429-1.4286-1.4286h-0.71428l-0.71428-0.71428-2.1428-0.71429-1.4286 0.71429h-1.4286v-1.4286h-0.71428v-1.4286z" fill="url(#h)"/><path d="m11.071 6-0.78571 0.71429v1.4286h-1.4286l-1.4286 1.4286v4.2857l6.6557 6.6557a9.9714 9.9714 0 0 0 6.3071-6.0929l-6.1057-6.1357-0.49428 0.45z" fill="url(#g)" fill-rule="evenodd" opacity=".2"/><path d="m11 6a1.4286 1.4286 0 0 0-1.4286 1.4286 1.4286 1.4286 0 0 0 0.022143 0.24143 4.2857 4.2857 0 0 0-2.8793 4.0443 4.2857 4.2857 0 0 0 4.2857 4.2857 4.2857 4.2857 0 0 0 4.2857-4.2857 4.2857 4.2857 0 0 0-0.81071-2.5014 0.71428 0.71429 0 0 0 0.096428-0.35571 0.71428 0.71429 0 0 0-0.71428-0.71429 0.71428 0.71429 0 0 0-0.35714 0.096429 4.2857 4.2857 0 0 0-1.0928-0.56786 1.4286 1.4286 0 0 0 0.021429-0.24286 1.4286 1.4286 0 0 0-1.4286-1.4286zm0 0.71429a0.71428 0.71429 0 0 1 0.71428 0.71429 0.71428 0.71429 0 0 1-0.0043 0.06 4.2857 4.2857 0 0 0-0.70998-0.06 4.2857 4.2857 0 0 0-0.71142 0.064286 0.71428 0.71429 0 0 1-0.0029-0.064286 0.71428 0.71429 0 0 1 0.71428-0.71429zm0 1.4286a3.5714 3.5714 0 0 1 0.315 0.015 3.5714 3.5714 0 0 1 0.04214 0.00286 3.5714 3.5714 0 0 1 0.09286 0.014286 3.5714 3.5714 0 0 1 0.22857 0.035714 3.5714 3.5714 0 0 1 0.09571 0.021429 3.5714 3.5714 0 0 1 0.26428 0.068571 3.5714 3.5714 0 0 1 0.07357 0.021429 3.5714 3.5714 0 0 1 0.0014 0 3.5714 3.5714 0 0 1 0.04428 0.017143 3.5714 3.5714 0 0 1 0.24428 0.095 3.5714 3.5714 0 0 1 0.095 0.042857 3.5714 3.5714 0 0 1 0.23428 0.11929 3.5714 3.5714 0 0 1 0.06286 0.035714 3.5714 3.5714 0 0 1 0.26071 0.16785 3.5714 3.5714 0 0 1 0.01 0.00571 3.5714 3.5714 0 0 1 0.04286 0.032143 3.5714 3.5714 0 0 1 0.035 0.025 3.5714 3.5714 0 0 1 0.70857 0.70857 3.5714 3.5714 0 0 1 0.0014 0.00286 3.5714 3.5714 0 0 1 0.19 0.27857 3.5714 3.5714 0 0 1 0.0093 0.014286 3.5714 3.5714 0 0 1 0.0057 0.011429 3.5714 3.5714 0 0 1 0.16071 0.29714 3.5714 3.5714 0 0 1 0.0029 5e-3 3.5714 3.5714 0 0 1 0.0029 0.0057 3.5714 3.5714 0 0 1 0.125 0.30143 3.5714 3.5714 0 0 1 0.01572 0.04214 3.5714 3.5714 0 0 1 0.08571 0.27714 3.5714 3.5714 0 0 1 0.02143 0.08786 3.5714 3.5714 0 0 1 0.04643 0.23071 3.5714 3.5714 0 0 1 0.02214 0.14286 3.5714 3.5714 0 0 1 0.01786 0.2 3.5714 3.5714 0 0 1 0.01286 0.24572 3.5714 3.5714 0 0 1-0.015 0.315 3.5714 3.5714 0 0 1-0.01857 0.15 3.5714 3.5714 0 0 1-0.03071 0.19643 3.5714 3.5714 0 0 1-0.03786 0.16857 3.5714 3.5714 0 0 1-0.04286 0.17286 3.5714 3.5714 0 0 1-0.06 0.17857 3.5714 3.5714 0 0 1-0.05714 0.15786 3.5714 3.5714 0 0 1-0.08571 0.18714 3.5714 3.5714 0 0 1-0.06071 0.12643 3.5714 3.5714 0 0 1-0.10357 0.18143 3.5714 3.5714 0 0 1-0.08214 0.13429 3.5714 3.5714 0 0 1-0.11286 0.15714 3.5714 3.5714 0 0 1-0.09786 0.12857 3.5714 3.5714 0 0 1-0.12428 0.14286 3.5714 3.5714 0 0 1-0.11857 0.12643 3.5714 3.5714 0 0 1-0.12714 0.11857 3.5714 3.5714 0 0 1-0.14214 0.12428 3.5714 3.5714 0 0 1-0.12857 0.09786 3.5714 3.5714 0 0 1-0.15714 0.11286 3.5714 3.5714 0 0 1-0.13428 0.08214 3.5714 3.5714 0 0 1-0.18143 0.10357 3.5714 3.5714 0 0 1-0.12643 0.06143 3.5714 3.5714 0 0 1-0.18714 0.085 3.5714 3.5714 0 0 1-0.15714 0.05714 3.5714 3.5714 0 0 1-0.17857 0.06 3.5714 3.5714 0 0 1-0.17357 0.04286 3.5714 3.5714 0 0 1-0.16857 0.03786 3.5714 3.5714 0 0 1-0.19714 0.03071 3.5714 3.5714 0 0 1-0.14928 0.01857 3.5714 3.5714 0 0 1-0.31504 0.015 3.5714 3.5714 0 0 1-0.315-0.015 3.5714 3.5714 0 0 1-0.15-0.01857 3.5714 3.5714 0 0 1-0.19643-0.03071 3.5714 3.5714 0 0 1-0.16857-0.03786 3.5714 3.5714 0 0 1-0.17286-0.04286 3.5714 3.5714 0 0 1-0.17857-0.06 3.5714 3.5714 0 0 1-0.15786-0.05714 3.5714 3.5714 0 0 1-0.18714-0.0857 3.5714 3.5714 0 0 1-0.12643-0.060716 3.5714 3.5714 0 0 1-0.18143-0.10357 3.5714 3.5714 0 0 1-0.13428-0.082142 3.5714 3.5714 0 0 1-0.15714-0.11286 3.5714 3.5714 0 0 1-0.12857-0.097857 3.5714 3.5714 0 0 1-0.14286-0.12428 3.5714 3.5714 0 0 1-0.12643-0.11857 3.5714 3.5714 0 0 1-0.11857-0.12714 3.5714 3.5714 0 0 1-0.12428-0.14214 3.5714 3.5714 0 0 1-0.097856-0.12857 3.5714 3.5714 0 0 1-0.11286-0.15714 3.5714 3.5714 0 0 1-0.082142-0.13429 3.5714 3.5714 0 0 1-0.10357-0.18143 3.5714 3.5714 0 0 1-0.061428-0.12643 3.5714 3.5714 0 0 1-0.084999-0.18714 3.5714 3.5714 0 0 1-0.057142-0.15714 3.5714 3.5714 0 0 1-0.059999-0.17857 3.5714 3.5714 0 0 1-0.042857-0.17357 3.5714 3.5714 0 0 1-0.037857-0.16857 3.5714 3.5714 0 0 1-0.030714-0.19714 3.5714 3.5714 0 0 1-0.018571-0.14928 3.5714 3.5714 0 0 1-0.015-0.315 3.5714 3.5714 0 0 1 0.015-0.315 3.5714 3.5714 0 0 1 0.017143-0.13572 3.5714 3.5714 0 0 1 0.035714-0.22714 3.5714 3.5714 0 0 1 0.022857-0.10357 3.5714 3.5714 0 0 1 0.062857-0.24429 3.5714 3.5714 0 0 1 0.033571-0.10143 3.5714 3.5714 0 0 1 0.083571-0.23 3.5714 3.5714 0 0 1 0.051428-0.11429 3.5714 3.5714 0 0 1 0.10357-0.21071 3.5714 3.5714 0 0 1 0.048571-0.087143 3.5714 3.5714 0 0 1 0.13928-0.22714 3.5714 3.5714 0 0 1 0.045-0.061428 3.5714 3.5714 0 0 1 0.17571-0.23 3.5714 3.5714 0 0 1 0.027857-0.032143 3.5714 3.5714 0 0 1 0.22428-0.24 3.5714 3.5714 0 0 1 0.26428-0.23143 3.5714 3.5714 0 0 1 0.016428-0.014286 3.5714 3.5714 0 0 1 0.26928-0.19071 3.5714 3.5714 0 0 1 0.029286-0.018571 3.5714 3.5714 0 0 1 0.29-0.16571 3.5714 3.5714 0 0 1 0.325-0.145 3.5714 3.5714 0 0 1 0.80071-0.20786 3.5714 3.5714 0 0 1 0.01857-0.00286 3.5714 3.5714 0 0 1 0.015-0.00143 3.5714 3.5714 0 0 1 0.265-0.023571 3.5714 3.5714 0 0 1 0.08143-0.00571 3.5714 3.5714 0 0 1 0.11-0.00429zm0 0.71429v2.1429a0.71428 0.71429 0 0 1 0.71428 0.71429h2.1428a2.8571 2.8571 0 0 0-0.01286-0.24143 2.8571 2.8571 0 0 0-0.01786-0.15 2.8571 2.8571 0 0 0-0.01929-0.13286 2.8571 2.8571 0 0 0-0.03643-0.15929 2.8571 2.8571 0 0 0-0.02857-0.11 2.8571 2.8571 0 0 0-0.05-0.15357 2.8571 2.8571 0 0 0-0.04713-0.12857 2.8571 2.8571 0 0 0-0.05571-0.12428 2.8571 2.8571 0 0 0-0.06428-0.13214 2.8571 2.8571 0 0 0-0.06714-0.11714 2.8571 2.8571 0 0 0-0.08214-0.13429 2.8571 2.8571 0 0 0-0.06929-0.09643 2.8571 2.8571 0 0 0-0.10072-0.13214 2.8571 2.8571 0 0 0-0.080714-0.092143 2.8571 2.8571 0 0 0-0.10643-0.11429 2.8571 2.8571 0 0 0-0.11428-0.10643 2.8571 2.8571 0 0 0-0.09214-0.080714 2.8571 2.8571 0 0 0-0.13214-0.1 2.8571 2.8571 0 0 0-0.09643-0.07 2.8571 2.8571 0 0 0-0.13429-0.082143 2.8571 2.8571 0 0 0-0.11714-0.067143 2.8571 2.8571 0 0 0-0.13214-0.064286 2.8571 2.8571 0 0 0-0.12428-0.055714 2.8571 2.8571 0 0 0-0.12857-0.047857 2.8571 2.8571 0 0 0-0.15357-0.05 2.8571 2.8571 0 0 0-0.11-0.027857 2.8571 2.8571 0 0 0-0.15928-0.035714 2.8571 2.8571 0 0 0-0.13214-0.02 2.8571 2.8571 0 0 0-0.15071-0.017858 2.8571 2.8571 0 0 0-0.24143-0.012857z" fill="url(#b)"/><path d="m20.985 10.581a9.9999 10 0 0 1-9.9849 9.7043 9.9999 10 0 0 1-9.9849-9.5814 9.9999 10 0 0 0-0.015 0.29571 9.9999 10 0 0 0 9.9999 10 9.9999 10 0 0 0 9.9999-10 9.9999 10 0 0 0-0.015-0.41857z" fill="#292c2f" opacity=".3"/></g></svg>
