<?xml version="1.0" encoding="UTF-8"?>
<svg version="1.1" viewBox="0 0 22 22" xmlns="http://www.w3.org/2000/svg"><defs><style type="text/css">.ColorScheme-Text {
        color:#eff0f1;
      }</style></defs><path class="ColorScheme-Text" d="m10.375 1c-1.7312 0-3.125 1.3938-3.125 3.125v3.125l-6.25 6.25 7.5 7.5 8.75-8.75-3.75-3.75v-4.375c0-1.7312-1.3938-3.125-3.125-3.125m0 1.25c1.0388 0 1.875 0.83625 1.875 1.875v3.125l-2.5-2.5-1.25 1.25v-1.875c0-1.0388 0.83625-1.875 1.875-1.875m-0.625 4.2676 5.6689 5.6714c-4.4192 5.0621-6.9199-2.4389-12.651 1.311l6.9824-6.9824m9.375 4.4824s-1.875 3.3395-1.875 4.375 0.83946 1.875 1.875 1.875c1.0355 0 1.875-0.8395 1.875-1.875s-1.875-4.375-1.875-4.375z" color="#eff0f1" fill="currentColor"/></svg>
