<?xml version="1.0" encoding="UTF-8"?>
<svg version="1.1" viewBox="0 0 22 22" xmlns="http://www.w3.org/2000/svg"><defs><style type="text/css">.ColorScheme-Text {
        color:#eff0f1;
      }</style></defs><path class="ColorScheme-Text" d="m20.391 1.0093a2.5 11.25 44.998 0 0-9.3062 6.3722 2.5 11.25 44.998 0 0-4.4285 5.1417c1.345 0.42831 2.3938 1.4772 2.8221 2.8223a2.5 11.25 44.998 0 0 5.1413-4.4288 2.5 11.25 44.998 0 0 6.1862-9.7219 2.5 11.25 44.998 0 0-0.41502-0.18555m-14.391 13.321c-4.9998 1.3398-1.2499 4.505-4.9998 6.6701 5.004 0 7.4996-2.5011 7.4996-4.17 0-0.83112 0.084496-2.3619-2.4999-2.5001z" color="#eff0f1" fill="currentColor"/></svg>
