<?xml version="1.0" encoding="UTF-8"?>
<svg version="1.1" viewBox="0 0 22 22" xmlns="http://www.w3.org/2000/svg"><defs><style type="text/css">.ColorScheme-Text {
        color:#eff0f1;
      }</style></defs><path class="ColorScheme-Text" d="m1 1v5h1.25v-3.75h3.75v-1.25h-5m15 0v1.25h3.75v3.75h1.25v-5zm-12.5 2.5v6.25h6.25v-6.25h-6.25m8.75 0v6.25h6.25v-6.25h-6.25m-7.5 1.25h3.75v3.75h-3.75v-3.75m8.75 0h3.75v3.75h-3.75zm-10 7.5v6.25h6.25v-6.25h-6.25m8.75 0v6.25h6.25v-6.25h-6.25m-7.5 1.25h3.75v3.75h-3.75v-3.75m8.75 0h3.75v3.75h-3.75v-3.75m-12.5 2.5v5h5v-1.25h-3.75v-3.75h-1.25m18.75 0v3.75h-3.75v1.25h5v-5h-1.25" color="#eff0f1" fill="currentColor"/></svg>
