<?xml version="1.0" encoding="UTF-8"?>
<svg version="1.1" viewBox="0 0 22 22" xmlns="http://www.w3.org/2000/svg" xmlns:xlink="http://www.w3.org/1999/xlink"><linearGradient id="a"><stop stop-color="#f39c1f" offset="0"/><stop stop-color="#fdbc4b" offset="1"/></linearGradient><linearGradient id="l" x1="17.382" x2="17.032" y1="26.933" y2="13.634" gradientTransform="matrix(.7086 0 0 .71429 -.54328 -.42881)" gradientUnits="userSpaceOnUse"><stop stop-color="#fcfcfc" offset="0"/><stop stop-color="#eff0f1" offset="1"/></linearGradient><linearGradient id="m" x1="15" x2="15" y1="27" y2="1.999" gradientTransform="matrix(.7086 0 0 .71429 -.54328 -.42881)" gradientUnits="userSpaceOnUse"><stop stop-color="#1d1e1e" offset="0"/><stop stop-color="#44484c" offset="1"/></linearGradient><linearGradient id="h" x1="16" x2="15.731" y1="12" y2="8.152" gradientTransform="matrix(.7086 0 0 .71429 -.54328 -.42881)" gradientUnits="userSpaceOnUse" xlink:href="#a"/><linearGradient id="k" x1="10" x2="10" y1="30" y2="20.999" gradientTransform="matrix(.7086 0 0 .71429 -.54328 -.42881)" gradientUnits="userSpaceOnUse" xlink:href="#a"/><linearGradient id="j" x1="22.778" x2="22.645" y1="29.541" y2="22.641" gradientTransform="matrix(.7086 0 0 .71429 -.54328 -.42881)" gradientUnits="userSpaceOnUse" xlink:href="#a"/><linearGradient id="i" x1="13.167" x2="16.667" y1="10.613" y2="14.113" gradientTransform="matrix(.7086 0 0 .71429 -.54328 -.42881)" gradientUnits="userSpaceOnUse"><stop offset="0"/><stop stop-opacity="0" offset="1"/></linearGradient><g stroke-width=".71144"><path d="m8.4042 7.037c0.2551-1.0186 0.0092-2.1015 0.04464-3.1515 0.07794-2.2929 1.3407-2.8129 2.6353-2.8807 1.4852-0.078572 3.2433 0.80858 3.3496 2.9715 0.05031 1.035-0.13109 2.1043 0.13392 3.1057 0.61719 2.3357 3.2667 4.0222 3.3049 6.4379 0.03543 2.2957-1.0133 5.0015-2.9478 6.2129-0.99913 0.62572-2.3547-0.125-3.5288-0.045-1.306 0.09-2.7586 1.2593-3.8853 0.58572-2.045-1.2236-2.6091-4.3608-2.456-6.7536 0.15589-2.4315 2.7579-4.12 3.3496-6.4829z" fill="url(#m)"/><ellipse cx="12.041" cy="5.1298" rx="1.0501" ry="1.3686" fill="#fcfcfc" fill-opacity=".941"/><ellipse cx="9.5543" cy="5.1777" rx=".74191" ry="1.1143" fill="#fcfcfc" fill-opacity=".941"/><ellipse cx="11.911" cy="5.3527" rx=".43012" ry=".71644" fill="#232629"/><ellipse cx="9.5578" cy="5.3527" rx=".32737" ry=".53358" fill="#232629"/><path d="m11.903 6.5405a3.5912 3.62 0 0 0-0.38619 0.00286c-0.87158 0.051426-1.8055 0.39643-2.2774 0.81429-0.75537 0.66929-0.30753 1.32-0.63278 2.26-0.32525 0.94001-1.1437 2.17-1.3889 3.3429-0.099204 0.47358-0.22534 0.94715-0.31178 1.4229l2.3334 2.8743c0.45846 0.56429-0.73766 0.355-1.8502-0.37143 0.78938 1.1193 2.3554 2.2286 3.9016 2.1236 1.6468-0.11143 3.5912-1.8472 4.2133-3.2665-0.60373-0.10286-1.1905-1.0186-0.70718-1.7007 0.16794-0.23643 0.52862-0.25715 0.83828-0.20714-0.18636-0.72715-0.55767-1.3786-0.74403-1.9257-0.32312-0.9543-0.69868-1.2214-1.0416-2.0686-0.34367-0.84715 0.019132-2.4143-0.94811-3.0243-0.2721-0.17143-0.62003-0.25715-0.99842-0.27643z" fill="url(#l)"/><path d="m4.6529 15.546c0.34509-0.27857 0.50665-0.84501 0.93748-0.94572 0.33729-0.07857 0.71569 0.11643 0.98283 0.33786 0.61011 0.50572 0.70293 1.4386 1.1834 2.0715 0.32029 0.42072 0.86308 0.66001 1.1168 1.125 0.26431 0.48572 0.60515 1.1272 0.35714 1.6207-0.33446 0.66501-1.2925 0.87144-2.0323 0.90001-0.44925 0.01786-0.83969-0.32858-1.2726-0.45-0.63066-0.17714-1.3584-0.067858-1.9203-0.405-0.445-0.26643-0.9722-0.67215-1.0048-1.1929-0.013463-0.20572 0.28486-0.31786 0.33446-0.51786 0.1318-0.52572-0.37343-1.1357-0.13393-1.6214 0.2551-0.51572 1.0048-0.56215 1.4519-0.92215z" fill="url(#k)"/><path d="m14.642 14.763c-0.14243 0.12857-0.26289 0.29072-0.35076 0.45143-0.38123 0.69786-0.12401 1.6-0.338 2.3665-0.14314 0.51072-0.55909 0.93572-0.62357 1.4614-0.06732 0.55001-0.14881 1.2729 0.26289 1.6393 0.55554 0.49286 1.5214 0.32643 2.2186 0.07714 0.42445-0.15143 0.659-0.61858 1.0168-0.89287 0.52012-0.4 1.2365-0.57144 1.6347-1.0936 0.31533-0.41429 0.65687-0.98715 0.49602-1.4829-0.06378-0.19572-0.38123-0.18929-0.50098-0.35643-0.31533-0.43929-0.07086-1.1929-0.47122-1.5543-0.29761-0.26786-0.73482-0.23715-1.1571-0.24857-0.20408 0.44072-0.86875 0.74072-1.3258 0.61286-0.3869-0.10857-0.77238-0.55215-0.86166-0.98001z" fill="url(#j)"/><path d="m12.92 6.2863 2.3618 2.3807-3.3063 1.7-3.1887-3.2143" fill="url(#i)" opacity=".2"/><path d="m10.604 5.3941c0.46697-0.025 0.89638 0.28 1.318 0.48358 0.40745 0.19786 1.1033 0.25715 1.1607 0.70929 0.0659 0.51358-0.65191 0.81644-1.0714 1.1143-0.37485 0.26643-0.79293 0.57858-1.2507 0.57429-0.46272-5e-3 -0.87229-0.33929-1.2507-0.60786-0.31178-0.22143-0.80285-0.42572-0.81489-0.81072-0.01346-0.41143 0.48894-0.67358 0.81489-0.92287 0.32312-0.24715 0.68876-0.51858 1.0941-0.54001z" fill="url(#h)"/><path d="m5.849 14.589a0.74687 0.75287 0 0 0-0.25864 0.01143c-0.43083 0.10072-0.5931 0.66715-0.93819 0.94572-0.44713 0.36-1.1968 0.40715-1.4519 0.92215-0.10629 0.21572-0.058105 0.45715 0.0085 0.70358 0.26077-0.50429 0.99984-0.55429 1.4434-0.91144 0.34509-0.27858 0.50736-0.84501 0.93819-0.94572 0.33729-0.07857 0.71569 0.11643 0.98283 0.33786 0.61011 0.50572 0.70293 1.4386 1.1834 2.0715 0.32029 0.42143 0.86308 0.65929 1.1168 1.1243 0.13818 0.25429 0.29265 0.55144 0.37768 0.84715 0.19487-0.485-0.124-1.0943-0.37768-1.5614-0.25368-0.46429-0.79647-0.70358-1.1168-1.1243-0.48043-0.63286-0.57326-1.5657-1.1834-2.0715-0.20053-0.16643-0.46272-0.31715-0.72419-0.34929zm-2.5673 3.5972c-0.098496 0.14357-0.29194 0.25143-0.28061 0.42143 0.00992 0.15714 0.073695 0.3 0.15802 0.43572 0.074403-0.07286 0.15235-0.14643 0.17573-0.23929 0.049602-0.19786 0.00426-0.40786-0.053145-0.61786zm11.36-3.4222c-0.14243 0.12857-0.26218 0.28929-0.35005 0.45-0.38123 0.69786-0.12542 1.6014-0.33942 2.3679-0.14314 0.51072-0.55838 0.93501-0.62286 1.4607-0.03756 0.30715-0.06944 0.66215-0.02764 0.98501 0.0092-0.09143 0.017-0.18572 0.02834-0.27143 0.06378-0.52501 0.47902-0.95001 0.62215-1.46 0.214-0.76644-0.04252-1.67 0.33942-2.3679 0.08786-0.16072 0.20762-0.32143 0.35005-0.45 0.08928 0.42786 0.47476 0.87072 0.86166 0.97858 0.45705 0.12857 1.1224-0.17143 1.3265-0.61215 0.42233 0.01143 0.85883-0.01929 1.1564 0.24857 0.40036 0.36143 0.15589 1.1143 0.47051 1.5543 0.10629 0.14786 0.35926 0.16786 0.46059 0.305 0.07512-0.22286 0.10983-0.44929 0.04039-0.66215-0.06378-0.19572-0.38123-0.19-0.50098-0.35715-0.31533-0.43929-0.07015-1.1929-0.47051-1.5543-0.29761-0.26786-0.73411-0.23715-1.1564-0.24857-0.20408 0.44072-0.86946 0.74072-1.3265 0.61286-0.3869-0.10857-0.77238-0.55143-0.86166-0.9793z" fill="#eff0f1" fill-opacity=".125"/></g></svg>
