<?xml version="1.0" encoding="UTF-8"?>
<svg width="48" height="48" version="1.1" viewBox="0 0 12.7 12.7" xmlns="http://www.w3.org/2000/svg"><g transform="translate(0 -284.3)"><path d="m0 290.65v-6.35h12.7v12.7h-12.7zm12.171 0v-5.8208h-11.642v11.642h11.642zm-10.453 0.0234 0.0061-4.6442 4.5621-0.0183c2.5091-0.0101 4.5655 0.0473 4.5697 0.12759 0.0042 0.0802 0.02265 2.17 0.04105 4.6438l0.03345 4.4979-9.2185 0.0374 0.0061-4.6442zm4.3197 2.1421c0.04631-0.48245-0.07275-1.0674-0.26458-1.2998-0.2749-0.33309-0.27872-0.4462-0.01805-0.53393 0.1819-0.0612 0.33073-0.27999 0.33073-0.48614 0-0.26785-0.33981-0.37483-1.1906-0.37483-0.65484 0-1.1906 0.11907-1.1906 0.26459s0.26194 0.26458 0.58208 0.26458c0.45273 0 0.51153 0.0706 0.26458 0.3175-0.48688 0.48688-0.37772 1.0054 0.21167 1.0054 0.38806 0 0.52917 0.17639 0.52917 0.66145 0 0.72407-0.70024 0.91372-1.27 0.34396-0.24694-0.24694-0.3175-0.22734-0.3175 0.0882 0 0.62941 0.29968 0.79024 1.3135 0.70492 0.84683-0.0713 0.94348-0.16189 1.0197-0.95592zm2.6939 0.74489c0-0.14552-0.30999-0.26459-0.68887-0.26459h-0.68887l0.82116-0.93524c0.92753-1.0564 0.91978-1.0319 0.54727-1.728-0.17217-0.3217-0.5532-0.51178-1.0259-0.51178-0.79728 0-1.566 0.62656-1.1126 0.90681 0.14253 0.0881 0.33393 0.0392 0.42534-0.10874 0.0914-0.1479 0.33776-0.2689 0.54745-0.2689 0.64406 0 0.42372 0.91865-0.41249 1.7198-1.1336 1.0861-1.033 1.4552 0.39688 1.4552 0.65484 0 1.1906-0.11906 1.1906-0.26458zm-3.7042-3.9467c0-0.1334-0.14883-0.29263-0.33073-0.35385-0.25784-0.0868-0.2507-0.20827 0.0324-0.55122 0.23606-0.28597 0.25921-0.4399 0.06615-0.4399-0.16334 0-0.29698-0.17859-0.29698-0.39688 0-0.21828 0.17859-0.39687 0.39688-0.39687 0.21828 0 0.39688 0.16402 0.39688 0.36448s0.17859 0.5127 0.39688 0.69385c0.43983 0.36503 0.55086 0.92015 0.13229 0.66146-0.14552-0.0899-0.26458 0.0304-0.26458 0.26737 0 0.29552 0.18704 0.40433 0.59531 0.34635 0.72132-0.10245 0.93208-1.0407 0.3435-1.5292-0.52304-0.43408-0.53108-0.83434-0.01277-0.63545 0.21828 0.0838 0.39688 0.0301 0.39688-0.1192 0-0.1546-0.68354-0.27477-1.5875-0.27909l-1.5875-8e-3v1.3091c1e-6 1.22 0.04503 1.3091 0.66146 1.3091 0.3638 0 0.66146-0.10914 0.66146-0.24253zm2.9104-0.17808c0-0.23134 0.25798-0.62951 0.57329-0.88483 0.78089-0.63233 0.48244-1.3404-0.56498-1.3404-0.78608 0-0.80205 0.0263-0.80205 1.3229 0 0.99954 0.09701 1.3229 0.39688 1.3229 0.21828 0 0.39688-0.18927 0.39688-0.42061zm0.02089-1.5858c0.01269-0.30823 0.07539-0.37092 0.15985-0.15986 0.07643 0.191 0.06703 0.4192-0.02089 0.50712-0.08792 0.0879-0.15045-0.0684-0.13896-0.34726z" fill="#eff0f1" stroke-width=".26458"/></g></svg>
