<?xml version="1.0" encoding="UTF-8"?>
<svg version="1.1" viewBox="0 0 22 22" xmlns="http://www.w3.org/2000/svg"><g transform="translate(-326 -534.36)"><path d="m330.65 535.36v3.5294h1.1538v3.596c-1.3405 0.27898-2.3043 1.4796-2.3077 2.8745 2e-3 1.3958 0.96641 2.5977 2.3077 2.8768v3.5938h-1.1538v3.5294h3.4615v-3.5294h-1.1538v-2.1416a11.538 10 0 0 0 10.385 5.671 11.538 10 0 0 0 1.1538-0.0506v-1.1926a10.385 8.8235 0 0 1-1.1538 0.0666 10.385 8.8235 0 0 1-9.8685-6.1121c1.078-0.4512 1.7899-1.5175 1.7916-2.7114-4.9e-4 -1.197-0.71394-2.2679-1.7961-2.7183a10.385 8.8235 0 0 1 9.873-6.1052 10.385 8.8235 0 0 1 1.1538 0.0597v-1.1765a11.538 10 0 0 0-1.1538-0.0597 11.538 10 0 0 0-10.385 5.6595v-2.1301h1.1538v-3.5294zm1.1538 1.1765h1.1538v1.1765h-1.1538zm0.57693 7.0588a1.7308 1.7647 0 0 1 1.4581 0.81802 1.7308 1.7647 0 0 1 0.19832 0.44117c4.9e-4 2e-3 2e-3 3e-3 2e-3 5e-3a1.7308 1.7647 0 0 1 0 5e-3 1.7308 1.7647 0 0 1 0.0721 0.49632 1.7308 1.7647 0 0 1-0.0721 0.50322 1.7308 1.7647 0 0 1-0.19831 0.44117c-9e-4 1e-3 -9.8e-4 3e-3 -2e-3 5e-3a1.7308 1.7647 0 0 1-2e-3 2e-3 1.7308 1.7647 0 0 1-0.30875 0.36535 1.7308 1.7647 0 0 1-1.1471 0.44807 1.7308 1.7647 0 0 1-1.3499-0.66177 1.7308 1.7647 0 0 1-0.27494-0.50092c-2e-3 -6e-3 -5e-3 -0.0121-7e-3 -0.0184a1.7308 1.7647 0 0 1-0.0992-0.58364 1.7308 1.7647 0 0 1 0.0969-0.57675c4e-3 -0.0102 8e-3 -0.0197 0.0113-0.0299a1.7308 1.7647 0 0 1 0.26818-0.48713c4.1e-4 -5.2e-4 -4e-4 -2e-3 0-2e-3a1.7308 1.7647 0 0 1 1.3544-0.66866zm-0.57693 9.4118h1.1538v1.1765h-1.1538z" color="#000000" color-rendering="auto" fill="#35bedc" image-rendering="auto" shape-rendering="auto" solid-color="#000000" style="isolation:auto;mix-blend-mode:normal"/><rect x="273.38" y="518.48" width="0" height="14.668" fill="#04896a"/><rect x="280.34" y="541.05" width="0" height="14.668" fill="#16907d"/><rect x="282.16" y="539.99" width="0" height="14.668" fill="#6c7a89"/></g></svg>
