<?xml version="1.0" encoding="UTF-8"?>
<svg version="1.1" viewBox="0 0 22 22" xmlns="http://www.w3.org/2000/svg"><g transform="translate(-326 -534.36)"><g fill="#c4bb1b"><rect x="326.5" y="535.99" width="0" height="11"/><rect x="321.94" y="538.51" width="0" height="11"/><rect x="317.44" y="526.09" width="0" height="11"/><rect x="318.28" y="538.32" width="0" height="11"/><rect x="313.73" y="540.84" width="0" height="11"/><rect x="309.22" y="528.43" width="0" height="11"/><path transform="translate(326 534.36)" d="m1 1v16h8.1211v-1.2305h-6.8711v-0.96484l2.9082-2.8281 1.7598-1.7285 1.9551 1.7441 0.24805 0.23633v-1.7559l-2.1211-2.0879-4.75 4.6777v-7.2051a3.125 3.0769 0 0 0 0.625 0.066406 3.125 3.0769 0 0 0 3.125-3.0781 3.125 3.0769 0 0 0-0.066406-0.61523h13.816v6.8906h1.25v-8.1211h-20zm1.25 1.2305h2.3906a1.875 1.8462 0 0 1 0.10938 0.61523 1.875 1.8462 0 0 1-1.875 1.8457 1.875 1.8462 0 0 1-0.625-0.10742v-2.3535zm12.5 4.9238-1.998 1.9668h3.9961l-1.998-1.9668z" color="#000000" color-rendering="auto" image-rendering="auto" shape-rendering="auto" solid-color="#000000" style="isolation:auto;mix-blend-mode:normal"/></g><path d="m339.67 551.7h3.6667v2.7499h-3.6667zm0-6.4164h1.8333v2.7499h-1.8333zm-2.75 0h1.8333v3.6665h5.5v-3.6665h0.53353l1.2998 1.2998v7.8665h-1.8333v-3.6665h-5.5v3.6665h-1.8333zm-0.91667-0.91663v11h11v-9.1667h-4e-3l-1.8293-1.8292v-4e-3z" fill="#eff0f1"/><g transform="matrix(.63461 0 0 .55556 64.3 240.26)" fill="#eff0f1"><g transform="matrix(.75 0 0 .75 421.46 -241.23)" fill="#eff0f1"><path class="ColorScheme-Text" transform="matrix(1.3333 0 0 1.3333 .33333 1030.7)" d="m8 3a9 9 0 0 0-7.877 4.668c0.12895 0.36375 0.35744 0.6766 0.65625 0.9082a8 8 0 0 1 7.2207-4.5762 4 4 0 0 0-4 4 4 4 0 0 0 4 4 4 4 0 0 0 4-4 4 4 0 0 0-3.6504-3.9824 8 8 0 0 1 6.8711 4.5586c0.30152-0.2337 0.53191-0.55009 0.66016-0.91797a9 9 0 0 0-7.8809-4.6582zm0 2a3 3 0 0 1 3 3 3 3 0 0 1-3 3 3 3 0 0 1-3-3 3 3 0 0 1 3-3zm0 1a2 2 0 0 0-2 2 2 2 0 0 0 2 2 2 2 0 0 0 2-2 2 2 0 0 0-0.089844-0.58789 1 1 0 0 1-0.91016 0.58789 1 1 0 0 1-1-1 1 1 0 0 1 0.58984-0.91016 2 2 0 0 0-0.58984-0.089844z" fill="#eff0f1"/></g></g></g></svg>
