<?xml version="1.0" encoding="UTF-8"?>
<svg version="1.1" viewBox="0 0 22 22" xmlns="http://www.w3.org/2000/svg"><path d="m13.214 13q0.61017 0 1.0943 0.17907 0.49079 0.17907 0.82903 0.49079 0.33825 0.30508 0.51732 0.72292 0.1857 0.4112 0.1857 0.88209 0 0.41783-0.09285 0.73618-0.08622 0.31835-0.25866 0.55711t-0.42447 0.40457q-0.25203 0.16581-0.57038 0.27192 1.5055 0.51069 1.5055 2.0361 0 0.66986-0.24539 1.1805-0.23876 0.50405-0.64996 0.84893-0.40457 0.34488-0.94842 0.51732-0.53721 0.17244-1.1341 0.17244-0.63007 0-1.1142-0.14591-0.47752-0.14591-0.8423-0.43773-0.35814-0.29845-0.62343-0.73618-0.25866-0.43773-0.44436-1.0147l0.70302-0.29845q0.27856-0.11275 0.51732-0.05306 0.2454 0.05306 0.34488 0.25866 0.11938 0.2255 0.25203 0.42447 0.13265 0.19234 0.29845 0.34488 0.17244 0.14591 0.3913 0.23213t0.50405 0.08622q0.35151 0 0.61017-0.11275 0.26529-0.11938 0.43773-0.30508 0.17244-0.19234 0.25866-0.4311t0.08622-0.47752q0-0.30508-0.05969-0.55711-0.05306-0.25203-0.25203-0.4311-0.19234-0.17907-0.57038-0.27856-0.37804-0.09948-1.028-0.09948v-1.1341q0.54385-0.0066 0.88872-0.09948 0.35151-0.09285 0.55048-0.25866 0.19897-0.17244 0.27192-0.40457 0.07296-0.23213 0.07296-0.51732 0-0.60354-0.30508-0.90862-0.29846-0.30509-0.8423-0.30509-0.48416 0-0.80914 0.27192t-0.45099 0.66986q-0.10612 0.30508-0.28519 0.39794-0.17244 0.09285-0.49742 0.03979l-0.8423-0.14591q0.09285-0.64333 0.35151-1.1209 0.25866-0.48416 0.64996-0.80251 0.3913-0.32498 0.88873-0.48416 0.50405-0.1658 1.0811-0.1658z" fill="none"/><path d="m4.5 1v20h2.6v-8.75h7.8v8.75h2.6v-20h-2.6v8.75h-7.8v-8.75z" fill="#eff0f1" stroke-width="1.2748"/></svg>
