<?xml version="1.0" encoding="UTF-8"?>
<svg version="1.1" viewBox="0 0 22 22" xmlns="http://www.w3.org/2000/svg"><defs><style type="text/css">.ColorScheme-Text {
        color:#eff0f1;
      }</style></defs><path class="ColorScheme-Text" d="m2.25 1c-0.69036 0-1.25 0.55964-1.25 1.25s0.55964 1.25 1.25 1.25 1.25-0.55964 1.25-1.25-0.55964-1.25-1.25-1.25zm7.5 0v1.25h11.25v-1.25zm0 2.5v1.25h7.5v-1.25zm-7.5 5c-0.69036 0-1.25 0.55964-1.25 1.25s0.55964 1.25 1.25 1.25 1.25-0.55964 1.25-1.25-0.55964-1.25-1.25-1.25zm7.5 0v1.25h11.25v-1.25zm0 2.5v1.25h2.5v-1.25zm-7.5 5c-0.69036 0-1.25 0.55964-1.25 1.25s0.55964 1.25 1.25 1.25 1.25-0.55964 1.25-1.25-0.55964-1.25-1.25-1.25zm7.5 0v1.25h11.25v-1.25zm0 2.5v1.25h7.5v-1.25zm8.75 1.25v1.25h2.5v-1.25z" color="#eff0f1" fill="currentColor"/></svg>
