<?xml version="1.0" encoding="UTF-8"?>
<svg version="1.1" viewBox="0 0 22 22" xmlns="http://www.w3.org/2000/svg"><defs><style type="text/css">.ColorScheme-Text {
        color:#eff0f1;
      }</style></defs><path class="ColorScheme-Text" d="m2.1111 6.5c-0.61557 0-1.1111 0.50174-1.1111 1.125v6.75c0 0.62326 0.49554 1.125 1.1111 1.125h6.6667c0.61557 0 1.1111-0.50174 1.1111-1.125v-1.125h2.2222v1.125c0 0.62325 0.49554 1.125 1.1111 1.125h6.6667c0.61557 0 1.1111-0.50175 1.1111-1.125v-6.75c0-0.62325-0.49554-1.125-1.1111-1.125h-6.6667c-0.61557 0-1.1111 0.50175-1.1111 1.125v1.125h-2.2222v-1.125c0-0.62326-0.49554-1.125-1.1111-1.125zm0 1.125h6.6667v1.125c-0.61557 0-1.1111 0.50174-1.1111 1.125v2.25c0 0.62326 0.49554 1.125 1.1111 1.125v1.125h-6.6667zm11.111 0h6.6667v6.75h-6.6667v-1.125c0.61557 0 1.1111-0.50174 1.1111-1.125v-2.25c0-0.62326-0.49554-1.125-1.1111-1.125zm-4.4444 2.25h4.4444v2.25h-4.4444z" color="#eff0f1" fill="currentColor"/></svg>
