<?xml version="1.0" encoding="UTF-8"?>
<svg width="22" height="22" version="1.1" viewBox="0 0 5.8208 5.8208" xmlns="http://www.w3.org/2000/svg"><g transform="translate(0 -291.18)"><g fill="#eff0f1"><path d="m4.0398 296.39a0.26458 0.26458 0 0 0-0.26458-0.26458 0.26458 0.26458 0 0 0-0.26458 0.26458 0.26458 0.26458 0 0 0 0.26458 0.26459 0.26458 0.26458 0 0 0 0.26458-0.26459z" stroke-width=".26458"/><path d="m3.7752 295.78-1.5875-1.5875 0.18706-0.18706 1.4004 1.4004 1.4004-1.4004 0.18706 0.18706z" stroke-width=".26458"/><g stroke-width=".52917"><path d="m1.3229 292.77a0.52917 0.52916 0 0 0-0.52917-0.52915 0.52917 0.52916 0 0 0-0.52917 0.52915 0.52917 0.52916 0 0 0 0.52917 0.52918 0.52917 0.52916 0 0 0 0.52917-0.52918z"/><path d="m3.175 291.97a0.52917 0.52916 0 0 0-0.52917-0.52915 0.52917 0.52916 0 0 0-0.52917 0.52915 0.52917 0.52916 0 0 0 0.52917 0.52918 0.52917 0.52916 0 0 0 0.52917-0.52918z"/><path d="m4.2333 293.56a0.52917 0.52916 0 0 0-0.52917-0.52915 0.52917 0.52916 0 0 0-0.52917 0.52915 0.52917 0.52916 0 0 0 0.52917 0.52918 0.52917 0.52916 0 0 0 0.52917-0.52918z"/></g></g></g></svg>
