<?xml version="1.0" encoding="UTF-8"?>
<svg width="22" height="22" version="1.1" viewBox="0 0 5.8208 5.8208" xmlns="http://www.w3.org/2000/svg"><g transform="translate(0 -291.18)" fill="#eff0f1"><path d="m4.0398 296.39a0.26458 0.26458 0 0 0-0.26458-0.26458 0.26458 0.26458 0 0 0-0.26458 0.26458 0.26458 0.26458 0 0 0 0.26458 0.26459 0.26458 0.26458 0 0 0 0.26458-0.26459z" stroke-width=".26458"/><path d="m3.7752 295.78-1.5875-1.5875 0.18706-0.18706 1.4004 1.4004 1.4004-1.4004 0.18706 0.18706z" stroke-width=".26458"/><g stroke-width=".52917"><path d="m1.3229 292.77a0.52917 0.52916 0 0 0-0.52917-0.52915 0.52917 0.52916 0 0 0-0.52917 0.52915 0.52917 0.52916 0 0 0 0.52917 0.52918 0.52917 0.52916 0 0 0 0.52917-0.52918z"/><path d="m3.175 291.97a0.52917 0.52916 0 0 0-0.52917-0.52915 0.52917 0.52916 0 0 0-0.52917 0.52915 0.52917 0.52916 0 0 0 0.52917 0.52918 0.52917 0.52916 0 0 0 0.52917-0.52918z"/><path d="m4.2333 293.56a0.52917 0.52916 0 0 0-0.52917-0.52915 0.52917 0.52916 0 0 0-0.52917 0.52915 0.52917 0.52916 0 0 0 0.52917 0.52918 0.52917 0.52916 0 0 0 0.52917-0.52918z"/></g><text transform="scale(.81839 1.2219)" x="0.22397032" y="242.45308" font-family="sans-serif" font-size="2.4832px" letter-spacing="0px" stroke-width=".062079" word-spacing="0px" style="line-height:1.25" xml:space="preserve"><tspan x="0.22397032" y="242.45308" fill="#eff0f1" stroke-width=".062079">()</tspan></text></g></svg>
