<?xml version="1.0" encoding="UTF-8"?>
<svg version="1.1" viewBox="0 0 22 22" xmlns="http://www.w3.org/2000/svg"><style type="text/css">.ColorScheme-Text {
            color:#eff0f1;
        }</style><g class="ColorScheme-Text" transform="matrix(.98767 0 0 1 .024667 2)" color="#eff0f1" fill="currentColor"><path d="m13 3v2c0 0.554-0.446 1-1 1-1.108 0-2 0.892-2 2h-8v11h18v-11h-9c0-0.554 0.446-1 1-1 1.108 0 2-0.892 2-2v-2zm-10 6h16v1h-16zm0 2h16v7h-16z"/><path d="m4 12v1h1v-1zm2 0v1h1v-1zm2 0v1h1v-1zm2 0v1h1v-1zm2 0v1h1v-1zm2 0v1h1v-1zm2 0v1h2v-1zm-12 2v1h2v-1zm3 0v1h1v-1zm2 0v1h1v-1zm2 0v1h1v-1zm2 0v1h1v-1zm2 0v1h3v-1zm-11 2v1h2v-1zm3 0v1h8v-1zm9 0v1h2v-1z"/></g><path class="ColorScheme-Text" d="m1 1v8h8v-6.6667h-3.3281l-1.3333-1.3333-0.0052 0.005207v-0.005207h-2.6667zm0.66667 0.66667h2.3945l0.66797 0.66667h-0.39583v0.00521l-0.0052-0.00521-1.3333 1.3333h-1.3281zm0 2.6667h6.6667v4h-6.6667z" color="#eff0f1" fill="currentColor"/></svg>
