<?xml version="1.0" encoding="UTF-8"?>
<svg version="1.1" viewBox="0 0 48 48" xmlns="http://www.w3.org/2000/svg"><style type="text/css">.st0{fill:url(#c);stroke:#2064A9;stroke-miterlimit:10;}
	.st1{fill:url(#b);fill-opacity:0.95;}
	.st2{fill:#FFB700;fill-opacity:0.95;}
	.st3{filter:url(#d);}
	.st4{fill:#FFFFA6;}
	.st5{fill:url(#a);fill-opacity:0.95;}</style><filter id="d"><feGaussianBlur stdDeviation="4"/></filter><g transform="matrix(.18258 0 0 .1848 .79865 1.8084)"><radialGradient id="c" cx="143.52" cy="115.76" r="104.43" fx="138.95" fy="113.59" gradientTransform="matrix(.6237 .7816 -.7859 .6271 144.97 -69.011)" gradientUnits="userSpaceOnUse"><stop stop-color="#89EAFE" offset="0"/><stop stop-color="#86E8FD" offset=".2624"/><stop stop-color="#7DDFF9" offset=".4357"/><stop stop-color="#6ED2F2" offset=".5832"/><stop stop-color="#59BEE9" offset=".7163"/><stop stop-color="#3EA5DD" offset=".8397"/><stop stop-color="#1C87CF" offset=".9544"/><stop stop-color="#0D79C8" offset="1"/></radialGradient><path class="st0" d="m100.5 117.8c2.6-23.3 21-42 43.9-42 25.7 0 43.4 18 45 42zm84.2 49.2c-6.5 13.4-20 22.1-40.4 22.6-28.3 0.7-43.2-23.4-43.9-44.1h145.8c0.5-4.2 0.8-8.4 0.8-12.8 0-56.4-45.7-102.1-102.1-102.1s-102.1 45.7-102.1 102.1 45.7 102.1 102.1 102.1c44.4 0 82.1-28.3 96.2-67.8z" fill="url(#c)" stroke="#2064a9" stroke-miterlimit="10"/></g><g transform="matrix(.18258 0 0 .1848 .79865 1.8084)"><linearGradient id="b" x1="237.88" x2="234.56" y1="64.28" y2="79.694" gradientUnits="userSpaceOnUse"><stop stop-color="#FFB700" offset="0"/><stop stop-color="#FFB700" stop-opacity="0" offset=".8599"/></linearGradient><path class="st1" d="m235.5 63.7c-0.8 3.1-1.6 5.8-2.1 8.1-0.4 1.8-0.6 7.1-0.6 7.1s3.8-2.4 4.7-3.6c0.8-1.1 1.9-5.8 2.9-10.5z" fill="url(#b)" fill-opacity=".95"/><path class="st2" d="m240.6 65c0.7-3.1 1.3-6.3 1.6-8.5 1.3-8.1 4-51.3-53.7-39-77.4 16.4-120.2 77.1-127 85.5-12.9 16-51.3 77.8-41.2 115.8 5.9 22.2 29.5 22.1 46.7 18.6l-1.2-6.1c-29.2 4.7-33.6-17.5-29.6-34.8 4.9-21.6 20.8-57.1 72.2-107.1 45.6-44.4 94-69.2 119.2-56.9 13.4 6.5 10.8 20.6 7.9 31.4z" fill="#ffb700" fill-opacity=".95"/><g class="st3" filter="url(#d)"><path class="st4" d="m188.5 17.5c-77.4 16.4-120.2 77.1-127 85.5-8.1 10-26.1 38-36 66.8-0.6 2.3-1.3 4.6-2.1 6.6 31.8-81.5 110.8-139.2 168.2-159.5-1 0.2-2.1 0.4-3.1 0.6z" fill="#ffffa6"/></g><linearGradient id="a" x1="66.431" x2="87.933" y1="235.13" y2="226.5" gradientUnits="userSpaceOnUse"><stop stop-color="#FFB700" offset="0"/><stop stop-color="#FFB700" stop-opacity="0" offset="1"/></linearGradient><path class="st5" d="m67 237.3c9.4-2 17.1-5 18.8-5.9 1.6-0.9 7.1-3.9 12.1-6.9l-4.4-2.5c-2.4 0.9-5.2 2-8.3 3.3-7.3 3-13.9 4.9-19.4 5.7z" fill="url(#a)" fill-opacity=".95"/></g></svg>
