<?xml version="1.0" encoding="UTF-8"?>
<svg version="1.1" viewBox="0 0 48 48" xmlns="http://www.w3.org/2000/svg" xmlns:xlink="http://www.w3.org/1999/xlink"><defs><linearGradient id="a" x1="-44.39" x2="-14.394" gradientTransform="translate(58.788 33.941)" gradientUnits="userSpaceOnUse"><stop stop-color="#b0b8b8" offset="0"/><stop stop-color="#eff1f1" offset="1"/></linearGradient><linearGradient id="j" x1="17.428" x2="36.551" y1="12.997" y2="32.13" gradientUnits="userSpaceOnUse"><stop stop-color="#abf9c7" offset="0"/><stop stop-color="#54d883" offset="1"/></linearGradient><linearGradient id="i" x1="33.405" x2="17.759" y1="32.721" y2="12.32" gradientUnits="userSpaceOnUse"><stop stop-color="#197cf1" offset="0"/><stop stop-color="#20bcfa" offset="1"/></linearGradient><linearGradient id="h" x1="3.242" x2="40" y1="15.778" y2="37" gradientTransform="matrix(-.96593 -.25882 .25882 -.96593 40.971 53.39)" gradientUnits="userSpaceOnUse" xlink:href="#a"/><linearGradient id="g" x1="24" x2="40" y1="23" y2="39" gradientUnits="userSpaceOnUse"><stop stop-color="#292c2f" offset="0"/><stop stop-opacity="0" offset="1"/></linearGradient><linearGradient id="f" x1="-44.39" x2="-14.394" gradientTransform="translate(58.788,33.941)" gradientUnits="userSpaceOnUse" xlink:href="#a"/></defs><g transform="matrix(1.1004 0 0 1.1004 -2.4103 -2.4104)" color="#000000"><g stroke-linejoin="round" stroke-width="3"><circle transform="rotate(15)" cx="29.394" cy="16.971" r="15" fill="url(#f)" stroke-linecap="round"/><path d="m21.952 43.884a20 20 0 0 0 4.0971 0.0059l0.475-3.1a17 17 0 0 0 3.6873-0.98547l1.956 2.441a20 20 0 0 0 3.549-2.0538l-1.135-2.911a17 17 0 0 0 2.7098-2.6952l2.893 1.127a20 20 0 0 0 2.0501-3.5534l-2.422-1.941a17 17 0 0 0 0.60859-1.8185 17 17 0 0 0 0.36937-1.8765l3.094-0.475a20 20 0 0 0 0.0059-4.0971l-3.1-0.475a17 17 0 0 0-0.98547-3.6873l2.441-1.956a20 20 0 0 0-2.0538-3.549l-2.911 1.135a17 17 0 0 0-2.6949-2.7096l1.1271-2.8928a20 20 0 0 0-3.5535-2.0501l-1.9395 2.4221a17 17 0 0 0-1.8201-0.60874 17 17 0 0 0-1.8765-0.36937l-0.47338-3.0939a20 20 0 0 0-4.0971-0.00591l-0.47694 3.0999a17 17 0 0 0-3.687 0.98574l-1.956-2.4407a20 20 0 0 0-3.549 2.0538l1.135 2.911a17 17 0 0 0-2.7098 2.6952l-2.8932-1.128a20 20 0 0 0-2.0501 3.5534l2.422 1.941a17 17 0 0 0-0.60859 1.8185 17 17 0 0 0-0.36937 1.8765l-3.094 0.475a20 20 0 0 0-0.00591 4.0971l3.1 0.475a17 17 0 0 0 0.98548 3.6873l-2.441 1.956a20 20 0 0 0 2.0538 3.549l2.911-1.135a17 17 0 0 0 2.6952 2.7098l-1.127 2.893a20 20 0 0 0 3.5534 2.0501l1.941-2.422a17 17 0 0 0 1.8185 0.60859 17 17 0 0 0 1.8765 0.36937zm-1.5754-6.3608a14 14 0 0 1-9.8995-17.146 14 14 0 0 1 17.146-9.8995 14 14 0 0 1 9.8995 17.146 14 14 0 0 1-17.146 9.8995" fill="url(#h)"/></g><path d="m33.19 14.807-18.387 18.387 10.736 10.734c0.169-0.013 0.338-0.02 0.506-0.037l0.475-3.102c1.262-0.189 2.499-0.519 3.688-0.984l1.957 2.441c1.25-0.561 2.439-1.25 3.549-2.055l-1.135-2.91c1-0.794 1.91-1.698 2.709-2.695l2.893 1.127c0.803-1.111 1.491-2.301 2.051-3.553l-2.422-1.941c0.237-0.594 0.439-1.201 0.607-1.818 0.158-0.618 0.283-1.245 0.371-1.877l3.092-0.475c0.018-0.17 0.028-0.34 0.041-0.51z" color-rendering="auto" fill="url(#g)" fill-rule="evenodd" image-rendering="auto" opacity=".2" shape-rendering="auto"/><path d="m41.883 15.12-2.078 1.666c0.096 0.259 0.186 0.52 0.27 0.783l2.172-1.74c-0.116-0.239-0.237-0.475-0.363-0.709m-35.758 6e-3c-0.124 0.235-0.244 0.472-0.359 0.711l2.154 1.727c0.083-0.264 0.172-0.526 0.268-0.785zm-2.092 8.361c-0.029 0.854-4e-3 1.708 0.076 2.559l3.102 0.475c0.152 0.987 0.392 1.959 0.715 2.904l0.27-0.217c-0.466-1.188-0.796-2.425-0.984-3.688l-3.102-0.475c-0.046-0.518-0.071-1.038-0.076-1.559m39.934 0.02c-8e-3 0.514-0.036 1.027-0.084 1.539l-3.092 0.475c-0.088 0.632-0.212 1.259-0.371 1.877-0.168 0.617-0.371 1.224-0.607 1.818l0.268 0.215c0.124-0.341 0.238-0.685 0.34-1.033 0.159-0.618 0.283-1.245 0.371-1.877l3.092-0.475c0.082-0.844 0.11-1.692 0.084-2.539m-2.092 8.361c-0.484 0.992-1.05 1.943-1.691 2.842l-2.893-1.127c-0.799 0.997-1.708 1.902-2.709 2.695l0.291 0.744c0.886-0.729 1.696-1.547 2.418-2.439l2.893 1.127c0.804-1.111 1.491-2.301 2.051-3.553zm-35.758 6e-3 -0.363 0.291c0.561 1.25 1.25 2.439 2.055 3.549l2.91-1.135c0.715 0.901 1.519 1.728 2.4 2.467l0.295-0.758c-0.997-0.799-1.902-1.708-2.695-2.709l-2.91 1.135c-0.641-0.898-1.207-1.848-1.691-2.84m24.09 6.928c-1.188 0.465-2.425 0.796-3.688 0.984l-0.475 3.102c-1.363 0.138-2.736 0.135-4.098-8e-3l-0.475-3.092c-0.632-0.088-1.259-0.212-1.877-0.371-0.617-0.168-1.224-0.371-1.818-0.607l-1.941 2.422c-1.136-0.513-2.221-1.132-3.242-1.848l-0.311 0.797c1.111 0.804 2.301 1.491 3.553 2.051l1.941-2.422c0.594 0.237 1.201 0.439 1.818 0.607 0.618 0.159 1.245 0.283 1.877 0.371l0.475 3.092c1.362 0.143 2.735 0.145 4.098 8e-3l0.475-3.102c1.262-0.189 2.499-0.519 3.688-0.984l1.957 2.441c1.25-0.561 2.439-1.25 3.549-2.055l-0.311-0.795c-1.019 0.716-2.104 1.335-3.238 1.85z" fill="#172525" opacity=".2" stroke-linejoin="round" stroke-width="3"/></g><rect x="11" y="11" width="26" height="26" rx="13" fill="url(#i)"/><path d="m24 11c-.944 0-1.862.104-2.747.293l-1.153 2.307-1.742-1.306c-3.124 1.502-5.544 4.207-6.665 7.53l2.557-1.023 1.95 1.3.65-1.95 8.45-4.55-.515-2.575c-.26-.015-.521-.025-.785-.025m9.627 4.269l-.527 1.581.65.65-2.6 3.9 1.3 4.55 4.311.54c.155-.806.239-1.637.239-2.49 0-2.226-.557-4.316-1.535-6.145l-1.065-.355.387-.776c-.348-.516-.744-.995-1.16-1.455m-22.369 6.131c-.143.712-.225 1.448-.248 2.198l4.54 1.702-.65-1.95-1.3-1.95zm4.292 3.9l3.25 7.8v2.82c1.592.692 3.348 1.08 5.2 1.08.129 0 .256-.005.385-.009l4.165-7.141-10.4-5.85z" fill="url(#j)" fill-rule="evenodd"/><path d="m11.03 23.5c-.006.167-.025.331-.025.5 0 7.202 5.798 13 13 13 7.202 0 13-5.798 13-13 0-.169-.019-.333-.025-.5-.263 6.966-5.942 12.5-12.975 12.5-7.03 0-12.711-5.534-12.975-12.5" fill="#172525" opacity=".2"/></svg>
