<?xml version="1.0" encoding="UTF-8"?>
<svg version="1.1" viewBox="0 0 22 22" xmlns="http://www.w3.org/2000/svg"><linearGradient id="c" x1="386.57" x2="386.57" y1="527.13" y2="504.91" gradientTransform="matrix(.71429 0 0 .70714 -276.55 -352.47)" gradientUnits="userSpaceOnUse"><stop stop-color="#1d1e1e" offset="0"/><stop stop-color="#44484c" offset="1"/></linearGradient><linearGradient id="d" x1="-2" x2="-2" y1="30" y2="2" gradientTransform="matrix(.71429 0 0 .71429 -.42857 -.42857)" gradientUnits="userSpaceOnUse"><stop stop-color="#c6cdd1" offset="0"/><stop stop-color="#e0e5e7" offset="1"/></linearGradient><rect x="1.9656" y="1.9656" width="18.069" height="18.069" fill="#232629" stroke="#eff0f1" stroke-width="1.9313"/><g transform="matrix(.8 0 0 .8 2.1835 2.2852)"><g stroke-width=".71429"><path d="m1 1v20h20v-20z" fill="url(#d)"/><path d="m1 4.5714h20v14.286h-20z" fill="url(#c)"/><path d="m1 1h20v2.8571h-20z" fill="#566069"/><path d="m1 3.8571h20v0.71429h-20z" fill="#3daee9"/><rect x="18.857" y="1.7143" width="1.4286" height="1.4286" rx=".71429" fill="#eff0f1"/><circle cx="4.9286" cy="14.929" r="2.5" fill="#eff0f1"/><circle cx="4.9286" cy="14.929" r="1.7857" fill="#3daefd"/><path d="m8.8571 7.4286h1.4286v0.71429h-1.4286zm2.1429 0h2.1429v0.71429h-2.1429z" fill="#da4453"/><path d="m15.286 7.4286h2.1429v0.71429h-2.1429zm0 1.4286h4.2857v0.71429h-4.2857zm2.8571-1.4286h1.4286v0.71429h-1.4286z" fill="#95a5a6"/><path d="m8.8571 8.8571h2.8571v0.71429h-2.8571zm3.5714 0h1.4286v0.71429h-1.4286z" fill="#bdc3c7"/><path d="m8.8571 13.857h1.4286v0.71429h-1.4286zm2.1429 0h2.1429v0.71429h-2.1429z" fill="#3daefd"/><path d="m15.286 13.857h2.8571v0.71429h-2.8571z" fill="#95a5a6"/><path d="m8.8571 15.286h2.1429v0.71429h-2.1429z" fill="#bdc3c7"/><path d="m15.286 15.286h2.1429v0.71429h-2.1429zm2.8571 0h0.71429v0.71429h-0.71429zm0.71429-1.4286h0.71429v0.71429h-0.71429z" fill="#95a5a6"/></g><g transform="matrix(.71429 0 0 .71429 -.42857 -.42857)" fill-rule="evenodd"><path d="m7.5 8.92-3.501 1.467s0.416 1.902 0.867 3c0.225 0.551 0.5 1.121 0.889 1.617s0.965 0.99 1.745 0.99 1.354-0.494 1.743-0.99 0.664-1.066 0.889-1.617c0.451-1.102 0.869-3 0.869-3z" fill="#eff0f1"/><path d="m5 11 2.5-1 2.5 1s-0.928 4-2.5 4-2.5-4-2.5-4" fill="#da4453"/></g><path d="m1 20.286h20v0.71429h-20z" fill="#99a1a7" stroke-width=".71429"/></g></svg>
