<?xml version="1.0" encoding="UTF-8"?>
<svg version="1.1" viewBox="0 0 22 22" xmlns="http://www.w3.org/2000/svg"><defs><style type="text/css">.ColorScheme-Text {
        color:#eff0f1;
      }</style></defs><g fill="#eff0f1"><path class="ColorScheme-Text" d="m2.1875 11.5v1.1875h-1.1875v1.7812h1.1875v3.5625h-1.1875v1.7812h1.1875v1.1875h8.3125v-9.5zm0.59375 0.59375h7.125v1.1875h-7.125v-0.59375zm0 1.7812h7.125v6.5312h-7.125z" color="#eff0f1"/><path class="ColorScheme-Text" d="m2.1875 1v1.1875h-1.1875v1.7812h1.1875v3.5625h-1.1875v1.7812h1.1875v1.1875h8.3125v-9.5zm0.59375 0.59375h7.125v1.1875h-7.125v-0.59375zm0 1.7812h7.125v6.5312h-7.125z" color="#eff0f1"/><path class="ColorScheme-Text" d="m12.688 1v1.1875h-1.1875v1.7812h1.1875v3.5625h-1.1875v1.7812h1.1875v1.1875h8.3125v-9.5zm0.59375 0.59375h7.125v1.1875h-7.125v-0.59375zm0 1.7812h7.125v6.5312h-7.125z" color="#eff0f1"/></g><path class="ColorScheme-NegativeText" d="M 13.2726,12 12,13.2726 15.2274,16.500002 12,19.7274 13.2726,21 16.500002,17.7726 19.7274,21 21,19.7274 17.7726,16.500002 21,13.2726 19.7274,12 16.500002,15.2274 Z" fill="#da4453"/></svg>
