<?xml version="1.0" encoding="UTF-8"?>
<svg version="1.1" viewBox="0 0 22 22" xmlns="http://www.w3.org/2000/svg"><defs><style type="text/css">.ColorScheme-Text {
        color:#eff0f1;
      }</style></defs><g fill="#eff0f1"><path class="ColorScheme-Text" d="m2.1875 11.5v1.1875h-1.1875v1.7812h1.1875v3.5625h-1.1875v1.7812h1.1875v1.1875h8.3125v-9.5zm0.59375 0.59375h7.125v1.1875h-7.125v-0.59375zm0 1.7812h7.125v6.5312h-7.125z" color="#eff0f1"/><path class="ColorScheme-Text" d="m2.1875 1v1.1875h-1.1875v1.7812h1.1875v3.5625h-1.1875v1.7812h1.1875v1.1875h8.3125v-9.5zm0.59375 0.59375h7.125v1.1875h-7.125v-0.59375zm0 1.7812h7.125v6.5312h-7.125z" color="#eff0f1"/><path class="ColorScheme-Text" d="m12.688 1v1.1875h-1.1875v1.7812h1.1875v3.5625h-1.1875v1.7812h1.1875v1.1875h8.3125v-9.5zm0.59375 0.59375h7.125v1.1875h-7.125v-0.59375zm0 1.7812h7.125v6.5312h-7.125z" color="#eff0f1"/></g><path class="ColorScheme-Text" d="m12 12v9h9v-7.1424h-0.0044l0.0044-0.0055-1.8523-1.8521-0.0044 0.0055v-0.0055h-0.3933zm0.5625 0.56353h1.6875v2.8122h4.5v-2.8122h0.1648l1.5227 1.5225v6.3515h-1.125v-3.937h-5.625v3.937h-1.125zm2.25 0h2.194v2.2497h-2.194zm-0.5625 4.4995h4.5v3.3746h-4.5z" color="#eff0f1" fill="currentColor"/></svg>
