<?xml version="1.0" encoding="UTF-8"?>
<svg version="1.1" viewBox="0 0 22 22" xmlns="http://www.w3.org/2000/svg"><defs><radialGradient id="a" cx="7.1588" cy="6.2412" r="9.5" gradientTransform="matrix(1.7168 5.9456e-8 -4.4492e-8 1.2835 -6.5558 -1.2667)" gradientUnits="userSpaceOnUse"><stop stop-color="#eeeeec" offset="0"/><stop stop-color="#babdb6" offset=".7922"/><stop stop-color="#a1a59b" offset="1"/></radialGradient><linearGradient id="c" x1="9.0511" x2="11.285" y1="5.8686" y2="22.993" gradientTransform="matrix(.95283 0 0 .95238 -.9355 .077221)" gradientUnits="userSpaceOnUse"><stop stop-color="#fff" offset="0"/><stop stop-color="#fff" stop-opacity="0" offset="1"/></linearGradient><linearGradient id="b" x1="24.104" x2="24.104" y1="15.169" y2="32.485" gradientTransform="matrix(.46913 0 0 .4663 18.849 37.308)" gradientUnits="userSpaceOnUse"><stop stop-color="#d7e866" offset="0"/><stop stop-color="#8cab2a" offset="1"/></linearGradient><linearGradient id="d" x1="24.139" x2="24.139" y1="7.0479" y2="47.273" gradientTransform="matrix(.2818 0 0 .2801 23.345 41.515)" gradientUnits="userSpaceOnUse"><stop stop-color="#fff" stop-opacity=".4" offset="0"/><stop stop-color="#fff" stop-opacity="0" offset="1"/></linearGradient></defs><path d="m1.4763 11.381v-3.4286c0-3.4286 2.8585-4.4762 4.5736-4.5714h8.0038c1.7151 0.13095 4.5736 1.1429 4.5736 4.5714v3.4286c0 3.4286-1.731 4.381-3.4302 4.381-2.7398-0.01618-0.59017 3.304 0 4.7619h-0.76226l-4.9547-4.7619h-3.4302c-1.7468-0.035715-4.5736-0.95238-4.5736-4.381z" fill="url(#a)" stroke="#888a86" stroke-width=".95261"/><path d="m6.1214 4.3629c-0.68606 0.038096-1.6865 0.28438-2.4118 0.83334-0.7253 0.54895-1.2506 1.328-1.2506 2.7678v3.4227c0 1.4429 0.51436 2.1458 1.2208 2.6488 0.69849 0.49731 1.671 0.72514 2.3821 0.74405h3.4242a0.98447 0.984 0 0 1 0.68485 0.26786l2.8288 2.7084c-0.15102-0.5919-0.26466-1.2616 0.08933-1.9345 0.37045-0.70418 1.2311-1.0469 2.1141-1.0417 0.66676 0 1.2162-0.15961 1.6377-0.59524 0.42153-0.43563 0.80395-1.2483 0.80395-2.7976v-3.4227c-2e-6 -1.4398-0.52472-2.1922-1.2506-2.7381-0.72588-0.54591-1.7367-0.80928-2.4416-0.8631h-7.8311z" fill="none" opacity=".6" stroke="url(#c)" stroke-width=".95261"/><g transform="matrix(.95283 0 0 .95238 -12.491 -39.476)"><path d="m27.649 46v-3h4v3h3v4h-3v3h-4v-3h-2.9895v-4z" fill="url(#b)" fill-rule="evenodd" stroke="#699536" stroke-linejoin="round"/><path d="m28.649 47v-3h2v3h3v2h-3v3h-2v-3h-3v-2z" fill="none" stroke="url(#d)"/></g></svg>
