<?xml version="1.0" encoding="UTF-8"?>
<svg version="1.1" viewBox="0 0 22 22" xmlns="http://www.w3.org/2000/svg"><g transform="translate(-326 -534.36)"><g fill="#22a7f0"><rect x="326.5" y="535.99" width="0" height="11"/><rect x="321.94" y="538.51" width="0" height="11"/><rect x="317.44" y="526.09" width="0" height="11"/><rect x="318.28" y="538.32" width="0" height="11"/><rect x="313.73" y="540.84" width="0" height="11"/><rect x="309.22" y="528.43" width="0" height="11"/></g><path d="m327 535.36v20h20v-20zm1.25 1.25h7.5v1.25h1.25v-1.25h8.75v17.5h-17.5zm8.75 1.25v1.25h1.25v-1.25zm0 1.25h-1.25v1.25h1.25zm0 1.25v1.25h1.25v-1.25zm0 1.25h-1.25v1.25h1.25zm0 1.25v1.25h1.25v-1.25zm0 1.25h-1.25v1.25h1.25zm0 1.25v1.25h1.25v-1.25zm0 1.25h-1.25v2.5h2.5v-1.25h-1.25z" fill="#eff0f1" stroke-width="2.5"/><g transform="translate(35.39 -10.347)" fill="#49cff1"><path d="m303.61 562.71v1h6v-1z"/><path d="m303.61 560.71v1h6v-1z"/><path d="m303.61 558.71v1h6v-1z"/></g><g transform="translate(25.39 -10.347)" fill="#49cff1"><path d="m303.61 562.71v1h6v-1z"/><path d="m303.61 560.71v1h6v-1z"/><path d="m303.61 558.71v1h6v-1z"/></g></g></svg>
