<?xml version="1.0" encoding="UTF-8"?>
<svg version="1.1" viewBox="0 0 22 22" xmlns="http://www.w3.org/2000/svg"><style type="text/css">.ColorScheme-Text {
            color:#eff0f1;
        }</style><path class="ColorScheme-Text" d="m8.7751 17.25a2.5714 2.5 0 0 0-0.34654 1.25 2.5714 2.5 0 0 0 2.5714 2.5 2.5714 2.5 0 0 0 2.5714-2.5 2.5714 2.5 0 0 0-0.34905-1.25zm2.2249-16.25a1.2857 1.25 0 0 0-1.2857 1.25 1.2857 1.25 0 0 0 0.0126 0.16113 5.1429 5 0 0 0-3.8697 4.8389c0 3.75-1.2857 5-3.8571 7.5v1.25h18v-1.25c-2.5714-2.5-3.8571-3.75-3.8571-7.5a5.1429 5 0 0 0-3.8697-4.8389 1.2857 1.25 0 0 0 0.012557-0.16113 1.2857 1.25 0 0 0-1.2857-1.25zm0 2.5a3.8571 3.75 0 0 1 3.8571 3.75c0 3.75 0.75335 5 3.3248 7.5h-14.364c2.5714-2.5 3.3248-3.75 3.3248-7.5a3.8571 3.75 0 0 1 3.8571-3.75z" color="#eff0f1" fill="currentColor" fill-rule="evenodd" stroke-width="1.2677"/></svg>
