<?xml version="1.0" encoding="UTF-8"?>
<svg enable-background="new 0 0 1000 1000" version="1.1" viewBox="0 0 22 22" xmlns="http://www.w3.org/2000/svg"><g transform="matrix(.020408 0 0 .020401 .79577 .79924)" fill="#eff0f1"><g transform="matrix(.1 0 0 -.1 0 511)" fill="#eff0f1"><path d="m8366.8 5001c-345.6-42.7-837.7-189.1-1262.6-376.1-207.4-89.5-209.4-91.5-250.1-52.9-24.4 22.4-93.5 65.1-154.5 97.6-101.7 50.8-132.2 56.9-315.1 56.9-166.7 0-221.6-8.1-298.9-44.7-134.2-61-290.7-213.5-355.8-349.7-48.8-99.6-56.9-138.3-56.9-309v-193.2l-172.8-120c-95.6-65.1-270.4-193.2-392.4-282.6-213.5-158.6-235.8-193.2-126.1-195.2 22.4 0 117.9-26.4 213.5-59l172.8-59 512.4 362 115.9-69.1c227.7-136.2 479.8-148.4 711.6-34.6 248 122 380.2 335.5 394.4 636.4l8.1 174.8 217.6 93.5c951.5 404.6 1650.9 437.1 1964.1 89.5 278.5-309 282.6-925.1 12.2-1742.4-341.7-1032.9-1026.8-2161.3-2010.9-3312.1-453.4-528.6-1238.2-1293.1-1797.3-1748.5l-158.6-128.1-93.5 71.2c-195.2 150.5-394.4 215.5-660.8 215.5-298.9 0-549-103.7-764.5-317.2-260.2-260.2-372.1-662.8-280.6-1012.5 18.3-67.1 28.5-122 24.4-126-22.4-22.4-585.6-278.6-766.5-349.7-803.1-311.1-1482.2-390.4-1864.4-217.6-453.4 205.3-546.9 764.5-270.4 1626.5 69.1 211.4 213.5 563.2 319.2 770.6l59 117.9 183 4c150.5 2.1 199.2 12.2 292.8 57 225.7 109.8 390.4 343.6 418.8 591.6 16.3 144.4-30.5 335.5-113.9 461.5l-56.9 85.4 115.9 164.7 117.9 162.7-54.9 174.9c-30.5 95.6-63 205.4-73.2 244l-18.3 67.1-164.7-219.7c-89.5-122-185-254.1-211.5-292.8l-44.7-71.2h-207.4c-178.9 0-219.6-6.1-319.2-52.9-246-115.9-410.7-370-412.7-636.4 0-180.9 30.5-284.6 122-420.9l71.2-107.8-111.8-233.8c-752.3-1575.7-597.8-2671.6 414.8-2944 203.3-56.9 729.9-50.8 1034.9 10.2 453.4 91.5 925.1 256.2 1472 518.5l300.9 142.3 75.2-71.2c164.7-158.6 390.4-256.2 636.4-274.5 514.4-38.6 975.9 282.6 1124.4 784.8 46.8 160.6 42.7 433.1-10.2 601.8-34.6 113.8-36.6 142.3-14.2 162.7 14.2 12.2 136.2 113.8 268.4 225.7 1783 1476.2 3257 3458.6 3814.1 5127.8 160.6 481.9 211.5 760.4 211.5 1173.2 2 392.4-20.3 508.3-142.3 760.4-132.2 270.4-410.7 488-721.8 561.2-168.8 38.6-475.8 52.8-669 30.5zm-1838-703.5c152.5-73.2 217.5-300.9 126-435.1-77.2-111.8-148.4-152.5-270.4-152.5s-193.2 38.6-270.4 154.5c-61 87.4-54.9 244 12.2 337.5 85.5 120 262.3 162.7 402.6 95.6zm-5178.5-5081c154.5-79.3 215.5-248 148.4-402.6-56.9-128.1-148.4-187.1-288.7-187.1-187.1 0-309 120-309 307 0 231.9 248 386.4 449.3 282.7zm3523.5-1960c126.1-61 246-178.9 315.1-311.1 50.8-95.6 56.9-128.1 56.9-300.9 0-162.7-8.1-207.4-46.8-280.6-73.2-136.2-199.2-262.3-327.3-323.3-95.6-48.8-140.3-56.9-276.5-56.9-276.5 0-483.9 128.1-603.9 372.1-59 120-67.1 154.5-67.1 298.9 2 120 12.2 187.1 44.7 256.2 75.2 166.7 231.8 311.1 410.7 378.2 112 40.6 376.3 24.4 494.2-32.6z"/><path d="m3987.4 2874.2c-894.6-176.9-1579.8-868.2-1750.6-1762.8-38.6-207.4-38.6-593.7 0-801.1 170.8-904.8 880.4-1608.2 1777-1764.8 211.5-36.6 571.3-38.7 774.6-2.1 839.7 150.6 1516.8 778.9 1744.5 1614.5 46.8 176.9 52.9 233.8 52.9 553 2 327.3-2.1 372.1-54.9 557.1-233.8 843.8-902.7 1461.9-1740.4 1608.3-209.5 36.6-614.1 36.6-803.1-2.1z"/></g></g></svg>
