<?xml version="1.0" encoding="UTF-8"?>
<svg version="1.1" viewBox="0 0 22 22" xmlns="http://www.w3.org/2000/svg"><defs><style type="text/css">.ColorScheme-Text {
        color:#eff0f1;
      }</style></defs><path class="ColorScheme-Text" d="m1 2v12.857l3.75 5.1429-2.5e-5 -3.8571 2.5e-5 -1.2857h16.25v-12.857zm1.25 1.2857h17.5v10.286h-17.5z" color="#eff0f1" fill="currentColor"/><path class="ColorScheme-Text" d="m13 5-6 1.709v3.082l0.5 0.14258v1.2168l3 0.84961v-1.2119l2.5 0.71191v-5.9785zm2.0146 0.21387-0.38574 0.31543c0.56863 0.88612 0.87096 1.9169 0.87109 2.9697-2e-3 1.0519-0.30571 2.0812-0.875 2.9658l0.3916 0.32129c0.64078-0.97662 0.98255-2.119 0.9834-3.2871-2e-3 -1.1676-0.34425-2.3093-0.98535-3.2852zm-2.5146 0.4502v5.1719l-5-1.4238v-2.3242zm1.3447 0.50781-0.39062 0.31934c0.3559 0.6094 0.54423 1.3021 0.5459 2.0078-1e-3 0.70595-0.1892 1.399-0.54492 2.0088l0.39062 0.32031c0.42662-0.70208 0.65289-1.5076 0.6543-2.3291-2e-3 -0.82096-0.22866-1.6257-0.65527-2.3271zm-7.3447 0.67969-0.5 0.14258v2.5118l0.5 0.14258v-2.6485zm1.5 3.2246 2 0.56934v0.71289l-2-0.56641z" color="#eff0f1" fill="currentColor"/></svg>
