<?xml version="1.0" encoding="UTF-8"?>
<svg version="1.1" viewBox="0 0 22 22" xmlns="http://www.w3.org/2000/svg"><defs><style type="text/css">.ColorScheme-Text {
        color:#eff0f1;
      }</style></defs><path class="ColorScheme-Text" d="m1 1v14.286l3.75 5.7143-2.5e-5 -4.2857 2.5e-5 -1.4286h16.25v-14.286zm1.25 1.4286h17.5v11.429h-17.5z" color="#eff0f1" fill="currentColor"/><path class="ColorScheme-Text" d="m11 3a5 5 0 0 0-5 5 5 5 0 0 0 5 5 5 5 0 0 0 5-5 5 5 0 0 0-5-5zm-5 0.83333v1.6667l1.6667-1.6667zm5 0a4.1667 4.1667 0 0 1 1.9922 0.50781l-1.2679 1.2679a2.5 2.5 0 0 0-0.72428-0.10905 2.5 2.5 0 0 0-0.72428 0.10905l-1.2646-1.2646a4.1667 4.1667 0 0 1 1.9889-0.51107zm3.3333 0 1.6667 1.6667v-1.6667zm-6.9922 2.1745 1.2679 1.2679a2.5 2.5 0 0 0-0.10905 0.72428 2.5 2.5 0 0 0 0.10905 0.72428l-1.2646 1.2646a4.1667 4.1667 0 0 1-0.51107-1.9889 4.1667 4.1667 0 0 1 0.50781-1.9922zm7.3145 0.00325a4.1667 4.1667 0 0 1 0.51107 1.9889 4.1667 4.1667 0 0 1-0.50781 1.9922l-1.2679-1.2679a2.5 2.5 0 0 0 0.10905-0.72429 2.5 2.5 0 0 0-0.10905-0.72428zm-3.6556 0.32226a1.6667 1.6667 0 0 1 1.6667 1.6667 1.6667 1.6667 0 0 1-1.6667 1.6667 1.6667 1.6667 0 0 1-1.6667-1.6667 1.6667 1.6667 0 0 1 1.6667-1.6667zm-0.72428 4.0576a2.5 2.5 0 0 0 0.72428 0.10905 2.5 2.5 0 0 0 0.72428-0.10905l1.2646 1.2646a4.1667 4.1667 0 0 1-1.9889 0.51107 4.1667 4.1667 0 0 1-1.9922-0.50781zm-4.2757 0.10905v1.6667h1.6667zm10 0-1.6667 1.6667h1.6667z" color="#eff0f1" fill="currentColor"/></svg>
