<?xml version="1.0" encoding="UTF-8"?>
<svg version="1.1" viewBox="0 0 22 22" xmlns="http://www.w3.org/2000/svg"><defs><linearGradient id="m" x2="0" y1="545.8" y2="517.8" gradientTransform="translate(1.45e-4,5.74e-4)" gradientUnits="userSpaceOnUse"><stop stop-color="#1d1e1e" offset="0"/><stop stop-color="#44484c" offset="1"/></linearGradient><linearGradient id="d" x1="8" x2="24" y1="24" y2="8" gradientUnits="userSpaceOnUse"><stop stop-color="#e81877" offset="0"/><stop stop-color="#dd1d8c" offset=".3125"/><stop stop-color="#6d57b1" offset=".5625"/><stop stop-color="#2a78c1" offset=".75"/><stop stop-color="#018dcb" offset="1"/></linearGradient><clipPath id="t"><rect x="8" y="8" width="32" height="32" rx="16"/></clipPath><linearGradient id="c" x1="8" x2="24" y1="24" y2="8" gradientTransform="matrix(1 0 0 -1 384.57 547.8)" gradientUnits="userSpaceOnUse"><stop stop-color="#e51561" offset="0"/><stop stop-color="#e4156c" offset=".3125"/><stop stop-color="#e71e2c" offset=".5625"/><stop stop-color="#e8301e" offset=".75"/><stop stop-color="#e6320e" offset="1"/></linearGradient><clipPath id="n"><rect x="392.57" y="507.8" width="32" height="32" rx="16"/></clipPath><linearGradient id="b" x1="8" x2="24" y1="24" y2="8" gradientTransform="matrix(-1 0 0 1 432.57 499.8)" gradientUnits="userSpaceOnUse"><stop stop-color="#bec900" offset="0"/><stop stop-color="#9ec80a" offset=".3125"/><stop stop-color="#71b93d" offset=".5625"/><stop stop-color="#35a48f" offset=".75"/><stop stop-color="#018fca" offset="1"/></linearGradient><clipPath id="r"><rect x="392.57" y="507.8" width="32" height="32" rx="16"/></clipPath><linearGradient id="a" x1="8" x2="24" y1="24" y2="8" gradientTransform="rotate(180 216.29 273.9)" gradientUnits="userSpaceOnUse"><stop stop-color="#c1cc00" offset="0"/><stop stop-color="#dfcd00" offset=".3125"/><stop stop-color="#f0cc00" offset=".5625"/><stop stop-color="#fd8c08" offset=".75"/><stop stop-color="#f25c13" offset="1"/></linearGradient><clipPath id="p"><rect x="392.57" y="507.8" width="32" height="32" rx="16"/></clipPath><clipPath id="i"><rect x="8" y="8" width="32" height="32" rx="16"/></clipPath><filter id="e" x="-.06" y="-.06" width="1.12" height="1.12" color-interpolation-filters="sRGB"><feGaussianBlur stdDeviation="0.4"/></filter><clipPath id="f"><rect x="392.57" y="507.8" width="32" height="32" rx="16"/></clipPath><clipPath id="g"><rect x="392.57" y="507.8" width="32" height="32" rx="16"/></clipPath><clipPath id="h"><rect x="392.57" y="507.8" width="32" height="32" rx="16"/></clipPath><clipPath id="u"><rect x="8" y="8" width="32" height="32" rx="16"/></clipPath><clipPath id="o"><rect x="392.57" y="507.8" width="32" height="32" rx="16"/></clipPath><clipPath id="q"><rect x="392.57" y="507.8" width="32" height="32" rx="16"/></clipPath><clipPath id="s"><rect x="392.57" y="507.8" width="32" height="32" rx="16"/></clipPath><linearGradient id="l" x2="0" y1="543.8" y2="503.8" gradientTransform="matrix(.2 0 0 .2 318.86 -636.56)" gradientUnits="userSpaceOnUse"><stop stop-color="#2a2c2f" offset="0"/><stop stop-color="#424649" offset="1"/></linearGradient><linearGradient id="j" x2="0" y1="524.8" y2="522.8" gradientTransform="translate(-8,8)" gradientUnits="userSpaceOnUse"><stop stop-color="#989a9b" offset="0"/><stop stop-color="#f6f6f7" offset="1"/></linearGradient><linearGradient id="k" x1="393.57" x2="407.57" y1="524.8" y2="538.8" gradientTransform="translate(-384.57 -515.8)" gradientUnits="userSpaceOnUse"><stop stop-color="#292c2f" offset="0"/><stop stop-opacity="0" offset="1"/></linearGradient></defs><g transform="translate(-384.57 -525.8)"><g transform="matrix(.71429 0 0 .71429 109.45 156.94)"><rect x="386.57" y="517.8" width="28" height="28" rx="14" fill="url(#m)"/><g stroke-opacity=".55027" stroke-width="2.8"><g transform="matrix(.66347 .17778 -.17778 .66347 222.62 111.64)"><path transform="translate(384.57 499.8)" d="m24 8c-8.864 0-16 7.136-16 16h16z" clip-path="url(#t)" fill="url(#d)"/><path d="m408.57 539.8c-8.864 0-16-7.136-16-16h16z" clip-path="url(#n)" fill="url(#c)"/><path d="m408.57 507.8c8.864 0 16 7.136 16 16h-16z" clip-path="url(#r)" fill="url(#b)"/><path d="m408.57 539.8c8.864 0 16-7.136 16-16h-16z" clip-path="url(#p)" fill="url(#a)"/></g><g transform="matrix(.68688 0 0 .68688 119.93 172.01)" opacity=".7"><path transform="translate(384.57 499.8)" d="m24 8c-8.864 0-16 7.136-16 16h16z" clip-path="url(#i)" fill="url(#d)" filter="url(#e)" opacity="1"/><path d="m408.57 539.8c-8.864 0-16-7.136-16-16h16z" clip-path="url(#f)" fill="url(#c)" filter="url(#e)" opacity="1"/><path d="m408.57 539.8c8.864 0 16-7.136 16-16h-16z" clip-path="url(#g)" fill="url(#a)" filter="url(#e)" opacity="1"/><path d="m408.57 507.8c8.864 0 16 7.136 16 16h-16z" clip-path="url(#h)" fill="url(#b)" filter="url(#e)" opacity="1"/></g><path transform="matrix(.48569 .48569 -.48569 .48569 400.57 508.48)" d="m24 8c-8.864 0-16 7.136-16 16h16z" clip-path="url(#i)" fill="url(#d)" opacity=".35"/><path transform="matrix(.48569 .48569 -.48569 .48569 456.54 78.951)" d="m408.57 539.8c-8.864 0-16-7.136-16-16h16z" clip-path="url(#f)" fill="url(#c)" opacity=".35"/><path transform="matrix(.48569 .48569 -.48569 .48569 456.54 78.951)" d="m408.57 539.8c8.864 0 16-7.136 16-16h-16z" clip-path="url(#g)" fill="url(#a)" opacity=".35"/><path transform="matrix(.48569 .48569 -.48569 .48569 456.54 78.951)" d="m408.57 507.8c8.864 0 16 7.136 16 16h-16z" clip-path="url(#h)" fill="url(#b)" opacity=".35"/><g transform="matrix(.17778 .66347 -.66347 .17778 675.46 167.6)"><path transform="translate(384.57 499.8)" d="m24 8c-8.864 0-16 7.136-16 16h16z" clip-path="url(#u)" fill="url(#d)" opacity=".3"/><path transform="translate(-6e-6,1e-5)" d="m408.57 539.8c-8.864 0-16-7.136-16-16h16z" clip-path="url(#o)" fill="url(#c)" opacity=".3"/><path transform="translate(-6e-6,1e-5)" d="m408.57 539.8c8.864 0 16-7.136 16-16h-16z" clip-path="url(#q)" fill="url(#a)" opacity=".3"/><path transform="translate(-6e-6,1e-5)" d="m408.57 507.8c8.864 0 16 7.136 16 16h-16z" clip-path="url(#s)" fill="url(#b)" opacity=".3"/></g></g><path transform="translate(384.57 515.8)" d="m18.699 13-5.3496 6 9.3203 9.3203c2.4018-1.2982 4.3739-3.278 5.666-5.6836z" fill="url(#k)" fill-rule="evenodd" opacity=".2"/><rect transform="scale(1,-1)" x="396.57" y="-535.8" width="8" height="8" rx="4" fill="url(#l)" stroke-opacity=".55027" stroke-width="2.8"/><path d="m399.57 532.8 1-2 0.99999 2z" fill="url(#j)" fill-rule="evenodd"/></g></g></svg>
