<?xml version="1.0" encoding="UTF-8"?>
<svg version="1.1" viewBox="0 0 22 22" xmlns="http://www.w3.org/2000/svg"><defs><style type="text/css">.ColorScheme-Text {
        color:#eff0f1;
      }</style></defs><path class="ColorScheme-Text" d="m2.875 1-0.66406 1.2109-1.2109 0.66406 1.2109 0.66406 0.66406 1.2109 0.66406-1.2109 1.2109-0.66406-1.2109-0.66406zm6.25 0-0.66406 1.2109-1.2109 0.66406 1.2109 0.66406 0.66406 1.2109 0.66406-1.2109 1.2109-0.66406-1.2109-0.66406zm8.3398 0-16.465 16.465 3.5352 3.5352 16.465-16.465zm-0.08545 1.853 1.7676 1.7676-3.8721 3.8745-1.77-1.77zm-12.004 3.147-0.66406 1.2109-1.2109 0.66406 1.2109 0.66406 0.66406 1.2109 0.66406-1.2109 1.2109-0.66406-1.2109-0.66406z" color="#eff0f1" fill="currentColor"/></svg>
