<?xml version="1.0" encoding="UTF-8"?>
<svg fill="#000000" version="1.1" viewBox="0 0 22 22" xmlns="http://www.w3.org/2000/svg"><path d="m4.232 3.5c-0.19871 0-0.44158 0.1034-0.57914 0.24471-0.79823 0.80307-1.5982 1.6044-2.4015 2.4041-0.13927 0.13787-0.25136 0.38603-0.25136 0.59972v0.00172c0.0034 3.7035 0.0034 11.224 0.0034 11.307v0.44117h0.43478c0.081522 0 10.946-0.0018 16.323 0.0018 0.21739 0 0.46366-0.11374 0.60462-0.25505l0.0018-0.0018c0.78969-0.7979 1.5828-1.5924 2.3794-2.3834 0.1494-0.14993 0.253-0.40671 0.253-0.61696-0.003398-3.6931 0-11.302 0-11.302v-0.44117zm0.02038 0.88235h15.878c0 0.55319-0.0033 7.3018 0 10.855-0.79484 0.78929-1.588 1.5837-2.376 2.3799-5.2361-0.0034-15.258-0.0034-15.881-0.0018 0-0.61695 0-7.2794-0.0034-10.847 0.79654-0.79266 1.5914-1.5871 2.3828-2.3867zm4.1797 1.7647c-0.13757 0-0.27344 0.00343-0.41101 0.00861-0.33288 0.013793-0.66067 0.070664-0.98166 0.16545-0.7269 0.21886-1.2721 0.65659-1.5897 1.3545-0.11039 0.24299-0.2038 0.49632-0.27853 0.7531-0.2055 0.70312-0.24796 1.4269-0.25645 2.1524-0.0051 0.48943 0.023778 0.97713 0.09341 1.4614 0.067934 0.45324 0.17323 0.89614 0.35156 1.3218 0.32269 0.76516 0.88995 1.246 1.6882 1.4562 0.69463 0.1844 1.3961 0.20852 2.1196 0.10686 0.36345 0.59455 0.7303 1.1977 1.1022 1.8078 0.43988-0.20681 0.85768-0.40154 1.2874-0.60318-0.35496-0.57215-0.69633-1.1253-1.0343-1.6716 0.14776-0.13442 0.29382-0.25333 0.42289-0.38775 0.33458-0.35673 0.53668-0.78584 0.66916-1.2529 0.18852-0.66693 0.23607-1.3528 0.25306-2.0404 0.01189-0.53251-0.02208-1.0633-0.09341-1.5906-0.06794-0.49115-0.18512-0.97024-0.38553-1.4269-0.34137-0.7755-0.92222-1.2615-1.7391-1.4752-0.40251-0.1034-0.80842-0.13787-1.2177-0.13959zm5.1766 0.88235v1.7647h-0.86957v1.3235h0.86957v3.0882c0 0.3395 0.06962 0.71174 0.2038 1.0288 0.11209 0.26712 0.30061 0.45496 0.56386 0.57042 0.20041 0.08618 0.40931 0.13097 0.625 0.15165 0.4127 0.03791 0.89164-0.02929 1.2976-0.10168 0.11549-0.02068 0.22928-0.04481 0.35326-0.06892-0.01188-0.36018-0.03058-0.84271-0.05943-1.1891-0.04587-0.0034-0.06962-0.01038-0.09511-0.0086-0.27174 0.01038-0.61481 0.05343-0.88655 0.05859-0.11719 0.0018-0.23607-0.01038-0.35156-0.03447-0.14606-0.03102-0.24287-0.12925-0.28363-0.27746-0.01529-0.06204-0.03228-0.12236-0.03568-0.1844-0.01868-0.23265-0.02548-0.59283-0.02718-0.8272-0.0051-0.83409 0-2.2059 0-2.2059h1.7391v-1.3235h-1.7391v-1.7647zm-5.2191 0.44979c0.25815 0 0.51461 0.031019 0.77106 0.094783 0.44327 0.11029 0.77446 0.35156 0.97826 0.72897 0.17833 0.32399 0.27683 0.67038 0.32269 1.0271 0.05435 0.43083 0.07982 0.86511 0.1036 1.134-0.02208 0.74621-0.03906 1.3252-0.20211 1.8922-0.03397 0.12064-0.07643 0.23954-0.12398 0.35501-0.18342 0.45496-0.54518 0.73242-1.0581 0.85305-0.518 0.12064-1.0428 0.12235-1.5642 0.0034-0.54687-0.12406-0.91542-0.42565-1.109-0.90646-0.15625-0.38947-0.23947-0.79101-0.26155-1.2012-0.025474-0.46013-0.035665-0.92198-0.022079-1.3821 0.011888-0.49804 0.084919-0.99092 0.26325-1.4648 0.037365-0.098225 0.08322-0.19474 0.13077-0.2878 0.2038-0.3912 0.54348-0.63591 0.99864-0.75138 0.25645-0.063763 0.51461-0.094784 0.77276-0.094784z" fill="#eff0f1" stroke-width=".43797"/></svg>
