<?xml version="1.0" encoding="UTF-8"?>
<svg version="1.1" viewBox="0 0 22 22" xmlns="http://www.w3.org/2000/svg"><g transform="translate(-326 -534.36)"><g fill="#e00a5e"><rect x="256.23" y="514.7" width="0" height="14.668"/><rect x="263.19" y="537.27" width="0" height="14.668"/><rect x="265" y="536.21" width="0" height="14.668"/><rect x="256.23" y="514.7" width="0" height="14.668"/><rect x="263.19" y="537.27" width="0" height="14.668"/><rect x="265" y="536.21" width="0" height="14.668"/><rect x="256.23" y="514.7" width="0" height="14.668"/><rect x="263.19" y="537.27" width="0" height="14.668"/><rect x="265" y="536.21" width="0" height="14.668"/><rect x="256.23" y="514.7" width="0" height="14.668"/><rect x="263.19" y="537.27" width="0" height="14.668"/><rect x="265" y="536.21" width="0" height="14.668"/></g><path d="m333.88 535.36v2.5h1.25v-2.5zm5 0v2.5h1.25v-2.5zm-9.9243 1.3501-1.001 0.75195 1.5015 1.9995 0.99854-0.74951zm16.099 0-1.499 2.002 0.99853 0.74951 1.5015-1.9995zm-13.049 2.3999-5 3.75 10 12.5 10-12.5-5-3.75zm0.41747 1.25h3.9575v1.875h-6.4575zm5.2075 0h3.9575l2.5 1.875h-6.4575zm-8.5254 3.125h7.2754v9.0942zm8.5254 0h7.2754l-7.2754 9.0942z" color="#000000" color-rendering="auto" fill="#e41616" fill-rule="evenodd" image-rendering="auto" shape-rendering="auto" stroke-width="1.25"/><path d="m336 540.36v4h-4v2h4v4h2v-4h4v-2h-4v-4z" fill="#eff0f1"/></g></svg>
