<?xml version="1.0" encoding="UTF-8"?>
<svg width="22" height="22" version="1.1" viewBox="0 0 352 352" xmlns="http://www.w3.org/2000/svg"><defs><style type="text/css">.ColorScheme-Text {
        color:#eff0f1;
      }</style></defs><g transform="matrix(21.333 0 0 21.333 5.3333 -22136)"><path class="ColorScheme-Text" d="m8 1038.4-2 4-4 1 3 3-1 4 4-2 4 2-1-4 3-3-4-1z" color="#eff0f1" fill="#eff0f1"/></g><path d="m171.12 272v5.3333h10.667v53.333h-10.667v5.3333h26.667v-5.3333h-10.667v-53.333h10.667v-5.3333zm48 0h18.286q12.011 0 18.106 3.5854 6.1849 3.4958 6.1849 12.28 0 5.6471-3.1373 9.4118-3.1372 3.6751-9.0532 4.7507v0.44818q4.0336 0.62745 7.2605 2.3305 3.3165 1.7031 5.1989 4.8403t1.8824 8.1569q0 8.6947-6.0056 13.445-5.916 4.7507-16.224 4.7507h-22.499zm8.0672 27.249h11.832q8.2465 0 11.294-2.5994 3.0476-2.6891 3.0476-7.888 0-5.2885-3.7647-7.5294-3.6751-2.3305-11.832-2.3305h-10.577zm0 6.7227v23.216h12.908q8.5154 0 11.832-3.3165 3.3165-3.3165 3.3165-8.6947 0-5.0196-3.4958-8.0672-3.4062-3.1372-12.28-3.1372zm-87.42 30.028-7.6764-19.727h-25.261l-7.5872 19.727h-8.1227l24.904-64h7.2301l24.814 64zm-10.086-26.868-7.1409-19.28q-0.26778-0.71409-0.89261-2.5886-0.62482-1.8745-1.2496-3.8382-0.53556-2.053-0.89261-3.1241-0.62482 2.7671-1.4282 5.4449-0.80335 2.5886-1.3389 4.106l-7.2301 19.28z" fill="#eff0f1"/></svg>
