<?xml version="1.0" encoding="UTF-8"?>
<svg version="1.1" viewBox="0 0 22 22" xmlns="http://www.w3.org/2000/svg"><defs><style type="text/css">.ColorScheme-Text {
        color:#eff0f1;
      }</style></defs><path d="m3.5 1v2.5h-2.5v3.75h2.5v7.5h-2.5v3.75h2.5v2.5h7.5v-1.25h-6.25v-13.75h15v5h1.25v-10h-17.5zm1.25 1.25h15v2.5h-15v-2.5z" color="#eff0f1" fill="currentColor"/><path class="ColorScheme-Text" d="m15.167 11v0.91797a4.1667 4.1667 0 0 0-1.4616 0.60872l-0.65104-0.65104-1.1784 1.1784 0.65104 0.65104a4.1667 4.1667 0 0 0-0.60547 1.4616h-0.92122v1.6667h0.91797a4.1667 4.1667 0 0 0 0.60872 1.4616l-0.65104 0.65104 1.1784 1.1784 0.65104-0.65104a4.1667 4.1667 0 0 0 1.4616 0.60547v0.92122h1.6667v-0.91797a4.1667 4.1667 0 0 0 1.4616-0.60872l0.65104 0.65104 1.1784-1.1784-0.65104-0.65104a4.1667 4.1667 0 0 0 0.60547-1.4616h0.92122v-1.6667h-0.91797a4.1667 4.1667 0 0 0-0.60872-1.4616l0.65104-0.65104-1.1784-1.1784-0.65104 0.65104a4.1667 4.1667 0 0 0-1.4616-0.60547v-0.92122zm0.83333 1.6667a3.3333 3.3333 0 0 1 2.391 1.0107 3.3333 3.3333 0 0 1 0.94238 2.3226 3.3333 3.3333 0 0 1-1.0107 2.391 3.3333 3.3333 0 0 1-2.3226 0.94238 3.3333 3.3333 0 0 1-2.391-1.0107 3.3333 3.3333 0 0 1-0.94238-2.3226 3.3333 3.3333 0 0 1 1.0107-2.391 3.3333 3.3333 0 0 1 2.3226-0.94238zm-0.83333 1.6667v3.3333l2.5-1.6667z" color="#eff0f1" fill="currentColor"/></svg>
