<?xml version="1.0" encoding="UTF-8"?>
<svg version="1.1" viewBox="0 0 32 32" xmlns="http://www.w3.org/2000/svg"><defs><style type="text/css">.ColorScheme-Text {
        color:#eff0f1;
      }
      .ColorScheme-PositiveText {
        color:#27ae60;
      }</style></defs><g transform="matrix(1.875 0 0 1.875 -4.625 -1936.6)"><path class="ColorScheme-Text" transform="translate(0 1030.4)" d="m11 3s-2 2.6575-8 3.3242c0 0 0 9.3339 8 12.676 8-3.3419 8-12.676 8-12.676-6-0.6667-8-3.3242-8-3.3242zm0 1.377c1.587 1.3447 3.8772 2.2418 6.8457 2.6934-0.16126 1.4452-0.31588 2.5328-0.68945 3.584-0.78509 2.2091-1.7005 3.553-2.5215 4.5195-1.2722 1.4977-2.4276 2.1038-3.6348 2.707-1.2072-0.6032-2.3625-1.2093-3.6348-2.707-0.82101-0.9665-1.7364-2.3104-2.5215-4.5195-0.37358-1.0512-0.52819-2.1388-0.68945-3.584 2.9685-0.4516 5.2587-1.3487 6.8457-2.6934zm0 1.1992c-1.7435 1.2103-3.7022 1.8232-5.668 2.2402 0.93085 5.282 2.9361 7.5407 5.668 8.9551 2.7319-1.4144 4.7371-3.6731 5.668-8.9551-1.9658-0.417-3.9245-1.0299-5.668-2.2402z" color="#eff0f1" fill="currentColor"/><path class="ColorScheme-PositiveText" d="m15 1041.4c2.216 0 4 1.784 4 4s-1.784 4-4 4-4-1.784-4-4 1.784-4 4-4z" color="#27ae60" fill="currentColor"/><path transform="translate(0 1030.4)" d="m17 13-3 3-1-1-1 1 2 2 4-4z" fill="#fff"/></g></svg>
