<?xml version="1.0" encoding="UTF-8"?>
<svg version="1.1" viewBox="0 0 22 22" xmlns="http://www.w3.org/2000/svg"><defs><style type="text/css">.ColorScheme-Text {
        color:#eff0f1;
      }</style></defs><path class="ColorScheme-Text" d="m11 1c-0.84401 5e-3 -1.684 0.11624-2.5 0.33203v1.3062a8.75 8.75 0 0 0-1.6455 0.68115l-0.92529-0.92529c-1.4587 0.86006-2.6751 2.0765-3.5352 3.5352l0.92529 0.92529a8.75 8.75 0 0 0-0.6836 1.6455h-1.311c-0.21328 0.8163-0.32237 1.6563-0.32471 2.5 5e-3 0.84401 0.11626 1.684 0.33203 2.5h1.3062a8.75 8.75 0 0 0 0.68115 1.6455l-0.92529 0.92529c0.86006 1.4587 2.0765 2.6751 3.5352 3.5352l0.92529-0.92529a8.75 8.75 0 0 0 1.6455 0.68359v1.311c0.8163 0.21328 1.6563 0.32237 2.5 0.32471 0.8437-0.0024 1.6837-0.11144 2.5-0.32471v-1.311a8.75 8.75 0 0 0 1.6455-0.68359l0.92529 0.92529c1.4587-0.86006 2.6751-2.0765 3.5352-3.5352l-0.92529-0.92529a8.75 8.75 0 0 0 0.68115-1.6455h1.3062c0.21579-0.81599 0.32703-1.656 0.33203-2.5-0.002375-0.84369-0.11144-1.6837-0.32471-2.5h-1.311a8.75 8.75 0 0 0-0.6836-1.6455l0.92529-0.92529c-0.86006-1.4587-2.0765-2.6751-3.5352-3.5352l-0.91553 0.91553-0.0098 0.00976a8.75 8.75 0 0 0-1.6455-0.68115v-1.3062c-0.81599-0.21579-1.656-0.32703-2.5-0.33203zm0 1.25c0.41864 0.0015 0.83695 0.034215 1.25 0.095215v1.2622a7.5 7.5 0 0 1 3.0884 1.2866l0.08056-0.080566 0.81299-0.81299 0.0025-0.00244c0.67168 0.50084 1.2674 1.0948 1.77 1.7651l-0.0049 0.00489-0.81299 0.81299-0.07813 0.078125a7.5 7.5 0 0 1 1.2793 3.0908h1.2695c0.06037 0.41382 0.09215 0.83069 0.09277 1.25-0.0015 0.41864-0.03421 0.83694-0.09521 1.25h-1.2622a7.5 7.5 0 0 1-1.2866 3.0884l0.89605 0.89605c-0.50084 0.67168-1.0948 1.2674-1.7651 1.77l-0.89602-0.89602a7.5 7.5 0 0 1-3.0908 1.2793v1.2695c-0.41382 0.060357-0.83069 0.092131-1.25 0.092756-0.41931-6.25e-4 -0.83618-0.0324-1.25-0.092775v-1.2695a7.5 7.5 0 0 1-3.0908-1.2793l-0.078125 0.07813-0.81299 0.81299-0.00489 0.0049c-0.67037-0.5026-1.2643-1.0984-1.7651-1.77l0.00244-0.0025 0.81299-0.81299 0.080566-0.08056a7.5 7.5 0 0 1-1.2866-3.0883h-1.2622c-0.061-0.41306-0.093715-0.83136-0.095215-1.25 6.25e-4 -0.41931 0.032399-0.83618 0.092774-1.25h1.2695a7.5 7.5 0 0 1 1.2793-3.0908l-0.89111-0.89111-0.00489-0.0048875c0.50259-0.67037 1.0984-1.2643 1.77-1.7651l0.89599 0.89599a7.5 7.5 0 0 1 3.0884-1.2866v-1.2622c0.41305-0.061 0.83136-0.093715 1.25-0.095215zm-2.5 5v7.5l6.25-3.75z" color="#eff0f1" fill="currentColor"/></svg>
