<?xml version="1.0" encoding="UTF-8"?>
<svg version="1.1" viewBox="0 0 22 22" xmlns="http://www.w3.org/2000/svg"><g transform="translate(-326 -534.36)"><g fill="#6c7a89"><rect x="256.23" y="514.7" width="0" height="14.668"/><rect x="263.19" y="537.27" width="0" height="14.668"/><rect x="265" y="536.21" width="0" height="14.668"/><rect x="256.23" y="514.7" width="0" height="14.668"/><rect x="263.19" y="537.27" width="0" height="14.668"/><rect x="265" y="536.21" width="0" height="14.668"/><rect x="256.23" y="514.7" width="0" height="14.668"/><rect x="263.19" y="537.27" width="0" height="14.668"/><rect x="265" y="536.21" width="0" height="14.668"/><rect x="256.23" y="514.7" width="0" height="14.668"/><rect x="263.19" y="537.27" width="0" height="14.668"/><rect x="265" y="536.21" width="0" height="14.668"/></g><path d="m328.09 535.36-1.0938 0.86496 6.7243 7.7065-6.7243 7.7065 1.0938 0.86496 7.4777-8.5714zm7.4777 18.571v1.4286h11.429v-1.4286z" color="#000000" color-rendering="auto" fill="#eff0f1" fill-rule="evenodd" image-rendering="auto" shape-rendering="auto" stroke-width="1.4286"/></g></svg>
