<?xml version="1.0" encoding="UTF-8"?>
<svg version="1.1" viewBox="0 0 22 22" xmlns="http://www.w3.org/2000/svg"><defs><style type="text/css">.ColorScheme-Text {
        color:#eff0f1;
      }
      .ColorScheme-Highlight {
        color:#3daee9;
      }</style></defs><path class="ColorScheme-Text" d="m1 1v20h20v-12.5h-1.25v11.25h-17.5v-13.75h11.25v-5zm8.0347 7.5c-1.3326 0-1.8921 0.44031-1.8921 1.5674v1.5283c0 0.69614-0.025631 1.5015-0.76172 1.5015h-0.38086v0.80566h0.38086c0.73611 0 0.76172 0.80533 0.76172 1.5015v1.5283c0 1.1271 0.55948 1.5674 1.8921 1.5674v-0.73975c-0.8884 0-0.90088-0.29895-0.90088-1.3818v-1.2598c0-0.51932-0.15452-1.2933-0.90332-1.6138 0.7488-0.32044 0.90332-1.092 0.90332-1.6113v-1.272c0-1.0829 0.012504-1.3818 0.90088-1.3818zm3.9209 0v0.73975c0.88841 0 0.91064 0.29896 0.91064 1.3818v1.272c0 0.51934 0.15451 1.2909 0.90332 1.6113-0.74881 0.32044-0.90332 1.0944-0.90332 1.6138v1.2598c0 1.0829-0.02212 1.3818-0.91064 1.3818v0.73975c1.3326 0 1.9019-0.44031 1.9019-1.5674v-1.5283c0-0.69614 0.0505-1.5015 0.77392-1.5015h0.36865v-0.80566h-0.36865c-0.72342 0-0.77393-0.80533-0.77392-1.5015v-1.5283c0-1.1271-0.56923-1.5674-1.9019-1.5674" color="#eff0f1" fill="currentColor"/><path d="M 14,1 17.5,6.25 21,1 Z" fill="#f60" fill-rule="evenodd" stroke-width="1.75"/></svg>
