<?xml version="1.0" encoding="UTF-8"?>
<svg version="1.1" viewBox="0 0 22 22" xmlns="http://www.w3.org/2000/svg"><defs><style type="text/css">.ColorScheme-Text {
        color:#eff0f1;
      }</style></defs><path d="m1 1v20h9v-1.25h-7.75v-10h3.75v-0.011719l0.0097656 0.011719 2.5-2.5h11.24v2.75h1.25v-6.5h-8.7402l-2.5-2.5-0.0097656 0.011719v-0.011719h-8.75z" color="#eff0f1" fill="currentColor"/><g transform="matrix(1.6 0 0 1.6 -12.6 -12.6)" fill="#2ecc71"><path d="m17.875 14.75c-1.7312 0-3.125 1.3938-3.125 3.125 0 0.54178 0.14756 1.0435 0.38818 1.4868l0.94971-0.94971c-0.05129-0.17137-0.08789-0.34862-0.08789-0.53711 0-1.0388 0.83625-1.875 1.875-1.875 0.18849 0 0.36574 0.03661 0.53711 0.08789l0.94971-0.94971c-0.44331-0.24062-0.94504-0.38818-1.4868-0.38818" color="#eff0f1"/><path d="m20.612 16.388-0.94971 0.94971c0.05129 0.17137 0.08789 0.34862 0.08789 0.53711 0 1.0388-0.83625 1.875-1.875 1.875-0.18849 0-0.36574-0.03661-0.53711-0.08789l-0.94971 0.94971c0.44331 0.24062 0.94503 0.38818 1.4868 0.38818 1.7312 0 3.125-1.3938 3.125-3.125 0-0.54178-0.14756-1.0435-0.38818-1.4868" color="#eff0f1"/></g></svg>
