<?xml version="1.0" encoding="UTF-8"?>
<svg width="22" height="22" version="1.1" viewBox="0 0 5.8208 5.8208" xmlns="http://www.w3.org/2000/svg"><g transform="translate(0 -291.18)" fill="#eff0f1"><g transform="translate(1.792 -6.6889)"><path d="m-1.2628 298.13v1.9844h4.2333v-1.9844zm0.26458 0.26459h3.7042v1.4552h-3.7042z"/><g transform="matrix(1.0001 0 0 1.05 -2.0566 -14.981)"><path d="m1.3229 298.71v0.88194h0.88194v-0.88194z"/><path d="m2.4694 298.71v0.88194h0.88194v-0.88194z"/><path d="m3.6158 298.71v0.88194h0.88194v-0.88194z"/></g></g><path d="m5.1464 296.74c0.05353-7.3e-4 0.10636-0.0124 0.15529-0.0341 0.048941-0.0218 0.09298-0.0532 0.12947-0.0924 0.071003-0.0648 0.11504-0.15399 0.12333-0.24984 0.00942-0.0991-0.019262-0.19801-0.080188-0.27661-0.27361-0.28908-0.81325-0.82967-1.2058-1.2147 0.083521-0.22626 0.079619-0.47562-0.010944-0.69914-0.07447-0.18598-0.2069-0.34289-0.37758-0.4474-0.1339-0.0888-0.2878-0.14281-0.44777-0.15705-0.15997-0.0142-0.32095 0.012-0.4684 0.0755l-0.13995 0.0607 0.64992 0.67045-0.28455 0.2859-0.66761-0.65359-0.060619 0.14063c-0.051095 0.11856-0.078196 0.2461-0.079715 0.37525-0.00152 0.12912 0.022565 0.25728 0.070871 0.37701 0.047897 0.11844 0.11904 0.22594 0.20921 0.31626 0.051095 0.0502 0.10756 0.0943 0.16839 0.13199 0.12584 0.0841 0.26983 0.13726 0.42012 0.15485 0.15031 0.0176 0.30264-8e-4 0.44447-0.0536 0.24898 0.25301 0.87049 0.87984 1.2062 1.1938 0.067339 0.0613 0.15487 0.0955 0.24583 0.0961zm-1.8001-2.9642c0.14918-3.7e-4 0.2951 0.0437 0.41925 0.12652 0.048416 0.0296 0.093383 0.0646 0.13407 0.10416 0.1082 0.1092 0.18046 0.24904 0.20709 0.4006 0.026635 0.15158 0.00637 0.30768-0.05808 0.44739l-0.030731 0.0674 0.052828 0.0517c0.39421 0.3854 0.96815 0.95868 1.2441 1.2505 0.02457 0.0366 0.035077 0.081 0.029582 0.12472-0.0055 0.0438-0.026616 0.0841-0.059467 0.11352-0.01893 0.0211-0.042001 0.0382-0.067772 0.0499-0.022714 0.0108-0.047267 0.0158-0.07219 0.0164-0.037853-9.3e-4 -0.074093-0.0156-0.10208-0.041-0.35674-0.33355-1.046-1.031-1.2483-1.2359l-0.051986-0.0526-0.06693 0.0306c-0.11651 0.0544-0.24508 0.0778-0.37324 0.0677-0.12816-0.01-0.25153-0.0532-0.35814-0.12516-0.04851-0.03-0.093481-0.0654-0.13405-0.10548-0.070259-0.0702-0.12578-0.15373-0.16331-0.24575-0.03751-0.092-0.056266-0.19061-0.055177-0.28998 0-0.049 0.00486-0.0979 0.014534-0.14591l0.58447 0.57137 0.57857-0.57875-0.57036-0.58823c0.048532-0.01 0.09788-0.014 0.14732-0.0137z"/></g></svg>
