<?xml version="1.0" encoding="UTF-8"?>
<svg version="1.1" viewBox="0 0 22 22" xmlns="http://www.w3.org/2000/svg"><defs><style type="text/css">.ColorScheme-Text {
        color:#eff0f1;
      }</style></defs><path class="ColorScheme-Text" d="m1 1v3.75h3.75v-3.75h-2.5zm16.25 0v1.25h2.5v2.5h1.25v-3.75zm-15 1.25h1.25v1.25h-1.25zm3.75 1.25v1.25h2.5v-1.25zm3.75 0v1.25h2.5v-1.25zm3.75 0v1.25h2.5v-1.25zm-10 2.5v2.5h1.25v-2.5zm5 0v8.75h7.5v-1.25h-6.25v-7.5zm8.75 0v2.5h1.25v-2.5zm-13.75 3.75v2.5h1.25v-2.5zm13.75 0v2.5h1.25v-2.5zm-13.75 3.75v2.5h1.25v-2.5zm13.75 0v2.5h1.25v-2.5zm-16.25 3.75v3.75h3.75v-3.75zm5 0v1.25h2.5v-1.25zm3.75 0v1.25h2.5v-1.25zm3.75 0v1.25h2.5v-1.25zm3.75 0v3.75h3.75v-3.75h-2.5zm-15 1.25h1.25v1.25h-1.25zm16.25 0h1.25v1.25h-1.25z" color="#eff0f1" fill="currentColor"/></svg>
