<?xml version="1.0" encoding="UTF-8"?>
<svg version="1.1" viewBox="0 0 22 22" xmlns="http://www.w3.org/2000/svg"><defs><style type="text/css">.ColorScheme-Text {
        color:#eff0f1
      }</style></defs><path d="m11 1a10 3.75 0 0 0-10 3.75v12.5a10 3.75 0 0 0 9 3.7266v-1.2441a8.75 2.5 0 0 1-7.75-2.4824v-4.4355a10 3.75 0 0 0 7.75 1.9121v-1.2441a8.75 2.5 0 0 1-7.75-2.4824v-4.4355a10 3.75 0 0 0 8.75 1.9355 10 3.75 0 0 0 8.75-1.9434v3.4434h1.25v-5.25a10 3.75 0 0 0-10-3.75zm0 1.25a8.75 2.5 0 0 1 8.75 2.5 8.75 2.5 0 0 1-8.75 2.5 8.75 2.5 0 0 1-8.75-2.5 8.75 2.5 0 0 1 8.75-2.5z" color="#eff0f1" fill="currentColor"/><path class="ColorScheme-Text" d="m10.966 11.604 2.3092 4.7085-2.3092 4.7085h9.237v-2.3543h-0.57731v1.7657h-7.5411l1.9123-4.12-1.9845-4.12h7.6133v1.7657h0.57731v-2.3543h-8.9483z" color="#eff0f1" fill="#ffc300" stroke="#ffc300" stroke-width=".58291"/></svg>
