<?xml version="1.0" encoding="UTF-8"?>
<svg version="1.1" viewBox="0 0 22 22" xmlns="http://www.w3.org/2000/svg"><defs><style type="text/css">.ColorScheme-Text {
        color:#eff0f1
      }</style></defs><path d="m11 1a10 3.75 0 0 0-10 3.75v12.5a10 3.75 0 0 0 10 3.75 10 3.75 0 0 0 1-0.019531v-1.25a8.75 2.5 0 0 1-1 0.019531 8.75 2.5 0 0 1-8.75-2.5v-4.4355a10 3.75 0 0 0 8.75 1.9355 10 3.75 0 0 0 1-0.019531v-1.25a8.75 2.5 0 0 1-1 0.019531 8.75 2.5 0 0 1-8.75-2.5v-4.4355a10 3.75 0 0 0 8.75 1.9355 10 3.75 0 0 0 8.75-1.9434v3.4434h1.25v-5.25a10 3.75 0 0 0-10-3.75zm0 1.25a8.75 2.5 0 0 1 8.75 2.5 8.75 2.5 0 0 1-8.75 2.5 8.75 2.5 0 0 1-8.75-2.5 8.75 2.5 0 0 1 8.75-2.5z" color="#eff0f1" fill="currentColor"/><path class="ColorScheme-Text" d="m17 11.408c-1.1902 0-2.1551 1.0279-2.1551 2.2959v0.7653h0.71836v-0.7653c0-0.84533 0.64324-1.5306 1.4367-1.5306 0.79348 0 1.4367 0.68528 1.4367 1.5306v2.2959h-5.0285v4.5918h7.1836v-4.5918h-1.4367v-2.2959c0-1.268-0.96486-2.2959-2.1551-2.2959zm-2.8734 5.3571h5.7469v3.0612h-5.7469z" color="#eff0f1" fill="#5fd35f" stroke="#5fd35f" stroke-width=".816"/><path d="m13.568 18.304v-1.8147h6.2365v3.6294h-6.2365z" fill="#5fd35f" stroke-width="0"/></svg>
