<?xml version="1.0" encoding="UTF-8"?>
<svg version="1.1" viewBox="0 0 22 22" xmlns="http://www.w3.org/2000/svg"><defs><style type="text/css">.ColorScheme-Text {
        color:#eff0f1;
      }</style></defs><g stroke="#eff0f1"><path class="ColorScheme-Text" d="m3.4069 1.6341-1.0339 0.81345 10.665 8.3906-10.665 8.3906 1.0339 0.81345 11.699-9.2041-11.699-9.2041" color="#eff0f1" fill="#eff0f1" stroke-width="1.2971"/><rect x="1.5001" y="1.5001" width="19" height="19" fill="none" stroke-width="1.0002"/><path d="m2.0035 19.993c-0.00855-0.0085-0.015537-0.06684-0.015537-0.12954v-0.114l0.13881 0.10681c0.076347 0.05875 0.14513 0.11704 0.15286 0.12954 0.015795 0.02556-0.25083 0.0325-0.27613 0.0072z" fill="#eff0f1" stroke-width=".023305"/><path d="m2.016 10.839c0-7.8083 3.952e-4 -7.8416 0.092373-7.7779 0.22157 0.15339 9.8764 7.757 9.8763 7.7779-1.75e-4 0.02076-9.6504 7.6203-9.8768 7.7779-0.091251 0.06355-0.091826 0.01482-0.091826-7.7779z" fill="#0cf" stroke-width=".04661"/><path d="m4.6272 19.911c0.063506-0.06055 2.4332-1.9314 5.2659-4.1575s5.3974-4.2433 5.6993-4.4828l0.54891-0.43535-5.4896-4.3154c-3.0193-2.3735-5.5415-4.3653-5.6051-4.4262l-0.11547-0.11081h15.076v18.038h-15.496z" fill="#0cf" stroke-width=".04661"/></g></svg>
