<?xml version="1.0" encoding="UTF-8"?>
<svg version="1.1" viewBox="0 0 22 22" xmlns="http://www.w3.org/2000/svg"><g transform="matrix(.042001 0 0 .04325 .24733 21.121)" fill="#eff0f1"><path d="m127.49-220.23-48.599-197.95-60.969-0.348 3.175 9.329 83.753 307 11.838 43.52h27.023l10.926-44.094 36.035-145.59-21.136-91.156-4.792-16.702-35.85 138.05z"/><path d="m210.44-328.39-44.636-11.049 24.863 91.075z"/><path d="m253.56-224.36-50.002-193.81-59.976-0.799 2.59 7.434 19.641 72.09 24.863 91.075 39.239 143.87 12.472 45.824h25.241l11.961-46.162 66.806-257.3 65.024-0.543-74.219 132.06 39.946 3.318c1.894 0.185 49.971 5.253 61.584 45.496 8.817 30.464 2.775 57.385-16.077 72.11-14.428 11.223-33.382 12.36-49.5 2.98-13.538-7.895-15.637-16.691-19.19-31.293-0.553-2.263-1.106-4.608-1.741-6.994l-49.756 13.138c0.543 1.874 0.993 3.861 1.505 6 4.311 17.776 10.793 44.667 43.213 63.56 34.181 19.906 76.196 17.244 107.09-6.82 35.502-27.678 48.538-76.329 33.925-126.94-12.298-42.66-44.319-63.386-70.134-73.4 0 0-19.292-7.475 0 0l63.385-112.8-1.874-35.901-173.3 0.656-51.353 195.2z"/></g></svg>
