<?xml version="1.0" encoding="UTF-8"?>
<svg version="1.1" viewBox="0 0 22 22" xmlns="http://www.w3.org/2000/svg"><defs><style type="text/css">.ColorScheme-Text {
        color:#eff0f1;
      }</style></defs><path class="ColorScheme-Text" d="m1 4 0.01709 1.0157 2.6343 0.38812c0.72227 0.70806 4.7392 5.9487 5.3516 7.2945l0.06104 3.7546c-0.39255 0.58332-2.793 0.46245-2.793 0.46245l-0.20508 1.0845s8.9962-0.20322 9.043-0.08533c-0.0225-0.13516 0.01709-1.0157 0.01709-1.0157l-2.9199-0.0881s-0.1902-2.6757-0.04883-4.2336c1.9157-2.3905 5.3345-5.0897 5.3345-5.0897l2.3218-0.44593 0.53467-1.0488-7.9053-0.055053 0.20508 1.0873s2.1619 0.19479 2.3975 0.40739c-0.03138 0.53122-3.7402 3.8812-3.7402 3.8812l-4.0552-6.1577 2.8418-0.24774 0.12451-0.76524zm17.913 6.3091 0.01953 5.731 0.8667 0.12937 1.2012-5.5411zm-0.16602 6.3641-0.1416 1.1313 1.0596 0.19544 0.15869-1.1919z" color="#eff0f1" fill="currentColor"/></svg>
