<?xml version="1.0" encoding="UTF-8"?>
<svg version="1.1" viewBox="0 0 22 22" xmlns="http://www.w3.org/2000/svg"><g transform="translate(-326 -534.36)"><path d="m337 535.36c-2.1778 0.0159-3.0957 0.90106-3.0957 3.1352v3.0521c0 1.3924-0.0427 3.0057-1.2695 3.0057h-0.63477v1.6115h0.63477c1.2268 0 1.2695 1.6133 1.2695 3.0057v3.0521c0 2.2341 0.91796 3.1192 3.0957 3.1352v-1.4797c-1.4187-0.017-1.4453-0.62651-1.4453-2.7616v-2.5198c0-1.0388-0.25589-2.5845-1.5039-3.2255 1.248-0.64096 1.5039-2.1891 1.5039-3.2279v-2.5418c0-2.1351 0.0266-2.7445 1.4453-2.7616zm2.5 2e-3v1.4797c1.3982 0.023 1.4453 0.6349 1.4453 2.7591v2.5418c0 1.0389 0.25588 2.587 1.5039 3.2279-1.248 0.64095-1.5039 2.1867-1.5039 3.2255v2.5198c0 2.1242-0.0471 2.7362-1.4453 2.7591v1.4797c2.1632-0.0214 3.0957-0.90576 3.0957-3.1327v-3.0521c0-1.3924 0.0857-3.0057 1.2915-3.0057h0.6128v-1.6115h-0.6128c-1.2057 0-1.2915-1.6133-1.2915-3.0057v-3.0521c0-2.227-0.93247-3.1113-3.0957-3.1327zm-10 18.748v1.2502h1.25v-1.2502z" fill="#f9d24c"/></g></svg>
