<?xml version="1.0" encoding="UTF-8"?>
<svg version="1.1" viewBox="0 0 22 22" xmlns="http://www.w3.org/2000/svg"><g transform="translate(-326 -534.36)"><path d="m338.88 535.36-5 19.692 1.25 0.30761 5-19.692zm-6.5576 3.75-4.9683 5.8057-0.34913 0.44434 0.34913 0.44434 4.9683 5.8057 0.93261-0.88622-4.5801-5.3638 4.5801-5.3638zm11.558 0a3.125 3.125 0 0 0-3.125 3.125v1.875h1.25v-1.875a1.875 1.875 0 0 1 1.875-1.875 1.875 1.875 0 0 1 1.875 1.875v3.125h-0.625a3.125 3.125 0 0 0-3.125 3.125v0.625h1.25v-0.625a1.875 1.875 0 0 1 1.875-1.875h1.875v-4.375a3.125 3.125 0 0 0-3.125-3.125zm-1.25 11.25a0.625 0.625 0 0 0-0.625 0.625 0.625 0.625 0 0 0 0.625 0.625 0.625 0.625 0 0 0 0.625-0.625 0.625 0.625 0 0 0-0.625-0.625z" color="#000000" fill="#a592ff" style="text-decoration-line:none;text-indent:0;text-transform:none"/></g></svg>
