<?xml version="1.0" encoding="UTF-8"?>
<svg version="1.1" viewBox="0 0 22 22" xmlns="http://www.w3.org/2000/svg"><defs><linearGradient id="a" x1="44" x2="4" gradientTransform="matrix(.49954 0 0 .5 325.02 533.36)" gradientUnits="userSpaceOnUse"><stop stop-color="#42a603" offset="0"/><stop stop-color="#78da06" offset="1"/></linearGradient><linearGradient id="c" x1="24" x2="4" y1="4" y2="44" gradientTransform="matrix(.49954 0 0 .5 325.02 533.36)" gradientUnits="userSpaceOnUse"><stop stop-color="#197cf1" offset="0"/><stop stop-color="#20bcfa" offset="1"/></linearGradient><linearGradient id="b" x1="44" x2="24" y1="44" y2="4" gradientTransform="matrix(.49954 0 0 .5 325.02 533.36)" gradientUnits="userSpaceOnUse"><stop stop-color="#c61423" offset="0"/><stop stop-color="#dc2b41" offset="1"/></linearGradient></defs><g transform="translate(-326 -534.36)"><g fill="#22a7f0"><rect x="326.5" y="535.99" width="0" height="11"/><rect x="321.94" y="538.51" width="0" height="11"/><rect x="317.44" y="526.09" width="0" height="11"/><rect x="318.28" y="538.32" width="0" height="11"/><rect x="313.73" y="540.84" width="0" height="11"/><rect x="309.22" y="528.43" width="0" height="11"/></g><g fill-rule="evenodd" stroke-width="1.2533"><path d="m337.01 535.36 1.4674 16.648 8.5234 3.3516z" fill="url(#b)"/><path d="m337.01 535.36-9.9908 20 10.887-9.834z" fill="url(#c)"/><path d="m333.08 549.89-6.0589 5.4717 19.98 1e-3 -13.921-5.4736zm-6.0432 5.4385-0.036 0.0332h0.0195l0.0167-0.0332z" fill="url(#a)"/></g></g></svg>
