<?xml version="1.0" encoding="UTF-8"?>
<svg width="22" height="22" version="1.1" viewBox="0 0 5.8208 5.8208" xmlns="http://www.w3.org/2000/svg"><g transform="translate(0 -291.18)"><g transform="translate(-6.8792)" fill="none" stroke="#eff0f1"><rect x="8.167" y="292.47" width="3.2452" height="3.2452" stroke-width=".45896"/><g stroke-width=".25636"><path d="m8.4765 295.94-0.013938 0.78939"/><path d="m9.1365 295.94-0.013938 0.78939"/><path d="m9.7966 295.94-0.013938 0.78939"/><path d="m10.457 295.94-0.01394 0.78939"/><path d="m11.117 295.94-0.01393 0.78939"/><g transform="translate(-4.3735e-8 -4.4979)"><path d="m8.4765 295.94-0.013938 0.78939"/><path d="m9.1365 295.94-0.013938 0.78939"/><path d="m9.7966 295.94-0.013938 0.78939"/><path d="m10.457 295.94-0.01394 0.78939"/><path d="m11.117 295.94-0.01393 0.78939"/></g><g transform="rotate(-90 7.5407 296.34)"><path d="m8.4765 295.94-0.013938 0.78939"/><path d="m9.1365 295.94-0.013938 0.78939"/><path d="m9.7966 295.94-0.013938 0.78939"/><path d="m10.457 295.94-0.01394 0.78939"/><path d="m11.117 295.94-0.01393 0.78939"/></g><g transform="rotate(-90 9.7897 294.09)"><path d="m8.4765 295.94-0.013938 0.78939"/><path d="m9.1365 295.94-0.013938 0.78939"/><path d="m9.7966 295.94-0.013938 0.78939"/><path d="m10.457 295.94-0.01394 0.78939"/><path d="m11.117 295.94-0.01393 0.78939"/></g></g></g></g></svg>
