<?xml version="1.0" encoding="UTF-8"?>
<svg version="1.1" viewBox="0 0 22 22" xmlns="http://www.w3.org/2000/svg"><g transform="translate(-326 -534.36)"><g fill="#cf000f"><rect x="276.23" y="514.7" width="0" height="14.668"/><rect x="283.19" y="537.27" width="0" height="14.668"/><rect x="285" y="536.21" width="0" height="14.668"/><rect x="276.23" y="514.7" width="0" height="14.668"/><rect x="283.19" y="537.27" width="0" height="14.668"/><rect x="285" y="536.21" width="0" height="14.668"/><rect x="276.23" y="514.7" width="0" height="14.668"/><rect x="283.19" y="537.27" width="0" height="14.668"/><rect x="285" y="536.21" width="0" height="14.668"/><rect x="276.23" y="514.7" width="0" height="14.668"/><rect x="283.19" y="537.27" width="0" height="14.668"/><rect x="285" y="536.21" width="0" height="14.668"/><rect x="293.38" y="518.48" width="0" height="14.668"/><rect x="300.34" y="541.05" width="0" height="14.668"/><rect x="302.16" y="539.99" width="0" height="14.668"/></g><path d="m335.76 535.36c-2.3099 0-3.2779 0.88296-3.2779 3.1372v3.0518c0 1.3922-0.0444 3.0054-1.3203 3.0054h-0.66015v1.6113h0.66015c1.2759 0 1.3203 1.6131 1.3203 3.0054v3.0518c0 2.2542 0.96804 3.1372 3.2779 3.1372v-1.4795c-1.5399 0-1.5615-0.59792-1.5615-2.7637v-2.5195c0-1.0386-0.26613-2.5842-1.5641-3.2251 1.298-0.64087 1.5641-2.1888 1.5641-3.2276v-2.5415c0-2.1658 0.0216-2.7637 1.5615-2.7637zm2.4629 0v1.4795c1.5399 0 1.5818 0.59792 1.5818 2.7637v2.5415c0 1.0388 0.26612 2.5867 1.5641 3.2276-1.2979 0.64088-1.5641 2.1865-1.5641 3.2251v2.5195c0 2.1658-0.0419 2.7637-1.5818 2.7637v1.4795c2.3099 0 3.2982-0.88296 3.2982-3.1372v-3.0518c0-1.3922 0.0891-3.0054 1.3432-3.0054h0.6373v-1.6113h-0.6373c-1.2539 0-1.3432-1.6131-1.3432-3.0054v-3.0518c0-2.2542-0.98836-3.1372-3.2982-3.1372z" fill="#cf74e0"/></g></svg>
