<?xml version="1.0" encoding="UTF-8"?>
<svg version="1.1" viewBox="0 0 22 22" xmlns="http://www.w3.org/2000/svg"><g transform="translate(-326 -534.36)"><g fill="#6c7a89"><rect x="326.5" y="535.99" width="0" height="11"/><rect x="321.94" y="538.51" width="0" height="11"/><rect x="317.44" y="526.09" width="0" height="11"/></g><path d="m339.64 542.1c0.0248-0.1964 0.0434-0.39587 0.0434-0.5984 0-0.20255-0.0185-0.40201-0.0434-0.5984l1.3113-1.0158c0.1178-0.0921 0.15191-0.25777 0.0744-0.39279l-1.24-2.1266c-0.0776-0.13195-0.23869-0.18719-0.37819-0.13195l-1.5438 0.61681c-0.31931-0.24243-0.66963-0.44803-1.0478-0.60454l-0.2325-1.6264c-0.028-0.14423-0.15502-0.25777-0.31002-0.25777h-2.48c-0.15502 0-0.28211 0.11349-0.30692 0.25777l-0.2325 1.6264c-0.37821 0.15651-0.72853 0.35904-1.0478 0.60454l-1.5438-0.61681c-0.13949-0.0522-0.3007 0-0.37819 0.13195l-1.24 2.1266c-0.0775 0.13194-0.0434 0.29766 0.0746 0.39279l1.3082 1.0158c-0.0247 0.19639-0.0434 0.39585-0.0434 0.5984 0 0.20253 0.0185 0.402 0.0434 0.5984l-1.3082 1.0158c-0.1178 0.0921-0.1519 0.25777-0.0746 0.39279l1.24 2.1266c0.0775 0.13196 0.2387 0.1872 0.37819 0.13196l1.5438-0.61682c0.31929 0.24243 0.66961 0.44803 1.0478 0.60455l0.2325 1.6264c0.0249 0.14423 0.1519 0.25779 0.30692 0.25779h2.48c0.155 0 0.28211-0.1135 0.30691-0.25779l0.23251-1.6264c0.3782-0.15652 0.72851-0.35906 1.0478-0.60455l1.5438 0.61682c0.13951 0.0522 0.30072 0 0.3782-0.13196l1.24-2.1266c0.0775-0.13196 0.0434-0.29766-0.0745-0.39279l-1.3082-1.0158zm-4.6067 1.5497c-1.1997 0-2.17-0.96051-2.17-2.1481 0-1.1876 0.97033-2.1481 2.17-2.1481 1.1997 0 2.1701 0.9605 2.1701 2.1481s-0.97032 2.1481-2.1701 2.1481z" fill="#eff0f1" stroke-width="1.2522"/><path d="m343.19 552.94c0.0856-0.1176 0.16815-0.23934 0.23992-0.36949 0.0717-0.13016 0.13048-0.26481 0.18413-0.39964l1.2026-0.1975c0.10836-0.0183 0.18895-0.11287 0.18698-0.22661l-0.0434-1.7972c-2e-3 -0.11175-0.0871-0.20318-0.19631-0.21611l-1.2107-0.13961c-0.11932-0.26667-0.2716-0.52042-0.4592-0.75231l0.42685-1.126c0.0332-0.10241-7e-3 -0.21949-0.10786-0.2733l-1.5938-0.86105c-0.0995-0.0538-0.22153-0.0249-0.28858 0.0592l-0.72569 0.96452c-0.29851-0.0308-0.59541-0.0222-0.8876 0.0247l-0.77361-0.93241c-0.0711-0.082-0.19324-0.1044-0.28981-0.0465l-1.5504 0.93616c-0.0966 0.0578-0.13337 0.17625-0.0913 0.27828l0.48086 1.107c-0.0856 0.11761-0.16815 0.23933-0.23993 0.3695-0.0717 0.13016-0.13048 0.26481-0.18412 0.39964l-1.2006 0.19858c-0.10836 0.0183-0.18895 0.11287-0.18699 0.2266l0.0434 1.7972c2e-3 0.11175 0.0871 0.20318 0.1963 0.21612l1.2107 0.1396c0.1193 0.26666 0.27157 0.52042 0.4592 0.7523l-0.42686 1.126c-0.0352 0.10128 6e-3 0.2184 0.10584 0.27221l1.5938 0.86106c0.0995 0.0538 0.22152 0.0249 0.28857-0.0592l0.72569-0.96453c0.29853 0.0308 0.59541 0.0222 0.88759-0.0247l0.77362 0.93241c0.0711 0.082 0.19327 0.1044 0.28982 0.0465l1.5504-0.93617c0.0966-0.0579 0.13337-0.17624 0.0913-0.27827zm-3.5096-0.60347c-0.77101-0.41652-1.0543-1.3707-0.63349-2.1339 0.42078-0.76323 1.3847-1.0436 2.1557-0.6271s1.0543 1.3707 0.63349 2.1339c-0.42079 0.76324-1.3847 1.0436-2.1557 0.62709z" fill="#eff0f1" stroke-width="1.2522"/></g></svg>
