<?xml version="1.0" encoding="UTF-8"?>
<svg version="1.1" viewBox="0 0 22 22" xmlns="http://www.w3.org/2000/svg"><g transform="translate(-326 -534.36)"><g fill="#16907d"><rect x="256.23" y="514.7" width="0" height="14.668"/><rect x="263.19" y="537.27" width="0" height="14.668"/><rect x="265" y="536.21" width="0" height="14.668"/><rect x="256.23" y="514.7" width="0" height="14.668"/><rect x="263.19" y="537.27" width="0" height="14.668"/><rect x="265" y="536.21" width="0" height="14.668"/><rect x="256.23" y="514.7" width="0" height="14.668"/><rect x="263.19" y="537.27" width="0" height="14.668"/><rect x="265" y="536.21" width="0" height="14.668"/><rect x="256.23" y="514.7" width="0" height="14.668"/><rect x="263.19" y="537.27" width="0" height="14.668"/><rect x="265" y="536.21" width="0" height="14.668"/><rect x="273.38" y="518.48" width="0" height="14.668"/><rect x="280.34" y="541.05" width="0" height="14.668"/><rect x="282.16" y="539.99" width="0" height="14.668"/></g><path d="m333.25 535.36v4.9999h1.25v-4.9999zm2.5 1.25v3.75h1.25v-3.75zm-5 1.25v2.5h1.25v-2.5zm7.5 0v2.5h1.25v-2.5zm-10 1.25v1.25h1.25v-1.25zm12.5 0v1.25h1.25v-1.25zm-13.75 2.5v7.4999a5 4.9867 0 0 0 0 0.0125 5 4.9867 0 0 0 5 4.9877h-3.75v1.25h13.75v-1.25h-3.75a5 4.9867 0 0 0 5-4.9877 5 4.9867 0 0 0 0-0.0125h2.5c0.69251 0 1.25-0.55748 1.25-1.25v-3.75c0-0.6925-0.55749-1.25-1.25-1.25h-2.5v-1.25zm1.25 1.25h13.75v6.2499a3.75 3.7499 0 0 1-3.75 3.75h-6.25a3.75 3.7499 0 0 1-3.75-3.75zm15 1.25h2.5v3.75h-2.5z" fill="#f27935" stroke-width="7.4999"/></g></svg>
