<?xml version="1.0" encoding="UTF-8"?>
<svg width="22" height="22" preserveAspectRatio="xMinYMin meet" version="1.1" viewBox="0 0 2.2528 2.2525" xmlns="http://www.w3.org/2000/svg"><path d="m0.91531 0.37935c0.001864 0.011112-0.003728 0.020378-0.022352 0.029637-0.024216-0.012965-0.076384-0.020378-0.11922-0.016672-0.046576 0.003707-0.085696 0.018525-0.080104 0.050008 0.007448 0.03149 0.05216 0.050016 0.13226 0.042602 0.1956-0.016672 0.19374-0.14818 0.48062-0.17411 0.22354-0.02037 0.34835 0.048162 0.36512 0.13151 0.01304 0.064826-0.040984 0.12781-0.20306 0.14077-0.14344 0.012965-0.22727-0.02593-0.23472-0.064826-0.00373-0.020378 0.00745-0.050016 0.076375-0.057421 0.00745 0.03149 0.046576 0.064826 0.13972 0.055568 0.067065-0.00556 0.12294-0.029637 0.1155-0.066679-0.00745-0.038896-0.07824-0.061128-0.19002-0.051861-0.22727 0.02037-0.28315 0.14447-0.4769 0.16114-0.13785 0.012965-0.24962-0.037058-0.26453-0.11114-0.005585-0.027784-0.005585-0.09261 0.13972-0.10558 0.074512-0.00556 0.13413 0.007405 0.14158 0.037042zm-0.72652 0.77422c-0.063336 0.079645-0.09128 0.17225-0.085696 0.26301 0.005592 0.090757 0.050296 0.16484 0.12109 0.22226 0.074512 0.057413 0.15462 0.074085 0.2459 0.057413 0.035392-0.00555 0.074512-0.024077 0.1099-0.035189-0.074512 0-0.13785-0.024077-0.20119-0.074085-0.06892-0.050016-0.1155-0.12039-0.12667-0.2056-0.016768-0.079645 0-0.15373 0.044712-0.21856 0.050296-0.062973 0.1155-0.09817 0.20118-0.10928 0.085696-0.00555 0.16021 0.016672 0.23472 0.068533-0.01676-0.024077-0.040976-0.040749-0.063328-0.062973-0.07452-0.050016-0.15462-0.074093-0.25336-0.050016-0.089416 0.018533-0.16393 0.064826-0.22726 0.14448zm0.9985-0.42786c-0.24032 0-0.45454-0.024077-0.60917-0.057421-0.16579-0.040749-0.25335-0.085197-0.25335-0.14262 0-0.024077 0.011184-0.044456 0.04472-0.068533-0.10433 0.040749-0.16022 0.074093-0.16022 0.12595 0.005592 0.057413 0.098736 0.11483 0.28874 0.15929 0.17884 0.044448 0.40798 0.068525 0.68368 0.068525 0.2813 0 0.50484-0.024077 0.68368-0.068525 0.19001-0.044456 0.28129-0.10372 0.28129-0.15929 0-0.040749-0.040984-0.079645-0.1155-0.10928 0.016768 0.011112 0.029808 0.029637 0.029808 0.050008 0 0.057421-0.085696 0.10372-0.25894 0.14262-0.16021 0.035197-0.36512 0.059274-0.61474 0.059274zm0.68554 0.15929c-0.17884 0.040749-0.40797 0.068533-0.68368 0.068533-0.28129 0-0.51042-0.029637-0.68926-0.068533-0.16021-0.040749-0.24589-0.085205-0.2757-0.13151 0.029808 0.20004 0.098736 0.38896 0.19002 0.55566 0.068928 0.10372 0.13785 0.19448 0.20678 0.29265 0.029808 0.057413 0.050296 0.11483 0.063336 0.17225 0.044712 0.062973 0.10992 0.10372 0.19002 0.12595 0.098736 0.035189 0.20119 0.050008 0.30552 0.044457h0.011168c0.10432 0.00555 0.21424-0.011121 0.31483-0.044457 0.074512-0.024077 0.13785-0.062973 0.18442-0.12595h0.00558c0.011178-0.057429 0.02981-0.11484 0.057754-0.17225 0.068928-0.09817 0.13786-0.18893 0.20678-0.29265 0.09128-0.16485 0.15462-0.35377 0.19002-0.55566-0.037256 0.051861-0.12295 0.096317-0.27757 0.13151z" fill="#232629" stroke-width=".007977"/></svg>
