<?xml version="1.0" encoding="UTF-8"?>
<svg width="48" height="48" enable-background="new 0 0 512 512" version="1.1" viewBox="0 0 48 48" xml:space="preserve" xmlns="http://www.w3.org/2000/svg">
<rect y="8" width="48" height="32" fill="#6da544" stroke-width=".093749"/>
<g transform="matrix(.09375 0 0 .093748 0 .0003755)" fill="#f0f0f0">
	<path d="m183.55 289.39c0 12.295 9.731 22.261 21.736 22.261h65.208c0 10.244 8.11 18.551 18.114 18.551h21.736c10.004 0 18.114-8.306 18.114-18.551v-22.261h-144.91z"/>
	<path d="m330.26 181.79v51.942c0 8.183-6.5 14.84-14.491 14.84v22.261c19.976 0 36.226-16.643 36.226-37.101v-51.942z"/>
	<path d="m174.49 233.73c0 8.183-6.5 14.84-14.491 14.84v22.261c19.976 0 36.226-16.643 36.226-37.101v-51.942h-21.736v51.942z"/>
	<rect x="297.66" y="181.79" width="21.736" height="51.942"/>
	<path d="m265.06 211.47c0 2.046-1.625 3.71-3.623 3.71s-3.623-1.664-3.623-3.71v-29.682h-21.736v29.682c0 2.046-1.625 3.71-3.623 3.71s-3.623-1.664-3.623-3.71v-29.682h-21.736v29.682c0 14.32 11.376 25.971 25.358 25.971 5.385 0 10.38-1.733 14.491-4.677 4.11 2.944 9.106 4.677 14.491 4.677 1.084 0 2.15-0.078 3.2-0.215-1.54 6.499-7.255 11.345-14.068 11.345v22.261c19.976 0 36.226-16.643 36.226-37.101v-51.943h-21.736z"/>
	<rect x="207.09" y="248.57" width="32.601" height="22.261"/>
</g>
</svg>
