<?xml version="1.0" encoding="UTF-8"?>
<svg width="48" height="48" enable-background="new 0 0 512 512" version="1.1" viewBox="0 0 48 48" xml:space="preserve" xmlns="http://www.w3.org/2000/svg">
<rect x=".052125" y="8.0005" width="47.948" height="32" fill="#6da544" stroke-width=".093801"/>
<polyline transform="matrix(.093751 0 0 .093851 0 -.025973)" points="0 315.3 511.44 315.3 511.44 85.52 511.44 85.52 0 85.52 0 85.52" fill="#a2001d"/>
<polygon transform="matrix(.093751 0 0 .093851 0 -.025973)" points="100.06 426.48 100.06 315.3 100.06 300.47 100.06 85.52 0 85.52 0 426.48 511.44 426.48" fill="#f0f0f0"/>
<g transform="matrix(.093751 0 0 .093851 0 -.025973)" fill="#a2001d">
	<polygon points="87.093 210.03 68.564 243.65 50.033 210.03 68.564 176.94"/>
	<polygon points="50.033 210.03 31.502 243.65 12.972 210.03 31.502 176.94"/>
	<polygon points="87.093 301.45 68.564 335.06 50.033 301.45 68.564 268.35"/>
	<polygon points="50.033 301.45 31.502 335.06 12.972 301.45 31.502 268.35"/>
	<polygon points="87.093 392.86 68.564 426.48 50.033 392.86 68.564 359.77"/>
	<polygon points="50.033 392.86 31.502 426.48 12.972 392.86 31.502 359.77"/>
	<polygon points="87.093 118.61 68.564 152.23 50.033 118.61 68.564 85.518"/>
	<polygon points="50.033 118.61 31.502 152.23 12.972 118.61 31.502 85.518"/>
</g>
</svg>
