<?xml version="1.0" encoding="UTF-8"?>
<svg width="48" height="48" version="1.1" viewBox="0 0 48 48" xml:space="preserve" xmlns="http://www.w3.org/2000/svg">
<rect y="8.0005" width="48" height="32" fill="#0052b4" stroke-width=".093749"/>
<polyline transform="matrix(.09375 0 0 .093748 0 .00061092)" points="99.905 85.329 441.24 85.329 441.24 426.66" fill="#ffda44"/>
<g transform="matrix(.09375 0 0 .093748 0 .00061092)" fill="#f0f0f0">
	<polygon points="66.271 100.63 61.292 85.33 41.525 85.33 36.561 100.64 51.404 89.838"/>
	<polygon points="97.527 131.89 91.843 114.42 106.7 103.62 88.332 103.63 82.649 86.16 76.977 103.63 58.612 103.64 73.479 114.44 67.818 131.9 82.661 121.1"/>
	<polygon points="128.78 163.15 123.1 145.67 137.96 134.88 119.59 134.89 113.91 117.42 108.23 134.89 89.868 134.9 104.74 145.7 99.074 163.16 113.92 152.35"/>
	<polygon points="160.04 194.4 154.36 176.93 169.21 166.14 150.85 166.15 145.16 148.67 139.49 166.15 121.13 166.16 135.99 176.95 130.33 194.41 145.17 183.61"/>
	<polygon points="191.3 225.66 185.61 208.19 200.47 197.39 182.1 197.4 176.42 179.93 170.75 197.4 152.38 197.41 167.25 208.21 161.59 225.67 176.43 214.86"/>
	<polygon points="222.55 256.92 216.87 239.44 231.72 228.65 213.36 228.66 207.68 211.19 202 228.66 183.64 228.67 198.5 239.47 192.84 256.93 207.69 246.12"/>
	<polygon points="253.81 288.17 248.13 270.7 262.98 259.91 244.62 259.92 238.93 242.44 233.26 259.92 214.9 259.93 229.76 270.72 224.1 288.18 238.94 277.38"/>
	<polygon points="285.07 319.43 279.38 301.96 294.24 291.16 275.87 291.17 270.19 273.7 264.52 291.17 246.15 291.18 261.02 301.98 255.36 319.44 270.2 308.64"/>
	<polygon points="316.32 350.69 310.64 333.21 325.5 322.42 307.13 322.43 301.45 304.96 295.77 322.43 277.41 322.44 292.28 333.24 286.61 350.7 301.46 339.89"/>
	<polygon points="347.58 381.94 341.9 364.47 356.75 353.68 338.39 353.69 332.7 336.21 327.03 353.69 308.67 353.7 323.53 364.49 317.87 381.96 332.71 371.15"/>
	<polygon points="378.84 413.2 373.15 395.73 388.01 384.93 369.64 384.94 363.96 367.47 358.29 384.94 339.92 384.96 354.79 395.75 349.13 413.21 363.97 402.4"/>
	<polygon points="395.22 398.73 389.54 416.2 371.18 416.21 385.57 426.66 404.85 426.66 419.26 416.19 400.9 416.2"/>
</g>
</svg>
