<?xml version="1.0" encoding="UTF-8"?>
<svg width="48" height="48" enable-background="new 0 0 512 512" version="1.1" viewBox="0 0 48 48" xml:space="preserve" xmlns="http://www.w3.org/2000/svg">
<rect y="8.0003" width="48" height="32" fill="#ffda44" stroke-width=".093749"/>
<g transform="matrix(.09375 0 0 .093747 0 .00053905)" fill="#d80027">
	<polygon points="256 252.29 282.83 426.66 383.88 426.66"/>
	<polygon points="256 252.29 230.31 85.33 133.56 85.33"/>
	<polygon points="256 252.29 128.12 426.66 229.17 426.66"/>
	<polygon points="28.333 85.33 0 85.33 0 212.9 256 252.29"/>
	<polygon points="0 291.67 0 426.66 18.212 426.66 256 252.29"/>
	<polygon points="483.67 85.33 256 252.29 512 212.9 512 85.33"/>
	<polygon points="256 252.29 378.43 85.33 281.69 85.33"/>
	<polygon points="493.79 426.66 512 426.66 512 291.67 256 252.29"/>
	<circle cx="256" cy="252.29" r="59.359"/>
</g>
<ellipse cx="24" cy="23.652" rx="4.1739" ry="4.1738" fill="#ffda44" stroke-width=".093749"/>
</svg>
