<?xml version="1.0" encoding="UTF-8"?>
<svg width="48" height="48" enable-background="new 0 0 512 512" version="1.1" viewBox="0 0 48 48" xml:space="preserve" xmlns="http://www.w3.org/2000/svg">
<rect y="8" width="48" height="32" fill="#f0f0f0" stroke-width=".09375"/>
<rect y="18.666" width="48" height="10.667" fill="#0052b4" stroke-width=".09375"/>
<rect y="29.333" width="48" height="10.667" fill="#d80027" stroke-width=".09375"/>
<path d="m21.901 18.435v1.391c0 3.1951-4.1739 4.1739-4.1739 4.1739s-4.1739-0.97875-4.1739-4.1739v-1.391l-0.01359-4.1426 8.3478-0.02494z" fill="#f0f0f0" stroke-width=".09375"/>
<path d="m21.901 18.435v1.391c0 3.1951-4.1739 4.1739-4.1739 4.1739s-4.1739-0.97875-4.1739-4.1739v-1.391l-0.01359-4.1426 8.3478-0.02494z" fill="#0052b4" stroke-width=".09375"/>
<path d="m21.901 18.435v1.391c0 3.1951-4.1739 4.1739-4.1739 4.1739s-4.1739-0.97875-4.1739-4.1739v-1.391l1.392 1.391 2.7819-2.087 2.783 2.087z" fill="#f0f0f0" stroke-width=".09375"/>
</svg>
