<?xml version="1.0" encoding="UTF-8"?>
<svg width="48" height="48" enable-background="new 0 0 512 512" version="1.1" viewBox="0 0 48 48" xml:space="preserve" xmlns="http://www.w3.org/2000/svg">
<rect y="8" width="48" height="32" fill="#d80027" stroke-width=".093749"/>
<path d="m33.043 19.875h-5.7953c0.35784-0.37462 0.57797-0.8817 0.57797-1.4407 0-1.1526-0.93431-2.0869-2.087-2.0869-0.72609 0-1.3653 0.37096-1.7392 0.93354-0.37388-0.56249-1.013-0.93354-1.7392-0.93354-1.1527 0-2.087 0.93429-2.087 2.0869 0 0.55902 0.22022 1.0661 0.57797 1.4407h-5.7953c0 1.5368 1.3386 2.7824 2.8753 2.7824h-0.09262c0 1.5368 1.2458 2.7826 2.7827 2.7826 0 0.49771 0.13116 0.96439 0.36019 1.3683l-2.308 2.3082 1.7708 1.7707 2.5119-2.5119c0.09844 0.03609 0.20025 0.06487 0.30534 0.08465l-1.5179 3.4272 2.3558 2.5469 2.3559-2.5469-1.5179-3.4272c0.10519-0.01969 0.20691-0.04856 0.30534-0.08465l2.5119 2.5119 1.7708-1.7707-2.3082-2.3082c0.22903-0.40396 0.36019-0.87055 0.36019-1.3683 1.5368 0 2.7827-1.2458 2.7827-2.7826h-0.09262c1.5368 9.4e-5 2.8754-1.2456 2.8754-2.7824z" stroke-width=".093749"/>
</svg>
