<?xml version="1.0" encoding="UTF-8"?>
<svg width="48" height="48" enable-background="new 0 0 512 512" version="1.1" viewBox="0 0 48 48" xml:space="preserve" xmlns="http://www.w3.org/2000/svg">
<rect y="8" width="48" height="32" fill="#0052b4" stroke-width=".093749"/>
<rect y="8" width="48" height="10.667" fill="#d80027" stroke-width=".093749"/>
<rect y="29.332" width="48" height="10.667" fill="#f0f0f0" stroke-width=".093749"/>
<path d="m12.138 17.043v7.9813c0 4.5401 5.9313 5.9312 5.9313 5.9312s5.9311-1.3912 5.9311-5.9312v-7.9813h-11.862z" fill="#d80027" stroke-width=".093749"/>
<g transform="matrix(.09375 0 0 .093748 0 .0003755)" fill="#ffda44">
	<polygon points="155.63 196.63 229.84 196.63 229.84 166.95 214.99 174.37 192.73 152.11 170.47 174.37 155.63 166.95"/>
	<polygon points="192.93 230.55 144.7 278.78 160.44 294.52 192.93 262.03 225.42 294.52 241.16 278.78"/>
</g>
<path d="m22.609 21.912h-2.1098c0.11869-0.20475 0.18759-0.44184 0.18759-0.69542 0-0.76836-0.62297-1.3912-1.3912-1.3912-0.53091 0-0.99197 0.29737-1.2265 0.73461-0.23456-0.43715-0.69572-0.73461-1.2265-0.73461-0.76828 0-1.3912 0.62286-1.3912 1.3912 0 0.25368 0.069 0.49077 0.18759 0.69542h-2.0732c0 0.76836 0.66928 1.3912 1.4376 1.3912h-0.04631c0 0.76836 0.62288 1.3912 1.3912 1.3912 0 0.68033 0.48853 1.2455 1.1338 1.3665l-1.0963 2.475c0.52528 0.21356 1.0994 0.33224 1.7015 0.33224 0.60206 0 1.1761-0.11868 1.7015-0.33224l-1.0963-2.475c0.64528-0.12094 1.1338-0.68614 1.1338-1.3665 0.76838 0 1.3912-0.62286 1.3912-1.3912h-0.04631c0.76866 0 1.4379-0.62286 1.4379-1.3912z" fill="#f0f0f0" stroke-width=".093749"/>
</svg>
