<?xml version="1.0" encoding="UTF-8"?>
<svg width="48" height="48" enable-background="new 0 0 512 512" version="1.1" viewBox="0 0 48 48" xml:space="preserve" xmlns="http://www.w3.org/2000/svg">

	<rect y="8" width="48" height="32" fill="#f0f0f0" stroke-width=".09375"/>

<polygon transform="matrix(.09375 0 0 .093751 0 -.00042211)" points="0 85.337 512 85.337 512 256 256 256" fill="#0052b4"/>
<polygon transform="matrix(.09375 0 0 .093751 0 -.00042211)" points="256 256 512 256 512 426.66 0 426.66" fill="#d80027"/>
<g transform="matrix(.09375 0 0 .093751 0 -.00042211)" fill="#ffda44">
	<polygon points="70.731 222.4 41.1 216.74 55.631 243.16 28.343 256 55.631 268.84 41.1 295.26 70.733 289.6 74.486 319.53 95.125 297.51 115.76 319.53 119.52 289.6 149.15 295.26 134.62 268.84 161.91 256 134.62 243.16 149.15 216.74 119.52 222.4 115.76 192.47 95.125 214.49 74.486 192.47"/>
	<polygon points="21.602 142.86 6.793 137.93 21.673 133.22 21.789 117.61 30.87 130.3 45.749 125.59 36.481 138.15 45.562 150.84 30.753 145.91 21.485 158.47"/>
	<polygon points="21.602 378.78 6.793 373.85 21.673 369.14 21.789 353.53 30.87 366.23 45.749 361.51 36.481 374.07 45.562 386.77 30.753 381.83 21.485 394.39"/>
	<polygon points="210.58 260.82 225.39 255.89 210.51 251.18 210.4 235.57 201.31 248.26 186.44 243.55 195.7 256.11 186.62 268.81 201.43 263.87 210.7 276.43"/>
</g>
</svg>
