<?xml version="1.0" encoding="UTF-8"?>
<svg width="48" height="48" enable-background="new 0 0 512 512" version="1.1" viewBox="0 0 48 48" xml:space="preserve" xmlns="http://www.w3.org/2000/svg">
<rect y="8" width="48" height="32" fill="#d80027" stroke-width=".09375"/>
<g transform="matrix(.09375 0 0 .093751 0 -.00042252)" fill="#f0f0f0">
	<polygon points="247.18 265.26 218.7 255.98 247.19 246.74 247.21 216.79 264.81 241.03 293.3 231.79 275.68 256.02 293.27 280.26 264.79 270.99 247.17 295.21"/>
	<path d="m199.2 316.6c-33.469 0-60.602-27.133-60.602-60.602s27.133-60.602 60.602-60.602c10.436 0 20.254 2.639 28.827 7.284-13.448-13.152-31.84-21.269-52.135-21.269-41.193 0-74.586 33.394-74.586 74.586s33.394 74.586 74.586 74.586c20.295 0 38.687-8.117 52.135-21.269-8.572 4.647-18.391 7.286-28.827 7.286z"/>
</g>
</svg>
