<?xml version="1.0" encoding="UTF-8"?>
<svg width="48" height="48" enable-background="new 0 0 512 512" version="1.1" viewBox="0 0 48 48" xml:space="preserve" xmlns="http://www.w3.org/2000/svg">
<rect y="8" width="48" height="32" fill="#d80027" stroke-width=".093749"/>
<g transform="matrix(.09375 0 0 .093748 -9.0788 -6.2874)" fill="#ffda44">
	<polygon points="241.01 234.67 202.64 262.55 217.29 307.66 178.92 279.78 140.55 307.66 155.21 262.55 116.84 234.67 164.27 234.67 178.92 189.57 193.58 234.67"/>
	<polygon points="242.52 339.59 248.02 322.68 233.63 312.22 251.41 312.22 256.91 295.31 262.41 312.22 280.19 312.22 265.8 322.68 271.3 339.59 256.91 329.14"/>
	<polygon points="285.56 304.84 280.06 287.93 262.27 287.93 276.66 277.47 271.17 260.56 285.56 271.01 299.94 260.56 294.45 277.47 308.84 287.93 291.05 287.93"/>
	<polygon points="299.94 251.43 285.56 240.98 271.17 251.43 276.66 234.52 262.27 224.06 280.06 224.06 285.56 207.15 291.05 224.06 308.84 224.06 294.45 234.52"/>
	<polygon points="280.19 199.77 262.41 199.77 256.91 216.68 251.41 199.77 233.63 199.77 248.02 189.31 242.52 172.4 256.91 182.85 271.3 172.4 265.8 189.31"/>
</g>
</svg>
