<?xml version="1.0" encoding="UTF-8"?>
<svg width="48" height="48" version="1.1" viewBox="0 0 12.7 12.7" xmlns="http://www.w3.org/2000/svg">
 <g transform="translate(0 -284.3)">
  <g transform="matrix(.13599 0 0 .13437 -17.402 257.84)" stroke="#232629" stroke-width="1.0102">
   <path transform="matrix(.26458 0 0 .26458 0 191.17)" d="m695.31 204.03c-21.035-21.821-27.856-39.687-25.07-65.672 2.2764-21.236 7.8317-35.343 18.712-47.518 10.959-12.263 22.952-18.884 38.841-21.441 6.347-1.0216 8.9576-0.97132 15.657 0.30139 17.292 3.2848 25.48 8.542 33.695 21.635 2.4268 3.8676 5.3216 7.5998 6.433 8.2939 1.1113 0.69404 9.9928 3.0405 19.737 5.2143 9.7438 2.1738 17.874 4.1104 18.067 4.3035s-2.9664 0.63158-7.0213 0.97434c-8.9917 0.76008-22.765 4.6483-32.66 9.2198-24.296 11.225-38.436 27.24-66.049 74.804-5.1606 8.8894-9.9234 16.747-10.584 17.462-0.95777 1.0363-2.935-0.49908-9.7591-7.578zm53.93-84.948c7.6619-7.6619 2.5452-21.368-8.598-23.031-10.024-1.4961-18.547 11.823-13.276 20.746 4.415 7.474 15.525 8.6348 21.874 2.2855z" fill="#ff6e00"/>
   <path transform="matrix(.26458 0 0 .26458 0 191.17)" d="m555.26 377.49c0.29382-0.83338 3.5257-8.8356 7.1819-17.783s9.3498-23.721 12.652-32.83 6.3206-17.358 6.7066-18.33c0.55133-1.3886 1.9246-1.7715 6.4022-1.7853 13.901-0.0428 28.333-5.4423 37.888-14.175 3.0092-2.7502 5.9067-5.0004 6.4389-5.0004 0.5322 0 1.7975 1.8403 2.8118 4.0896 2.1552 4.7794 3.6325 2.8308-12.649 16.685-15.333 13.047-45.622 43.587-56.036 56.502-10.433 12.938-12.195 14.89-11.397 12.627z" fill="#ff6e00"/>
   <path transform="matrix(.26458 0 0 .26458 0 191.17)" d="m688.86 312.76c-11.807-4.1528-25.978-15.816-34.805-28.646-4.6453-6.7516-10.701-20.014-13.869-30.37-2.668-8.7243-2.7816-9.9887-2.8122-31.315-0.0293-20.416 0.15679-22.824 2.2883-29.607 2.5149-8.0034 10.205-25.446 11.219-25.446 0.34365 0 2.5446 4.432 4.891 9.849 12.529 28.925 27.833 47.246 56.321 67.426 17.002 12.044 24.141 18.568 27.441 25.08 7.375 14.554 0.76067 32.945-14.967 41.616-5.0162 2.7657-6.2697 2.999-17.524 3.2623-10.229 0.23925-13.068-0.0493-18.183-1.8483z" fill="#0cf"/>
   <path transform="matrix(.26458 0 0 .26458 0 191.17)" d="m583.18 286.19c-8.7118-3.1132-16.94-10.624-21.503-19.628-1.4052-2.7731-3.3294-8.9836-4.276-13.801-1.4695-7.4792-1.5495-10.047-0.54718-17.576 1.3397-10.062 4.7102-20.719 9.2248-29.166 9.4933-17.763 28.103-35.519 45.83-43.728 7.2044-3.3362 21.564-7.7076 22.44-6.8313 0.32735 0.32735-1.2676 4.3002-3.5444 8.8285-4.6161 9.181-9.2031 22.169-11.823 33.478-1.3889 5.9946-1.6708 11.222-1.4117 26.178 0.77303 44.62 0.77417 44.586-1.6208 49.061-6.115 11.427-20.965 17.402-32.769 13.184z" fill="#6c0"/>
   <path transform="matrix(.26458 0 0 .26458 0 191.17)" d="m517.46 210.47c-13.32-3.743-20.716-17.39-18.08-33.357 3.4129-20.666 21.13-38.102 46.665-45.926 21.935-6.7208 47.585-4.5524 67.056 5.6689l4.0406 2.1211-4.5457 1.7742c-6.5257 2.547-20.525 9.8926-25.895 13.587-10.987 7.5592-21.426 18.539-32.881 34.583-8.7048 12.192-13.026 17.112-17.406 19.819-4.2457 2.624-12.945 3.4176-18.954 1.7292z" fill="#fc0"/>
   <path transform="matrix(.26458 0 0 .26458 0 191.17)" d="m618.88 119.28c-18.625-9.2704-28.21-10.912-58.37-9.995-20.376 0.61944-23.788 0.50051-27.26-0.95041-8.2354-3.441-12.908-10.971-12.916-20.814-0.0156-20.521 26.82-33.593 52.355-25.504 24.003 7.6043 45.37 28.482 52.668 51.462 1.3577 4.2755 2.3363 8.2657 2.1746 8.8672-0.16813 0.6253-3.8728-0.68778-8.6519-3.0666z" fill="#c09"/>
   <path transform="matrix(.26458 0 0 .26458 0 191.17)" d="m646.56 118.89c-0.30018-0.83338-1.2809-4.4699-2.1794-8.0812-2.1021-8.4489-9.5471-24.225-14.516-30.761-2.1326-2.8048-8.5373-10.1-14.233-16.211-15.152-16.258-16.807-21.6-10.015-32.311 6.0999-9.6186 19.627-12.288 30.974-6.1121 8.4861 4.6187 17.088 14.201 20.91 23.293 4.7437 11.285 6.1856 32.184 3.1297 45.36-2.6376 11.373-12.589 28.931-14.069 24.823z" fill="#069"/>
  </g>
 </g>
</svg>
