<?xml version="1.0" encoding="UTF-8"?>
<svg id="a" version="1.0" viewBox="0 0 16 16" xmlns="http://www.w3.org/2000/svg"><g id="b" transform="matrix(.062497 0 0 .062497 -5.0621 -10.085)"><g id="c" transform="matrix(8.259,0,0,8.259,-1246.1,-3046.4)"><path id="d" transform="matrix(1.2678,1.7357,-1.7357,1.2678,187.63,395.98)" d="m3.8498 13-5.7925 0.92859-4.7525-3.4393-0.92859-5.7925 3.4393-4.7525 5.7925-0.92859 4.7525 3.4393 0.92859 5.7925z" fill="#fff" stroke="#000" stroke-linecap="square" stroke-width=".23263"/><path id="e" transform="matrix(1.1488,1.5728,-1.5728,1.1488,186.64,396.59)" d="m3.8498 13-5.7925 0.92859-4.7525-3.4393-0.92859-5.7925 3.4393-4.7525 5.7925-0.92859 4.7525 3.4393 0.92859 5.7925z" fill="#f00"/><path id="f" transform="matrix(.96443 0 0 1.2232 150.79 384.56)" d="m19.535 18.613h-3.5273l-0.55664 1.5938h-2.2676l3.2402-8.748h2.6895l3.2402 8.748h-2.2676zm-2.9648-1.623h2.3965l-1.1953-3.4805zm10.441-2.1445c0.35546 5e-6 0.625-0.07812 0.80859-0.23438 0.18359-0.15624 0.27538-0.38671 0.27539-0.69141-6e-6 -0.30078-0.0918-0.53027-0.27539-0.68848-0.1836-0.1582-0.45313-0.2373-0.80859-0.2373h-1.248v1.8516zm0.07617 3.8262c0.45312 1e-6 0.79394-0.0957 1.0225-0.28711 0.22851-0.1914 0.34277-0.48047 0.34277-0.86719-6e-6 -0.3789-0.11329-0.66308-0.33984-0.85254-0.22657-0.18945-0.56836-0.28418-1.0254-0.28418h-1.3242v2.291zm2.0977-3.1465c0.48437 0.14063 0.85937 0.4004 1.125 0.7793 0.26562 0.37891 0.39843 0.84375 0.39844 1.3945-8e-6 0.84375-0.28516 1.4727-0.85547 1.8867-0.57032 0.41406-1.4375 0.62109-2.6016 0.62109h-3.7441v-8.748h3.3867c1.2148 9e-6 2.0947 0.1836 2.6396 0.55078 0.54491 0.3672 0.81738 0.95509 0.81738 1.7637-8e-6 0.42579-0.09962 0.78809-0.29883 1.0869-0.19923 0.29883-0.48829 0.52051-0.86719 0.66504zm3.4629-4.0664h3.7441c1.1133 9e-6 1.9678 0.24708 2.5635 0.74121 0.5957 0.49415 0.89355 1.1982 0.89355 2.1123-8e-6 0.91797-0.29786 1.624-0.89355 2.1182-0.59571 0.49414-1.4502 0.74121-2.5635 0.74121h-1.4883v3.0352h-2.2559zm2.2559 1.6348v2.4434h1.248c0.4375 5e-6 0.77538-0.10644 1.0137-0.31934 0.23828-0.21288 0.35742-0.51464 0.35742-0.90527-6e-6 -0.39062-0.11915-0.6914-0.35742-0.90234-0.23829-0.21093-0.57618-0.3164-1.0137-0.31641z" fill="#fff"/></g></g></svg>
