<?xml version="1.0" encoding="UTF-8"?>
<svg version="1.0" viewBox="0 0 16 16" xmlns="http://www.w3.org/2000/svg"><g transform="matrix(.062471 0 0 .062325 -5.0234 -9.9626)" fill="#fff"><g transform="matrix(8.259 0 0 8.259 -1246.1 -3046.4)" fill="#fff"><path transform="matrix(1.2678 1.7357 -1.7357 1.2678 187.63 395.98)" d="m3.8498 13-5.7925 0.92859-4.7525-3.4393-0.92859-5.7925 3.4393-4.7525 5.7925-0.92859 4.7525 3.4393 0.92859 5.7925z" stroke="#000" stroke-linecap="square" stroke-width=".23263"/><path transform="matrix(1.1488 1.5728 -1.5728 1.1488 186.64 396.59)" d="m3.8498 13-5.7925 0.92859-4.7525-3.4393-0.92859-5.7925 3.4393-4.7525 5.7925-0.92859 4.7525 3.4393 0.92859 5.7925z"/><path transform="matrix(.96443 0 0 1.2232 150.79 384.56)" d="m19.535 18.613h-3.5273l-0.55664 1.5938h-2.2676l3.2402-8.748h2.6895l3.2402 8.748h-2.2676zm-2.9648-1.623h2.3965l-1.1953-3.4805zm10.441-2.1445c0.35546 5e-6 0.625-0.07812 0.80859-0.23438 0.18359-0.15624 0.27538-0.38671 0.27539-0.69141-6e-6 -0.30078-0.0918-0.53027-0.27539-0.68848-0.1836-0.1582-0.45313-0.2373-0.80859-0.2373h-1.248v1.8516zm0.07617 3.8262c0.45312 1e-6 0.79394-0.0957 1.0225-0.28711 0.22851-0.1914 0.34277-0.48047 0.34277-0.86719-6e-6 -0.3789-0.11329-0.66308-0.33984-0.85254-0.22657-0.18945-0.56836-0.28418-1.0254-0.28418h-1.3242v2.291zm2.0977-3.1465c0.48437 0.14063 0.85937 0.4004 1.125 0.7793 0.26562 0.37891 0.39843 0.84375 0.39844 1.3945-8e-6 0.84375-0.28516 1.4727-0.85547 1.8867-0.57032 0.41406-1.4375 0.62109-2.6016 0.62109h-3.7441v-8.748h3.3867c1.2148 9e-6 2.0947 0.1836 2.6396 0.55078 0.54491 0.3672 0.81738 0.95509 0.81738 1.7637-8e-6 0.42579-0.09962 0.78809-0.29883 1.0869-0.19923 0.29883-0.48829 0.52051-0.86719 0.66504zm3.4629-4.0664h3.7441c1.1133 9e-6 1.9678 0.24708 2.5635 0.74121 0.5957 0.49415 0.89355 1.1982 0.89355 2.1123-8e-6 0.91797-0.29786 1.624-0.89355 2.1182-0.59571 0.49414-1.4502 0.74121-2.5635 0.74121h-1.4883v3.0352h-2.2559zm2.2559 1.6348v2.4434h1.248c0.4375 5e-6 0.77538-0.10644 1.0137-0.31934 0.23828-0.21288 0.35742-0.51464 0.35742-0.90527-6e-6 -0.39062-0.11915-0.6914-0.35742-0.90234-0.23829-0.21093-0.57618-0.3164-1.0137-0.31641z"/></g></g><g fill="#008000" stroke-width=".072811"><path d="m3.1049 13.032-2.099-2.0518 0.01356-5.8902 4.0679-4.1448 5.8759-0.046171 4.192 4.1857-0.0064 5.8228-4.1382 4.1813-5.8068-0.0052zm-0.31702-2.6699 0.13146-0.50903h1.7221l0.25013 1.0181h1.2063l-0.47359-1.618c-0.26048-0.8899-0.62673-2.1416-0.8139-2.7815l-0.34031-1.1635-0.67227-0.020911c-0.64078-0.019934-0.67558-0.013122-0.74276 0.14544-0.038768 0.091493-0.40145 1.3059-0.80595 2.6986s-0.75343 2.579-0.7754 2.6361c-0.032636 0.08483 0.071765 0.1038 0.5714 0.1038h0.61134zm6.7529 0.28996c0.47278-0.26404 0.68049-0.67165 0.68172-1.3378 0.001094-0.59426-0.14757-1.0168-0.44263-1.258l-0.19644-0.16056 0.15654-0.16667c0.2246-0.23914 0.31206-0.51723 0.31206-0.99226 0-0.5969-0.22483-1.0089-0.67504-1.2369-0.31346-0.15878-0.46309-0.17927-1.5492-0.21213l-1.2022-0.036375v5.6339l1.294-0.02524c1.2224-0.02385 1.3122-0.03537 1.6212-0.20795zm2.7713-0.71619v-0.93526l0.63791-0.037011c0.73812-0.04283 1.054-0.15606 1.387-0.49713 0.60129-0.61591 0.60137-2.0921 1.45e-4 -2.6613-0.46748-0.44259-0.63406-0.48653-1.9704-0.51977l-1.2211-0.030381v5.6161h1.1665z"/><path d="m3.272 8.6836c0-0.14085 0.46954-1.8116 0.50913-1.8116 0.03181 0 0.14834 0.4145 0.49576 1.7634 0.028935 0.11234-0.028049 0.12726-0.48606 0.12726-0.32513 0-0.51883-0.029525-0.51883-0.079085z"/><path d="m7.792 6.9084v-0.54539h0.43329c0.3651 0 0.45115 0.025439 0.54678 0.16162 0.16764 0.23873 0.14095 0.54479-0.065459 0.75067-0.1427 0.14234-0.25345 0.17849-0.54678 0.17849h-0.36783z"/><path d="m7.792 9.1711v-0.6993h0.42759c0.59904 0 0.81178 0.17079 0.81178 0.65169 0 0.53064-0.15558 0.67808-0.75575 0.71619l-0.48362 0.030717z"/><path d="m12.312 7.1164v-0.77365l0.45482 0.041134c0.57677 0.052164 0.78454 0.25139 0.78454 0.75226 0 0.26642-0.04042 0.36909-0.2131 0.54134-0.18459 0.18412-0.26751 0.21256-0.61969 0.21256h-0.40658z"/></g></svg>
