<?xml version="1.0" encoding="UTF-8"?>
<svg version="1.0" viewBox="0 0 22 22" xmlns="http://www.w3.org/2000/svg"><g transform="matrix(.08572 0 0 .085259 -6.9101 -13.539)" fill="#fff"><g transform="matrix(8.259 0 0 8.259 -1246.1 -3046.4)" fill="#fff"><path transform="matrix(1.2678 1.7357 -1.7357 1.2678 187.63 395.98)" d="m3.8498 13-5.7925 0.92859-4.7525-3.4393-0.92859-5.7925 3.4393-4.7525 5.7925-0.92859 4.7525 3.4393 0.92859 5.7925z" stroke="#000" stroke-linecap="square" stroke-width=".23263"/><path transform="matrix(1.1488 1.5728 -1.5728 1.1488 186.64 396.59)" d="m3.8498 13-5.7925 0.92859-4.7525-3.4393-0.92859-5.7925 3.4393-4.7525 5.7925-0.92859 4.7525 3.4393 0.92859 5.7925z"/><path transform="matrix(.96443 0 0 1.2232 150.79 384.56)" d="m19.535 18.613h-3.5273l-0.55664 1.5938h-2.2676l3.2402-8.748h2.6895l3.2402 8.748h-2.2676zm-2.9648-1.623h2.3965l-1.1953-3.4805zm10.441-2.1445c0.35546 5e-6 0.625-0.07812 0.80859-0.23438 0.18359-0.15624 0.27538-0.38671 0.27539-0.69141-6e-6 -0.30078-0.0918-0.53027-0.27539-0.68848-0.1836-0.1582-0.45313-0.2373-0.80859-0.2373h-1.248v1.8516zm0.07617 3.8262c0.45312 1e-6 0.79394-0.0957 1.0225-0.28711 0.22851-0.1914 0.34277-0.48047 0.34277-0.86719-6e-6 -0.3789-0.11329-0.66308-0.33984-0.85254-0.22657-0.18945-0.56836-0.28418-1.0254-0.28418h-1.3242v2.291zm2.0977-3.1465c0.48437 0.14063 0.85937 0.4004 1.125 0.7793 0.26562 0.37891 0.39843 0.84375 0.39844 1.3945-8e-6 0.84375-0.28516 1.4727-0.85547 1.8867-0.57032 0.41406-1.4375 0.62109-2.6016 0.62109h-3.7441v-8.748h3.3867c1.2148 9e-6 2.0947 0.1836 2.6396 0.55078 0.54491 0.3672 0.81738 0.95509 0.81738 1.7637-8e-6 0.42579-0.09962 0.78809-0.29883 1.0869-0.19923 0.29883-0.48829 0.52051-0.86719 0.66504zm3.4629-4.0664h3.7441c1.1133 9e-6 1.9678 0.24708 2.5635 0.74121 0.5957 0.49415 0.89355 1.1982 0.89355 2.1123-8e-6 0.91797-0.29786 1.624-0.89355 2.1182-0.59571 0.49414-1.4502 0.74121-2.5635 0.74121h-1.4883v3.0352h-2.2559zm2.2559 1.6348v2.4434h1.248c0.4375 5e-6 0.77538-0.10644 1.0137-0.31934 0.23828-0.21288 0.35742-0.51464 0.35742-0.90527-6e-6 -0.39062-0.11915-0.6914-0.35742-0.90234-0.23829-0.21093-0.57618-0.3164-1.0137-0.31641z"/></g></g><g fill="#808080" stroke-width=".099756"><path d="m4.2005 17.894-2.8542-2.7979v-8.0811l5.6507-5.6218h8.1055l5.6507 5.6218v8.0551l-5.6507 5.6218h-8.0479zm-0.39955-3.6184 0.17601-0.64661h2.357l0.15715 0.53757c0.086434 0.29566 0.15715 0.58664 0.15715 0.64661 0 0.07044 0.29849 0.10904 0.84324 0.10904h0.84324l-0.17904-0.62174c-0.098472-0.34196-0.59761-2.043-1.1092-3.7802l-0.93016-3.1584-1.919 0.0019898-1.0797 3.7046c-0.59385 2.0375-1.0778 3.7381-1.0754 3.7792 0.00238 0.04104 0.35946 0.07461 0.79351 0.07461h0.78918zm9.1037 0.45962c0.81098-0.36632 1.2127-1.164 1.1175-2.2188-0.05776-0.63964-0.38075-1.2925-0.73191-1.4794l-0.23503-0.12508 0.24881-0.2293c0.34084-0.31412 0.44722-0.64011 0.44464-1.3625-0.003016-0.85642-0.25934-1.3837-0.81558-1.6781-0.39424-0.20866-0.58596-0.232-2.1583-0.26275l-1.7256-0.033746v7.5767l1.7256-0.0022c1.4575-0.0019 1.7884-0.03056 2.1299-0.1848zm4.0473-1.1062v-1.2932l0.72526-5.91e-4c1.0177-8.18e-4 1.4528-0.14407 1.9284-0.63507 0.47448-0.48976 0.6475-0.98944 0.6475-1.87 0-0.86515-0.22727-1.4844-0.70103-1.91-0.53308-0.47892-0.91498-0.55707-2.7252-0.55771l-1.5756-5.427e-4v7.5603h1.7006z"/><path d="m4.4474 12.039c0-0.11181 0.57492-2.2623 0.66531-2.4886 0.068163-0.17065 0.061191-0.19057 0.51335 1.4673l0.30523 1.1191h-0.74194c-0.41955 0-0.74194-0.04251-0.74194-0.09782z"/><path d="m10.65 9.5003v-0.74608h0.5502c0.41682 0 0.5987 0.048232 0.75027 0.19896 0.2415 0.24016 0.26307 0.76159 0.04435 1.0721-0.13122 0.1863-0.24929 0.22109-0.75027 0.22109h-0.59454z"/><path d="m10.65 12.572v-0.95663l0.64457 0.04081c0.73824 0.04675 1.0036 0.22008 1.0973 0.71689 0.07476 0.39625-0.09835 0.92675-0.34529 1.0582-0.10064 0.05356-0.45603 0.09738-0.78976 0.09738h-0.60679z"/><path d="m16.952 9.8484v-0.99478h0.52794c0.3119 0 0.61733 0.062262 0.74638 0.15215 0.47022 0.32752 0.47022 1.3577 0 1.6853-0.12905 0.08989-0.43448 0.15215-0.74638 0.15215h-0.52794z"/></g></svg>
