<?xml version="1.0" encoding="UTF-8"?>
<svg version="1.1" viewBox="0 0 22 22" xmlns="http://www.w3.org/2000/svg"><defs><style type="text/css">.ColorScheme-Text {
        color:#eff0f1;
      }</style></defs><g fill="#232629"><path d="m2 13.222v5.5556h2.25v-5.5556h-2.25"/><path d="m6.5 13.222v7.7778h2.25v-7.7778h-2.25"/><path d="m11 13.222v3.3333h2.25v-3.3333h-2.25"/><path d="m15.5 13.222v3.3333h4.5v-3.3333h-4.5"/><g transform="matrix(.9 0 0 .92593 3.8 -960.45)"><path class="ColorScheme-Text" d="m8 1038.4c-1.662 0-3 1.338-3 3v3h-2v6h10v-6h-2v-3c0-1.662-1.338-3-3-3zm0 1c1.2465 0 2 0.5458 2 2v3h-4v-3c0-1.4542 0.75351-2 2-2zm-4 6h8v4h-8z" color="#eff0f1" fill="#232629"/></g></g></svg>
