<?xml version="1.0" encoding="UTF-8"?>
<svg viewBox="0 0 22 22" xmlns="http://www.w3.org/2000/svg"><style type="text/css">.ColorScheme-Text{color:#232629;}.ColorScheme-NegativeText{color:#da4453;}</style><path class="ColorScheme-NegativeText" d="m17 7a4 4 0 0 0-4 4 4 4 0 0 0 0.84375 2.4492l-0.003906 0.003906 0.033203 0.033203a4 4 0 0 0 0.66211 0.66211l0.011719 0.011718 0.001953-0.001953a4 4 0 0 0 2.4512 0.8418 4 4 0 0 0 4-4 4 4 0 0 0-0.84375-2.4492l0.003906-0.0039062-0.033203-0.033203a4 4 0 0 0-0.66211-0.66211l-0.011719-0.011719-0.001953 0.0019531a4 4 0 0 0-2.4512-0.8418zm0 1a3 3 0 0 1 1.7363 0.55664l-4.1777 4.1777a3 3 0 0 1-0.55859-1.7344 3 3 0 0 1 3-3zm2.4414 1.2656a3 3 0 0 1 0.55859 1.7344 3 3 0 0 1-3 3 3 3 0 0 1-1.7363-0.55664z" fill="currentColor"/><path class="ColorScheme-Text" d="m10.988 3-4.9883 4.9902v6.0195l4.9883 4.9902h1.0117v-16zm-7.9883 5v6h2v-6z" fill="currentColor"/></svg>
