<?xml version="1.0" encoding="UTF-8"?>
<svg width="22" height="22" version="1.1" viewBox="0 0 352 352" xmlns="http://www.w3.org/2000/svg"><defs><style type="text/css">.ColorScheme-Text {
        color:#eff0f1;
      }</style></defs><path class="ColorScheme-Text" d="m262.5 48-6.4962 11.312 67.008 116.69-67.008 116.69 6.4962 11.312 73.504-128-73.504-128" color="#eff0f1" fill="#232629"/><path class="ColorScheme-NegativeText" d="m144 48a128 128 0 0 0-128 128 128 128 0 0 0 128 128 128 128 0 0 0 128-128 128 128 0 0 0-128-128zm-48.917 64 48.917 48.917 48.917-48.917 15.083 15.083-48.917 48.917 48.917 48.917-15.083 15.083-48.917-48.917-48.917 48.917-15.083-15.083 48.917-48.917-48.917-48.917z" fill="#da4453"/></svg>
