<?xml version="1.0" encoding="UTF-8"?>
<svg version="1.1" viewBox="0 0 22 22" xmlns="http://www.w3.org/2000/svg"><defs><style type="text/css">.ColorScheme-Text {
        color:#eff0f1;
      }</style></defs><path class="ColorScheme-Text" d="m17.497 7-10.493 10.493h-0.0034177v3.5068h3.5068v-0.0034l10.493-10.493-0.00175-0.001706 0.00175-0.001706-3.5-3.5-0.0018 0.0017062-0.001618-0.0017167m-1.7483 2.9856 2.2661 2.2661-6.6394 6.6394v-1.3911h-1.75v-1.3911l6.1233-6.1233m-6.9983 6.9983v1.3911h1.75v1.3911l-0.35889 0.35889h-1.3911l-0.875-0.875v-1.3911l0.875-0.875" color="#eff0f1" fill="#232629"/><path class="ColorScheme-Text" d="m1 1v1h12v-1zm0 2v1h7v-1zm0 3v1h12v-1zm0 2v1h5v-1zm0 3v1h8v-1zm10 1v1h2v-1z" color="#eff0f1" fill="#232629"/></svg>
