<?xml version="1.0" encoding="UTF-8"?>
<svg version="1.1" viewBox="0 0 48 48" xmlns="http://www.w3.org/2000/svg" xmlns:xlink="http://www.w3.org/1999/xlink"><defs><linearGradient id="a"><stop stop-color="#79a8ca" offset="0"/><stop stop-color="#9ecbda" offset="1"/></linearGradient><linearGradient id="h" x1="44" x2="24" y1="44" y2="24" gradientTransform="matrix(1.1 0 0 1.1 382.17 497.4)" gradientUnits="userSpaceOnUse"><stop stop-color="#548eb5" offset="0"/><stop stop-color="#68a0c4" offset="1"/></linearGradient><linearGradient id="g" x1="4" x2="24" y1="44" y2="24" gradientTransform="matrix(1.1 0 0 1.1 382.17 497.47)" gradientUnits="userSpaceOnUse" xlink:href="#a"/><linearGradient id="f" x1="44" x2="24" y1="4" y2="24" gradientTransform="matrix(1.1 0 0 1.1 382.17 497.4)" gradientUnits="userSpaceOnUse"><stop stop-color="#41759c" offset="0"/><stop stop-color="#7faac8" offset="1"/></linearGradient><linearGradient id="e" x1="403.57" x2="420.57" y1="520.8" y2="537.8" gradientTransform="matrix(1.1 0 0 1.1 -40.857 -52.38)" gradientUnits="userSpaceOnUse" xlink:href="#b"/><linearGradient id="d" x1="402.57" x2="423.57" y1="517.8" y2="538.8" gradientTransform="matrix(1.1 0 0 1.1 -40.857 -52.38)" gradientUnits="userSpaceOnUse" xlink:href="#b"/><linearGradient id="c" x2="0" y1="530.8" y2="516.8" gradientTransform="matrix(1.1 0 0 1.1 -40.857 -52.38)" gradientUnits="userSpaceOnUse"><stop stop-color="#8bb3d0" offset="0"/><stop stop-color="#a9cfe4" offset="1"/></linearGradient><linearGradient id="i" x2="0" y1="543.8" y2="502.8" gradientTransform="matrix(1.045 0 0 1.045 -18.386 -23.571)" gradientUnits="userSpaceOnUse" xlink:href="#a"/><linearGradient id="b"><stop stop-color="#292c2f" offset="0"/><stop stop-opacity="0" offset="1"/></linearGradient></defs><g transform="translate(-384.57 -499.8)" stroke-width="1.1"><rect x="387.67" y="502.9" width="41.8" height="41.8" rx="20.9" fill="url(#i)"/><path d="m409.09 513.57c-0.28778 0-0.51992 0.23215-0.51992 0.51992 0 0.28778 0.23214 0.51992 0.51992 0.51992h18.76c0.0378 0 0.0719-0.0139 0.10747-0.0215l0.2552-0.6875-0.9427-0.33085z" fill="#649cc1" opacity=".8"/><g fill-rule="evenodd"><path d="m390.98 510.6c-2.7549 3.6741-4.4043 8.3028-4.4043 13.269 0 12.188 9.812 21.931 22 21.931l7.7-15.771-14.3-2.9288z" fill="url(#g)"/><path d="m409.67 513.9 6.6 16.06-7.7 15.84c12.188 0 22-9.812 22-22 0-3.5698-0.86019-6.9247-2.3568-9.9z" fill="url(#h)"/><path d="m415.94 517.2-14.74 13.2 14.041 14.371c6.528-2.0621 11.7-7.0793 14.008-13.492z" fill="url(#d)" opacity=".2"/><path d="m408.57 501.8c-7.222 0-13.589 3.4611-17.596 8.8043l10.996 16.496 14.3 2.86-6.6-16.06h18.543c-3.6132-7.1829-11.025-12.1-19.643-12.1z" fill="url(#f)"/></g><rect x="398.67" y="513.9" width="19.8" height="19.8" rx="9.9" fill="#ecf0f1"/><path d="m415.5 520.5-12.32 8.8 14.441 14.551c4.3811-1.9722 7.9991-5.3204 10.282-9.5176z" fill="url(#e)" fill-rule="evenodd" opacity=".2"/><rect x="400.87" y="516.1" width="15.4" height="15.4" rx="7.7" fill="url(#c)"/><path d="m386.58 523.25c-4e-3 0.18321-0.0129 0.36568-0.0129 0.55 0 12.188 9.812 22 22 22s22-9.812 22-22c0-0.18432-9e-3 -0.36679-0.0129-0.55-0.29114 11.931-9.9838 21.45-21.987 21.45-12.003 0-21.696-9.5193-21.987-21.45z" fill="#005677" fill-opacity=".23711"/></g></svg>
