<?xml version="1.0" encoding="UTF-8"?>
<svg version="1.1" viewBox="0 0 48 48" xmlns="http://www.w3.org/2000/svg"><g stroke-width="1.1"><path d="m46 24c0 12.148-9.8516 22-22 22s-22-9.8516-22-22 9.8516-22 22-22 22 9.8516 22 22z" fill="#4caf50"/><path d="m24 2v22l8.8 4.4-9.7273 17.6h0.9273c12.158 0 22-9.8417 22-22s-9.8417-22-22-22z" fill="#ffc107"/><path d="m46 24c0 12.148-9.8516 22-22 22s-22-9.8516-22-22 9.8516-22 22-22 22 9.8516 22 22z" fill="#4caf50"/><path d="m24 2v22l8.8 4.4-9.7273 17.6h0.9273c12.158 0 22-9.8417 22-22s-9.8417-22-22-22z" fill="#ffc107"/><path d="M 43.624,14.1 H 24 V 28.4 L 20.7,27.3 5.476,12.186 H 5.454 C 9.348,6.059 16.201,2 24,2 32.58,2 40.005,6.928 43.624,14.1 Z" fill="#f44336"/><path d="m5.4738 12.19 9.7273 16.348 5.4989-1.2386z" fill="#dd2c00"/><path d="m23.073 46 9.8274-17.665-4.5001-3.2351z" fill="#558b2f"/><path d="m43.652 14.1h-19.652l-1.7369 5.038z" fill="#f9a825"/><path d="m33.9 24c0 5.4659-4.4341 9.9-9.9 9.9s-9.9-4.4341-9.9-9.9 4.4341-9.9 9.9-9.9 9.9 4.4341 9.9 9.9z" fill="#fff"/><path d="m31.7 24c0 4.2537-3.4463 7.7-7.7 7.7s-7.7-3.4463-7.7-7.7 3.4463-7.7 7.7-7.7 7.7 3.4463 7.7 7.7z" fill="#2196f3"/></g></svg>
