<?xml version="1.0" encoding="UTF-8"?>
<svg version="1.1" viewBox="0 0 22 22" xmlns="http://www.w3.org/2000/svg"><defs><style type="text/css">.ColorScheme-Text {
        color:#eff0f1;
      }</style></defs><path class="ColorScheme-Text" d="m5.375 1a1.875 1.875 0 0 0-1.875 1.875 1.875 1.875 0 0 0 1.25 1.7651v11.36a2.5 2.5 0 0 0 2.5 2.5h1.25v2.5l3.75-3.125-3.75-3.125v2.5h-1.25a1.25 1.25 0 0 1-1.25-1.25v-11.36a1.875 1.875 0 0 0 1.25-1.7651 1.875 1.875 0 0 0-1.875-1.875zm8.125 0-3.75 3.125 3.75 3.125v-2.5h1.25a1.25 1.25 0 0 1 1.25 1.25v11.36a1.875 1.875 0 0 0-1.25 1.7651 1.875 1.875 0 0 0 1.875 1.875 1.875 1.875 0 0 0 1.875-1.875 1.875 1.875 0 0 0-1.25-1.7651v-11.36a2.5 2.5 0 0 0-2.5-2.5h-1.25zm-8.125 1.25a0.625 0.625 0 0 1 0.625 0.625 0.625 0.625 0 0 1-0.625 0.625 0.625 0.625 0 0 1-0.625-0.625 0.625 0.625 0 0 1 0.625-0.625zm11.25 16.25a0.625 0.625 0 0 1 0.625 0.625 0.625 0.625 0 0 1-0.625 0.625 0.625 0.625 0 0 1-0.625-0.625 0.625 0.625 0 0 1 0.625-0.625z" color="#eff0f1" fill="#232629"/></svg>
