<?xml version="1.0" encoding="UTF-8"?>
<svg version="1.1" viewBox="0 0 22 22" xmlns="http://www.w3.org/2000/svg"><defs><style type="text/css">.ColorScheme-Text {
        color:#eff0f1;
      }</style></defs><path class="ColorScheme-Text" d="m11.625 1c-1.5173 0-2.7738 1.0699-3.0615 2.5h-7.5635v1.25h7.5635c0.28775 1.4301 1.5442 2.5 3.0615 2.5s2.7738-1.0699 3.0615-2.5h6.3135v-1.25h-6.3135c-0.28775-1.4301-1.5442-2.5-3.0615-2.5zm-7.5 13.75c-1.7313 0-3.125 1.3938-3.125 3.125s1.3937 3.125 3.125 3.125c1.5173 0 2.7738-1.0699 3.0615-2.5h13.813v-1.25h-13.813c-0.28775-1.4301-1.5442-2.5-3.0615-2.5zm0 1.25c1.0388 0 1.875 0.83625 1.875 1.875s-0.83625 1.875-1.875 1.875-1.875-0.83625-1.875-1.875 0.83625-1.875 1.875-1.875z" color="#eff0f1" fill="#232629"/></svg>
