<?xml version="1.0" encoding="UTF-8"?>
<svg version="1.1" viewBox="0 0 48 48" xmlns="http://www.w3.org/2000/svg"><defs><style type="text/css">.ColorScheme-Text {
        color:#eff0f1;
      }</style></defs><path class="ColorScheme-Text" d="m2 4v28.571l8.2501 11.429-5.5e-5 -8.5714 5.5e-5 -2.8571h35.75v-28.571zm2.75 2.8571h38.5v22.857h-38.5z" color="#eff0f1" fill="#232629"/><path class="ColorScheme-Text" d="m28.4 10.667-13.2 3.7977v6.849l1.1 0.31684v2.704l6.6 1.888v-2.6931l5.5 1.582v-13.286zm4.4322 0.47526-0.84863 0.70096c1.251 1.9692 1.9161 4.2597 1.9164 6.5994-0.0044 2.3376-0.67256 4.625-1.925 6.5907l0.86152 0.71398c1.4097-2.1703 2.1616-4.709 2.1635-7.3047-0.0044-2.5947-0.75735-5.1318-2.1678-7.3004zm-5.5322 1.0004v11.493l-11-3.1641v-5.1649zm2.9584 1.1285-0.85938 0.70964c0.78297 1.3542 1.1973 2.8936 1.201 4.4618-0.0022 1.5688-0.41624 3.1089-1.1988 4.464l0.85938 0.71181c0.93855-1.5602 1.4364-3.3502 1.4395-5.1758-0.0044-1.8244-0.50305-3.6127-1.4416-5.1714zm-16.158 1.5104-1.1 0.31684v5.5817l1.1 0.31684v-5.8855zm3.3 7.1658 4.4 1.2652v1.5842l-4.4-1.2587z" color="#eff0f1" fill="#232629"/></svg>
