<?xml version="1.0" encoding="UTF-8"?>
<svg version="1.1" viewBox="0 0 22 22" xmlns="http://www.w3.org/2000/svg"><path d="m9.3333 1c-1.8467 0-3.3333 1.4867-3.3333 3.3333h5v1.6667h-6.6667c-1.8467 0-3.3333 1.4867-3.3333 3.3333v3.3333c0 1.8467 1.4867 3.3333 3.3333 3.3333v-1.6667c0-1.4812 0.64983-2.7937 1.6667-3.7077 0.00113-1e-3 0.00211-0.0023 0.00325-0.0032 0.22024-0.19762 0.45764-0.37623 0.70964-0.53385 0.00205-0.0013 0.00445-2e-3 0.00651-0.0033 0.24818-0.15476 0.50993-0.28704 0.7845-0.39715 0.049445-0.0194 0.10278-0.030962 0.15299-0.048825 0.23327-0.084875 0.47095-0.16243 0.71941-0.21159 0.31035-0.05985 0.6287-0.0944 0.95703-0.0944h6.6667v-5c0-1.8467-1.4866-3.3333-3.3333-3.3333zm0 0.83333c0.46167 0 0.83333 0.37167 0.83333 0.83333s-0.37167 0.83333-0.83333 0.83333-0.83333-0.37167-0.83333-0.83333 0.37167-0.83333 0.83333-0.83333zm8.3333 4.1667v1.6667c0 1.4812-0.65308 2.7969-1.6699 3.7109-0.22024 0.19763-0.45764 0.37622-0.70964 0.53385-2e-3 0.0013-0.0045 2e-3 -0.0065 0.0033-0.24818 0.15475-0.50993 0.28703-0.7845 0.39714-0.04945 0.0194-0.10279 0.03098-0.153 0.04883-0.23328 0.08488-0.47096 0.16244-0.71941 0.21159-0.31035 0.05985-0.6287 0.0944-0.95703 0.0944h-6.6667v5c0 1.8466 1.4866 3.3333 3.3333 3.3333h3.3333c1.8467 5e-6 3.3333-1.4867 3.3333-3.3333h-5v-1.6667h6.6667c1.8467 0 3.3333-1.4867 3.3333-3.3333v-3.3333c0-1.8467-1.4867-3.3333-3.3333-3.3333zm-5 12.5c0.46167 0 0.83333 0.37167 0.83333 0.83333 0 0.46167-0.37167 0.83333-0.83333 0.83333-0.46167 0-0.83333-0.37167-0.83333-0.83333 0-0.46167 0.37167-0.83333 0.83333-0.83333z" fill="#f59e16" stroke-width="1.6667"/><g stroke-width=".18644"><path d="m3.6449 15.905c-1.0799-0.23814-1.9515-0.96024-2.3667-1.9609-0.23798-0.57353-0.2435-0.6405-0.2435-2.9573 0-2.4426-4.382e-4 -2.4387 0.35679-3.1674 0.15485-0.31587 0.27272-0.47309 0.59404-0.79237 0.61042-0.60654 1.1535-0.87745 1.9611-0.97826 0.24461-0.030533 1.6685-0.0493 3.7405-0.0493h3.3455v-1.678h-5.025l0.020892-0.19809c0.043445-0.41194 0.12282-0.76663 0.2315-1.0344 0.28459-0.70131 0.91079-1.3795 1.5731-1.7036 0.70139-0.34329 0.70088-0.34322 2.9604-0.36191 1.3056-0.010799 2.1368 0.00118 2.3472 0.033828 0.74508 0.1156 1.36 0.42821 1.8771 0.95435 0.38217 0.3888 0.62886 0.78959 0.80494 1.3078l0.12671 0.37288 0.02794 5.6165-3.4628 2.797e-4c-3.7992 2.8e-4 -3.9821 0.010868-4.7579 0.27498-1.6385 0.55781-2.833 1.853-3.3061 3.5847-0.084508 0.30932-0.10069 0.52546-0.11839 1.5818l-0.020511 1.2235-0.19356-0.0037c-0.10646-2e-3 -0.31941-0.03146-0.47322-0.06537zm5.9786-12.448c0.23032-0.096235 0.37788-0.23824 0.48202-0.46388 0.10874-0.23561 0.10887-0.41585 4.85e-4 -0.65447-0.22285-0.4906-0.79509-0.6686-1.2228-0.38036-0.57245 0.38577-0.50672 1.1986 0.11993 1.4832 0.23169 0.10524 0.39574 0.10933 0.62037 0.015472z" fill="#59f" stroke="#59f"/><path d="m3.8769 16.021c-1.2932-0.19009-2.3276-1.0581-2.7783-2.3311-0.10462-0.29556-0.10766-0.35367-0.12435-2.3767-0.02134-2.5866-0.0035742-2.7756 0.32413-3.4486 0.20725-0.42558 0.2898-0.53952 0.64158-0.88559 0.46207-0.45457 0.84593-0.697 1.3787-0.87072 0.35486-0.11571 0.44157-0.12338 1.7945-0.15867 0.78189-0.020394 2.4127-0.038555 3.6239-0.040356l2.2023-0.00327v-1.4915h-5.017l0.039441-0.33792c0.082337-0.70546 0.25768-1.1849 0.61798-1.6898 0.42952-0.60191 1.1146-1.096 1.8194-1.3123 0.25572-0.078458 0.47917-0.085803 2.6102-0.085803h2.3305l0.37288 0.12699c0.53022 0.18057 0.9215 0.42591 1.3262 0.83156 0.39706 0.398 0.6012 0.71448 0.81882 1.2694l0.14988 0.38221 0.05924 5.803h-3.4512c-2.1311 0-3.6243 0.01902-3.9038 0.049728-1.8332 0.20141-3.4435 1.5466-4.0833 3.4109-0.16642 0.48492-0.2114 0.87998-0.21359 1.8762-0.00101 0.46144-0.015071 0.9491-0.031236 1.0837-0.032921 0.27408-0.022253 0.2699-0.50691 0.19866zm5.8238-12.697c0.22793-0.13357 0.39978-0.41605 0.39978-0.65711 0-0.38236-0.38671-0.76907-0.76907-0.76907-0.37964 0-0.76907 0.38942-0.76907 0.76907 0 0.22876 0.1764 0.52469 0.38858 0.65187 0.25028 0.15002 0.49975 0.15176 0.74977 0.00524z" fill="#59f" stroke="#59f"/><path d="m8.4791 20.868c-1.1305-0.3003-2.0097-1.1819-2.3497-2.3563-0.10661-0.36823-0.10735-0.38954-0.10735-3.0975v-2.7267l3.7521-0.0245c4.0868-0.02668 3.7551-0.0052 4.6099-0.299 0.68486-0.23541 1.3543-0.67684 1.9039-1.2554 0.75974-0.7998 1.219-1.7686 1.3618-2.8724 0.02487-0.19227 0.04587-0.77332 0.04666-1.2912l0.0014-0.94166 0.2447 0.025284c1.4235 0.14709 2.5831 1.1278 2.928 2.4764 0.0826 0.32295 0.09004 0.52992 0.09004 2.5022 0 2.3009-0.0047 2.3571-0.24808 2.9596-0.38832 0.96139-1.3874 1.7661-2.4289 1.9562-0.18272 0.03336-1.4679 0.0505-3.7871 0.0505h-3.5105v1.7246h4.9873v0.15458c0 0.69752-0.41873 1.6179-0.98356 2.1619-0.43106 0.41516-0.71671 0.5953-1.2587 0.79375l-0.34464 0.1262-2.2839 0.0118c-2.1321 0.01102-2.3065 0.0058-2.6234-0.07838zm4.5484-0.76527c0.14329-0.07486 0.34581-0.28173 0.42313-0.43224 0.07192-0.13999 0.06565-0.49923-0.01187-0.68041-0.23374-0.54628-0.98118-0.67393-1.3894-0.23729-0.15562 0.16644-0.22436 0.34315-0.22436 0.57672 0 0.33492 0.19378 0.64097 0.48941 0.77292 0.18463 0.08241 0.55566 0.08257 0.71312 3.26e-4z" fill="#fd5" stroke="#fd5"/></g><path d="m19.553 21.006c-0.13241-0.01365-0.3383-0.09165-0.46954-0.17788-0.05438-0.03573-0.21955-0.1772-0.36704-0.31438-0.30872-0.28714-1.7552-1.7102-2.4344-2.395-0.25378-0.25586-0.61823-0.61945-0.80989-0.80797l-0.34847-0.34276-0.1317 0.04161c-0.29912 0.09449-0.47318 0.11714-0.90166 0.1173-0.4451 1.75e-4 -0.60678-0.02256-0.94481-0.13289-0.34608-0.11295-0.79798-0.37095-1.1201-0.6395-0.25329-0.21115-0.51806-0.56454-0.70522-0.94128-0.23305-0.46911-0.33321-0.93509-0.31505-1.4658 0.0146-0.42666 0.07022-0.66774 0.27571-1.195 0.06372-0.16348 0.12437-0.31595 0.13479-0.33882 0.01858-0.04078 0.02703-0.03357 0.44047 0.37522 0.4259 0.42112 1.4085 1.3771 1.5925 1.5493l0.09978 0.09341 0.40676-0.4073c0.22372-0.22402 0.41877-0.42452 0.43344-0.44557 0.03166-0.04541 0.1221 0.05329-1.0069-1.0988-0.93778-0.95696-0.98042-1.0019-0.98042-1.0331 0-0.03744 0.38555-0.20888 0.74156-0.32974 0.27824-0.09446 0.42672-0.11184 0.95648-0.11195l0.45386-9.8e-5 0.20531 0.05797c0.46339 0.13083 0.77317 0.28196 1.1275 0.55006 0.3718 0.28132 0.68592 0.63532 0.87888 0.99045 0.16819 0.30953 0.30931 0.75612 0.35018 1.1082 0.04526 0.38986-0.0036 0.89153-0.12396 1.2731l-0.04159 0.13183 0.42437 0.41096c1.0549 1.0215 3.1806 3.1681 3.3677 3.4007 0.19674 0.24456 0.26761 0.44412 0.26744 0.75311-2.32e-4 0.42826-0.14143 0.71662-0.50499 1.0313-0.26508 0.22944-0.59216 0.33035-0.95091 0.29335zm-7.6792-7.2546c0-0.0031-0.01591-0.01981-0.03536-0.03708-0.03517-0.03122-0.03525-0.03119-0.0159 0.0057 0.01606 0.03061 0.05126 0.05217 0.05126 0.03139zm-0.13207-0.1165c-0.01067-0.01067-0.02182-0.01067-0.03249 0s-0.0051 0.01624 0.01624 0.01624 0.02692-0.0056 0.01624-0.01624zm7.7207 7.3495c-0.16223-0.04578-0.27553-0.09614-0.3929-0.17464-0.15469-0.10347-0.86147-0.78445-2.1861-2.1063-0.57554-0.57434-1.2064-1.203-1.4019-1.397l-0.35551-0.35269-0.09405 0.03236c-0.29704 0.1022-0.70278 0.1576-1.0571 0.14433-0.29799-0.01116-0.55235-0.05578-0.82664-0.14502-0.44536-0.14489-1.0039-0.4928-1.2992-0.80928-0.76778-0.82285-1.0383-1.9803-0.70793-3.0289 0.04292-0.13621 0.21074-0.57239 0.26768-0.69568l0.02827-0.06123 0.20606 0.2013c0.11333 0.11072 0.58375 0.57023 1.0454 1.0211 0.46163 0.45091 0.84764 0.81984 0.85781 0.81984s0.21331-0.1961 0.45144-0.43579c0.32731-0.32946 0.42958-0.44182 0.41911-0.46052-0.0076-0.0136-0.44102-0.4608-0.96314-0.99378s-0.9737-0.9973-1.0035-1.0318c-0.04611-0.05338-0.05075-0.06601-0.03106-0.0844 0.03147-0.02938 0.54852-0.24344 0.73609-0.30474 0.29626-0.09681 0.39405-0.1084 0.91026-0.10784l0.46966 5.07e-4 0.22297 0.0591c0.58858 0.15599 1.0556 0.427 1.5 0.87047 0.25654 0.25598 0.41754 0.48135 0.56538 0.79145 0.34406 0.72169 0.39858 1.4622 0.16503 2.2414l-0.04206 0.14035 0.33512 0.33059c0.18432 0.18182 0.45748 0.44582 0.60703 0.58666 0.25488 0.24004 2.4656 2.4809 2.7397 2.7771 0.28014 0.30268 0.37486 0.52456 0.37486 0.87809 0 0.21586-0.03821 0.38028-0.13404 0.57677-0.05887 0.1207-0.09477 0.16647-0.25964 0.33099-0.21263 0.21217-0.2971 0.26742-0.5295 0.3464-0.13296 0.04518-0.18441 0.05389-0.34572 0.05851-0.12841 0.0037-0.21607-0.0021-0.27191-0.01782zm-7.624-7.2707c-0.11266-0.11266-0.14589-0.12186-0.14589-0.04039 0 0.03916 0.0057 0.04509 0.03751 0.03901 0.02446-0.0047 0.06603 0.01273 0.11948 0.05003 0.04508 0.03146 0.0856 0.05796 0.09005 0.05889 0.0044 9.33e-4 -0.04107-0.04746-0.10114-0.10753zm2.44-1.3368c-8.28e-4 -0.01834-0.0044-0.02109-0.0098-0.0076-0.0065 0.01626-0.01396 0.01679-0.03148 0.0023-0.01261-0.01047-0.01816-0.02675-0.01233-0.03619 0.0064-0.01029 0.0026-0.01219-0.0095-0.0047-0.0151 0.0093-0.01305 0.02021 0.0082 0.04374 0.03539 0.0391 0.05659 0.04006 0.0549 0.0025zm-0.04654-0.01043c-0.01459-0.01758-0.01316-0.025 0.0062-0.03244 0.01729-0.0066 0.02514 4.87e-4 0.02514 0.0228 0 0.03841-6e-3 0.04025-0.03136 0.0096zm5.319 8.6238c-0.2127-0.03125-0.43019-0.13269-0.59934-0.27954-0.22485-0.19521-1.3316-1.2798-2.5354-2.4845l-1.283-1.284-0.1439 0.04628c-0.34365 0.11051-0.76026 0.15961-1.1132 0.13119-0.56894-0.0458-1.029-0.20948-1.5243-0.54236-0.32745-0.22005-0.50837-0.39089-0.74409-0.70264-0.42498-0.56205-0.64785-1.3272-0.59193-2.0323 0.03033-0.38236 0.10425-0.67668 0.26761-1.0655 0.04561-0.10856 0.09756-0.23648 0.11544-0.28427 0.01788-0.04778 0.03617-0.08688 0.04065-0.08688 0.0045 0 0.47546 0.45792 1.0466 1.0176 0.57116 0.55967 1.0467 1.0205 1.0568 1.0242 0.01007 0.0036 0.2163-0.19661 0.45829-0.44494l0.43997-0.4515-0.10019-0.10711c-0.08907-0.09523-0.92168-0.94932-1.6755-1.7188-0.21401-0.21844-0.26628-0.28027-0.24719-0.29239 0.05526-0.03509 0.61113-0.26342 0.7351-0.30196 0.30714-0.09547 0.4765-0.11759 0.89583-0.11699 0.35656 5.05e-4 0.40367 0.0041 0.59421 0.04477 0.48858 0.10441 0.86763 0.28252 1.3091 0.61513 0.47092 0.35478 0.82415 0.84896 1.0121 1.4159 0.207 0.62455 0.21358 1.2838 0.01885 1.8893l-0.04662 0.14497 0.48012 0.46574c0.26407 0.25616 0.54596 0.52889 0.62644 0.60607 0.23432 0.22475 2.3355 2.36 2.5584 2.5999 0.21715 0.23369 0.302 0.37261 0.35984 0.58912 0.08387 0.31398 0.03223 0.66344-0.14192 0.96036-0.07816 0.13326-0.34323 0.39503-0.48374 0.4777-0.13594 0.07999-0.32266 0.14536-0.48026 0.16815-0.12864 0.0186-0.17423 0.0185-0.30465-6.63e-4zm-2.6467-4.9542c-0.02027-0.0039-0.05735-4e-3 -0.0824-2.24e-4 -0.02505 0.0038-0.0085 7e-3 0.03685 0.0071 0.04532 1.16e-4 0.06581-3e-3 0.04554-0.0069zm-4.5361-0.29071c0-0.0031-0.01669-0.01981-0.03708-0.03708l-0.03708-0.03139 0.03139 0.03708c0.0295 0.03484 0.04276 0.04458 0.04276 0.03139zm-0.09888-0.11504c0-3e-3 -0.02039-0.02334-0.04532-0.04532l-0.04532-0.03995 0.03995 0.04532c0.03734 0.04236 0.05068 0.05288 0.05068 0.03995zm4.0786-0.1759c-0.09029-0.09064-0.17173-0.16478-0.18096-0.16478-0.01561 1.3e-5 0.31972 0.32692 0.3372 0.32874 0.0044 4.54e-4 -0.06595-0.07333-0.15624-0.16397zm-4.2548-0.05267c-0.11112-0.16601-0.22302-0.38543-0.2967-0.58178-0.03061-0.08157-0.05112-0.12606-0.04557-0.09888 0.03485 0.17085 0.21169 0.53222 0.35686 0.7292 0.09529 0.1293 0.08782 0.10444-0.01459-0.04855zm2.1705-0.71662c0.34586-0.35113 0.4557-0.46664 0.44373-0.46664-0.0042 0-0.21516 0.20887-0.46888 0.46416s-0.42423 0.43376-0.37891 0.39661c0.04532-0.03716 0.22714-0.21451 0.40406-0.39413zm-2.5269-0.05775c-0.0053-0.01315-0.0092-0.0092-0.01 0.01-7.15e-4 0.01737 0.0032 0.0271 0.0087 0.02163 0.0055-0.0055 0.0061-0.01969 0.0013-0.03158zm-0.01648-0.06592c-0.0053-0.01315-0.0092-0.0092-0.01 0.01-7.16e-4 0.01737 0.0032 0.02711 0.0087 0.02163 0.0055-0.0055 0.0061-0.01969 0.0013-0.03158zm4.713-0.0824c-0.0053-0.01315-0.0092-0.0092-0.01 0.01-7.16e-4 0.01737 0.0032 0.0271 0.0087 0.02163 0.0055-0.0055 0.0061-0.01969 0.0013-0.03159zm0.01658-0.12462c-0.0041-0.01586-0.0075-0.0029-0.0075 0.02884 0 0.03172 0.0034 0.0447 0.0075 0.02884s0.0041-0.04182 0-0.05768zm0.01738-0.41123c-0.0031-0.07066-0.0056-0.01723-0.0057 0.11872-1.7e-5 0.13595 0.0025 0.19376 0.0056 0.12847 0.0031-0.0653 0.0031-0.17653 5e-5 -0.24719zm-4.5113-0.12956c-0.17258-0.17383-0.24193-0.23344-0.25428-0.21859-0.0025 3e-3 -0.0094 0.03731-0.01538 0.07624-0.0102 0.06654-0.0089 0.06975 0.02135 0.05355 0.01998-0.0107 0.04666-0.01171 0.07035-0.0027 0.05128 0.01956 0.22238 0.14993 0.2927 0.22304 0.03123 0.03247 0.06078 0.05904 0.06565 0.05904 0.0049 0-0.0763-0.08577-0.18038-0.19061zm4.4915-0.11489c-0.0064-0.05103-0.01488-0.08949-0.01889-0.08548-4e-3 4e-3 -0.0024 0.04932 0.0037 0.10069 6e-3 0.05137 0.01454 0.08983 0.01889 0.08548 0.0044-0.0044 0.0027-0.04966-0.0037-0.10069zm-0.03092-0.16004c-0.0046-0.01133-0.0083-0.0021-0.0083 0.0206 0 0.02266 0.0037 0.03193 0.0083 0.0206s0.0046-0.02987 0-0.0412zm-0.01614-0.06489c-0.0053-0.01315-0.0092-0.0092-0.01 0.01-7.15e-4 0.01737 0.0032 0.02711 0.0087 0.02163 0.0055-0.0055 0.0061-0.01969 0.0013-0.03159zm-0.02067-0.08637c-0.0061-0.02415-0.0142-0.04073-0.01808-0.03685-0.0039 0.0039-0.0021 0.02682 4e-3 0.05097s0.0142 0.04073 0.01808 0.03685c0.0039-0.0039 0.0021-0.02682-4e-3 -0.05097zm-0.05449-0.15237c-0.01943-0.03341-0.02412-0.02271-0.0082 0.01873 0.0057 0.01473 0.01375 0.02331 0.01799 0.01906 0.0042-0.0042-1.48e-4 -0.02125-0.0098-0.03779zm-0.06592-0.16479c-0.01943-0.03341-0.02412-0.02271-0.0082 0.01873 0.0057 0.01473 0.01375 0.02331 0.01799 0.01906 0.0042-0.0042-1.49e-4 -0.02125-0.0098-0.03779zm-1.7488-0.4091c-0.04003-0.04079-0.07649-0.07416-0.08102-0.07416-0.0045 0 0.02451 0.03337 0.06454 0.07416s0.07649 0.07416 0.08102 0.07416c0.0045 0-0.02451-0.03337-0.06454-0.07416zm1.4502-0.08038c0-0.0034-0.01298-0.0164-0.02884-0.02884-0.02614-0.0205-0.02672-0.01992-0.0062 0.0062 0.02153 0.02745 0.03506 0.03618 0.03506 0.02262zm-1.615-0.10816c0-0.0085-0.0074-0.02009-0.01648-0.02569-0.0091-0.0056-0.01648 0.0014-0.01648 0.01551 0 0.01413 0.0074 0.02569 0.01648 0.02569 0.0091 0 0.01648-7e-3 0.01648-0.01551zm1.5326 0.01082c0-0.0026-0.04264-0.04522-0.09476-0.09476l-0.09475-0.09007 0.09007 0.09476c0.08368 0.08803 0.09944 0.1023 0.09944 0.09007zm-1.6006-0.05608c-0.02009-0.0247-0.01894-0.02643 0.01034-0.0155 0.02644 0.0099 0.02889 0.0082 0.01236-0.0084-0.01133-0.01141-0.0206-0.0386-0.0206-0.06042 0-0.0294-0.0067-0.03708-0.02607-0.02966-0.01434 0.0055-0.03288 0.01-0.0412 0.01-0.0083 0-0.01513 0.0068-0.01513 0.01521 0 0.01702 0.08038 0.11662 0.09412 0.11662 0.0048 0-0.0014-0.01251-0.01382-0.02781zm0.82608-0.49952c0-0.0091-0.0074-0.01648-0.01648-0.01648-0.0091 0-0.01648 0.0074-0.01648 0.01648 0 0.0091 0.0074 0.01648 0.01648 0.01648 0.0091 0 0.01648-0.0074 0.01648-0.01648zm-1.2344 0.08641-0.28289-0.31597 0.23557-0.0279c0.12957-0.01534 0.33291-0.01625 0.45187-2e-3 0.31497 0.0377 0.80503 0.20299 0.76998 0.2597-0.03036 0.04913-0.42147 0.23408-0.72266 0.34174l-0.16898 0.0604zm5.6453 8.2726c-0.08215-0.03572-1.0685-0.9772-2.1936-2.0937l-2.0443-2.0288-0.27675 0.1115c-0.6565 0.26449-1.3028 0.25236-1.8848-0.0354l-0.30297-0.14979 4.1468-0.0243 1.6235 1.6202c0.89292 0.89111 1.6536 1.6768 1.6904 1.7461 0.15866 0.29866 0.01683 0.66208-0.32249 0.82634-0.23264 0.11262-0.24001 0.11309-0.43576 0.02797zm-6.895-4.3523c-0.56603-0.41003-0.95382-1.1969-0.94533-1.9181 0.0051-0.43652-3e-3 -0.44067 0.95971 0.48936 0.49094 0.47428 0.91036 0.86233 0.93204 0.86233 0.06872 0 1.7986-1.758 1.7804-1.8094-0.0096-0.02703-0.26548-0.31267-0.56874-0.63476-0.45349-0.48166-0.53624-0.5907-0.4661-0.61423 0.0469-0.01574 0.24928-0.1036 0.44973-0.19526l0.36445-0.16665 0.1677 0.09031c0.09223 0.04967 0.26736 0.17992 0.38918 0.28944 0.73168 0.65784 0.96511 1.75 0.57297 2.6808l-0.12209 0.2898 0.75635 0.70955-0.24439 0.02936c-0.13441 0.01614-1.054 0.02954-2.0435 0.02976l-1.7992 4.05e-4zm7.0895 5.0657c0.1686-0.0024 0.33498-0.03885 0.48912-0.10733s0.29285-0.16751 0.40778-0.29108c0.22363-0.20407 0.36232-0.485 0.38845-0.78688 0.02966-0.31205-0.06067-0.62367-0.25256-0.87124-0.86176-0.91046-2.5614-2.6131-3.7977-3.8257 0.26306-0.71262 0.25076-1.498-0.03447-2.202-0.23455-0.58576-0.65166-1.08-1.1892-1.4091-0.42172-0.27978-0.90644-0.44981-1.4103-0.49468s-1.0109 0.03682-1.4753 0.2377l-0.44078 0.19125 2.047 2.1117-0.89621 0.90047-2.1027-2.0586-0.19093 0.44293c-0.16093 0.37343-0.24629 0.77515-0.25107 1.1819-0.0048 0.40672 0.07107 0.81035 0.22322 1.1875 0.15086 0.3729 0.37493 0.71163 0.65893 0.99608 0.16093 0.15776 0.33878 0.29717 0.53036 0.4157 0.39636 0.26516 0.84986 0.43232 1.3232 0.48773 0.47343 0.05541 0.95321-0.0025 1.3999-0.16898 0.7842 0.79687 2.7417 2.7711 3.799 3.7599 0.21209 0.19298 0.48776 0.30081 0.77426 0.30282zm-5.6697-9.336c0.46986-0.0012 0.92944 0.1375 1.3205 0.39844 0.15249 0.09327 0.29412 0.2033 0.42226 0.32804 0.34078 0.34413 0.56837 0.7844 0.65226 1.2618 0.08389 0.47738 0.02006 0.96905-0.18293 1.4091l-0.09679 0.21249 0.16639 0.16269c1.2416 1.2139 3.0493 3.0195 3.9184 3.9385 0.07738 0.11542 0.11048 0.25495 0.09317 0.39283-0.0173 0.13796-0.08383 0.26496-0.1873 0.35756-0.05963 0.06655-0.13228 0.12014-0.21346 0.15735-0.07154 0.03241-0.14887 0.05002-0.22737 0.05181-0.11922-3e-3 -0.23336-0.04902-0.3215-0.12944-1.1236-1.0506-3.2946-3.2473-3.9316-3.8927l-0.16374-0.16535-0.2108 0.09629c-0.36696 0.17137-0.77192 0.24473-1.1756 0.21296-0.40364-0.03176-0.79222-0.16758-1.128-0.39425-0.15279-0.09436-0.29443-0.20574-0.42222-0.33203-0.22129-0.22104-0.39614-0.48422-0.51436-0.77401-0.11814-0.28979-0.17722-0.60034-0.17379-0.91336 0-0.15431 0.01529-0.30826 0.04579-0.45953l1.8409 1.7996 1.8223-1.8228-1.7964-1.8527c0.15286-0.02977 0.30828-0.04423 0.464-0.04316z" fill="#232629" stroke="#232629" stroke-width=".016479"/></svg>
