<?xml version="1.0" encoding="UTF-8"?>
<svg id="a" width="22" height="22" version="1.1" viewBox="0 0 5.8208 5.8208" xmlns="http://www.w3.org/2000/svg"><g id="b" transform="translate(-39.801 -71.084)" stroke="#232629"><g id="c" transform="matrix(.99851 0 0 1.022 .061222 -1.6214)"><rect id="d" x="41.295" y="72.578" width=".98044" height=".98044" fill="none" stroke-linejoin="bevel" stroke-width=".34247"/><path id="e" d="m40.198 72.404 0.01509-0.87343 0.86021 0.01679" fill="none" stroke-width=".26458"/><g id="f" transform="matrix(.97374 0 0 .98302 1.0551 1.2316)"><path id="g" d="m40.259 71.53 0.90039 0.88596" fill="none" stroke="#232629" stroke-width=".26458px"/></g></g><g id="h" transform="matrix(0 .99851 -1.022 0 118.33 31.344)"><rect id="i" x="41.295" y="72.578" width=".98044" height=".98044" fill="none" stroke-linejoin="bevel" stroke-width=".34247"/><path id="j" d="m40.198 72.404 0.01509-0.87343 0.86021 0.01679" fill="none" stroke-width=".26458"/><g id="k" transform="matrix(.97374 0 0 .98302 1.0551 1.2316)"><path id="l" d="m40.259 71.53 0.90039 0.88596" fill="none" stroke="#232629" stroke-width=".26458px"/></g></g><g id="m" transform="matrix(-.99854 0 0 -1.0204 85.364 149.49)"><rect id="n" x="41.295" y="72.578" width=".98044" height=".98044" fill="none" stroke-linejoin="bevel" stroke-width=".34247"/><path id="o" d="m40.198 72.404 0.01509-0.87343 0.86021 0.01679" fill="none" stroke-width=".26458"/><g id="p" transform="matrix(.97374 0 0 .98302 1.0551 1.2316)"><path id="q" d="m40.259 71.53 0.90039 0.88596" fill="none" stroke="#232629" stroke-width=".26458px"/></g></g><g id="r" transform="matrix(0 -.99689 1.0221 0 -32.905 116.58)"><rect id="s" x="41.295" y="72.578" width=".98044" height=".98044" fill="none" stroke-linejoin="bevel" stroke-width=".34247"/><path id="t" d="m40.198 72.404 0.01509-0.87343 0.86021 0.01679" fill="none" stroke-width=".26458"/><g id="u" transform="matrix(.97374 0 0 .98302 1.0551 1.2316)"><path id="v" d="m40.259 71.53 0.90039 0.88596" fill="none" stroke="#232629" stroke-width=".26458px"/></g></g></g></svg>
