<?xml version="1.0" encoding="UTF-8"?>
<svg version="1.1" viewBox="0 0 22 22" xmlns="http://www.w3.org/2000/svg"><defs><style type="text/css">.ColorScheme-Text {
        color:#eff0f1;
      }</style></defs><path class="ColorScheme-Text" d="m2 1v20h10.286v-1.25h-9v-17.5h15.429v11.25h1.2857v-12.5h-18m11.571 10c-2.1369 0-3.8571 1.6725-3.8571 3.75s1.7203 3.75 3.8571 3.75c0.83493 0 1.6025-0.26073 2.2324-0.6958l3.2871 3.1958 0.90904-0.88379-3.2871-3.1958c0.4475-0.61247 0.71568-1.3587 0.71568-2.1704 0-2.0775-1.7203-3.75-3.8571-3.75m0 1.25c1.4246 0 2.5714 1.115 2.5714 2.5s-1.1469 2.5-2.5714 2.5c-1.4246 0-2.5714-1.115-2.5714-2.5s1.1469-2.5 2.5714-2.5" color="#eff0f1" fill="#232629"/></svg>
