<?xml version="1.0" encoding="UTF-8"?>
<svg version="1.1" viewBox="0 0 22 22" xmlns="http://www.w3.org/2000/svg" xmlns:xlink="http://www.w3.org/1999/xlink"><defs><linearGradient id="e" x1="34" x2="44" y1="19.008" y2="29.008" gradientTransform="matrix(1.1,0,0,1.1,-2.4,-2.4)" gradientUnits="userSpaceOnUse" xlink:href="#a"/></defs><linearGradient id="g" x1="9" x2="38" y1="9" y2="38" gradientTransform="matrix(1.1,0,0,1.1,-2.4,-2.4)" gradientUnits="userSpaceOnUse" xlink:href="#a"/><linearGradient id="a" x1="34" x2="44" y1="19.008" y2="29.008" gradientUnits="userSpaceOnUse"><stop stop-color="#292c2f" offset="0"/><stop stop-opacity="0" offset="1"/></linearGradient><linearGradient id="h" x1="4" x2="4" y1="44" y2="4" gradientTransform="matrix(1.1,0,0,1.1,-2.4,-2.4)" gradientUnits="userSpaceOnUse"><stop stop-color="#197cf1" offset="0"/><stop stop-color="#20bcfa" offset="1"/></linearGradient><linearGradient id="f" x1="4" x2="4" y1="44" y2="4" gradientTransform="matrix(1.1,0,0,1.1,-2.4,-2.4)" gradientUnits="userSpaceOnUse"><stop stop-color="#54d883" offset="0"/><stop stop-color="#abf9c7" offset="1"/></linearGradient><g transform="matrix(.45455 0 0 .45455 .090909 .090909)"><g stroke-width="1.1"><circle cx="24" cy="24" r="22" fill="url(#h)"/><path d="m24 2a22 22 0 0 0-21.89 19.8h3.19l3.3 3.3 2.2 1.1 12.066 19.745a22 22 0 0 0 1.1341 0.055 22 22 0 0 0 22-22 22 22 0 0 0-22-22z" fill="url(#g)" opacity=".2"/><path d="m44.445 15.896-7.2446 10.304 6.8365 6.8365a22 22 0 0 0 1.9635-9.0365 22 22 0 0 0-1.496-7.9706 22 22 0 0 0-0.0594-0.1331z" fill="url(#e)" fill-rule="evenodd" opacity=".2"/><path d="m24 2a22 22 0 0 0-2.0922 0.121 22 22 0 0 0-0.2794 0.033 22 22 0 0 0-3.5409 0.7007v-0.044a22 22 0 0 0-10.67 6.754h0.011a22 22 0 0 0-3.938 6.5395l1.8095-0.9042h4.4v1.1l1.1 1.1v-2.2l2.2-2.2h1.1v-1.1l1.1-1.1 2.2-1.1 1.1-1.1 2.2-1.1v1.1l2.2-1.1h-1.1v-1.1l-1.1-1.1h4.4l-1.1 1.1 3.3 1.1-1.1-2.2v-2.2l-1.0417-1.0417a22 22 0 0 0-1.1583-0.0583zm16.5 7.491v2.409h1.8601a22 22 0 0 0-1.8601-2.409zm-30.732 0.0737h0.0671l-0.1353 0.1353 0.0693-0.1353zm33.026 3.0382-1.1946 0.3971-2.2 1.1v1.1l-2.2 2.2-1.1 2.2v4.4l1.1 2.2 2.2 1.1 1.1 1.1 5.1887-0.8635a22 22 0 0 0 0.0022-0.0242 22 22 0 0 0 0.2299-1.9272 22 22 0 0 0 0.0792-1.5851 22 22 0 0 0-0.099-1.914 22 22 0 0 0-0.1067-0.8899 22 22 0 0 0-0.209-1.3574 22 22 0 0 0-0.1485-0.6578 22 22 0 0 0-0.3927-1.5334 22 22 0 0 0-0.1595-0.4752 22 22 0 0 0-0.5929-1.6203 22 22 0 0 0-0.1628-0.363 22 22 0 0 0-0.814-1.6775 22 22 0 0 0-0.5203-0.9086zm-37.495 6.9971-1.1 1.1h-1.1l-0.715-0.715a22 22 0 0 0 0 0.0055 22 22 0 0 0-0.2926 2.1747 22 22 0 0 0-0.0022 0.033l2.1098 0.7018 2.2 1.1 2.2 2.2h2.2v2.2l-1.1 1.1-1.1 2.2v1.1l2.2 2.2 1.1 2.2 1.1 1.1 2.2 1.1v4.752a22 22 0 0 0 0.0066 0.0022 22 22 0 0 0 1.8667 0.7095 22 22 0 0 0 0.2112 0.0748 22 22 0 0 0 1.6643 0.4488 22 22 0 0 0 0.4961 0.1276 22 22 0 0 0 1.452 0.2376 22 22 0 0 0 0.748 0.1144 22 22 0 0 0 1.265 0.0792 22 22 0 0 0 1.0901 0.0539 22 22 0 0 0 1.1198-0.0407l1.0802-2.1593v-1.1l2.2-1.1 1.1-1.1 1.1-4.4 1.1-1.1v-2.2l-2.2-1.1h-1.1l-2.2-1.1h-1.1l-1.1-2.2-1.1-1.1h-2.2l-2.2-2.2h-2.2l-3.3-1.1-1.1 2.2-2.2-1.1h-1.1v-2.2l-2.2-1.1 1.1-2.2z" fill="url(#f)"/><path d="m2.0561 23.45c-0.0044 0.187-0.0561 0.3619-0.0561 0.55 0 12.188 9.812 22 22 22s22-9.812 22-22c0-0.1881-0.0517-0.363-0.0561-0.55-0.033 1.3266-0.1331 2.6378-0.3894 3.8951a21.879 21.879 0 0 1-5.9851 11.124 21.945 21.945 0 0 1-6.9905 4.7069 21.799 21.799 0 0 1-4.1338 1.2782 22.224 22.224 0 0 1-4.444 0.4444c-1.5235 0-3.0107-0.1529-4.444-0.4444a21.879 21.879 0 0 1-11.124-5.9851 21.945 21.945 0 0 1-4.7069-6.9905 21.799 21.799 0 0 1-1.2782-4.1338c-0.2563-1.2573-0.3553-2.5685-0.3894-3.8951" opacity=".2"/></g><path class="ColorScheme-Text" d="m19.314 7.4115v11.25h1.9286v-9.375h7.7143v9.375h1.9286v-11.25h-9.6429zm-4.2564 13.125-1.5293 1.5308 11.571 11.594 11.571-11.594-1.5293-1.5308-10.042 10.063zm-3.4579 13.125v3.75h27v-3.75h-1.9286v1.875h-23.143v-1.875z" color="#eff0f1"/></g></svg>
