<?xml version="1.0" encoding="UTF-8"?>
<svg version="1.1" viewBox="0 0 22 22" xmlns="http://www.w3.org/2000/svg"><defs><style type="text/css">.ColorScheme-Text {
        color:#eff0f1;
      }</style></defs><path class="ColorScheme-Text" d="m11 1c-5.54 0-10 4.46-10 10s4.46 10 10 10 10-4.46 10-10-4.46-10-10-10m0 1.25c4.8475 0 8.75 3.9025 8.75 8.75s-3.9025 8.75-8.75 8.75-8.75-3.9025-8.75-8.75 3.9025-8.75 8.75-8.75" color="#eff0f1" fill="#232629" stroke="#232629" stroke-width="1.25"/><path d="m9.4751 19.631c-3.6974-0.7037-6.5603-3.6101-7.1242-7.2324-0.15363-0.98686-0.057315-2.8467 0.19277-3.7225 0.87614-3.0682 3.1816-5.3201 6.3267-6.1798 1.0687-0.29209 3.205-0.28763 4.3017 0.00896 0.93131 0.25186 1.9191 0.69208 2.6746 1.192 1.3064 0.86444 2.6132 2.4312 3.2075 3.8458 0.91964 2.1888 0.9153 4.7486-0.01174 6.9272-1.0372 2.4374-3.3115 4.3767-5.8873 5.0202-0.99569 0.24872-2.7581 0.31606-3.68 0.14061z" fill="#232629"/></svg>
