<?xml version="1.0" encoding="UTF-8"?>
<svg version="1.1" viewBox="0 0 22 22" xmlns="http://www.w3.org/2000/svg"><defs><style type="text/css">.ColorScheme-Text {
        color:#eff0f1;
      }</style></defs><g fill="#232629"><path class="ColorScheme-Text" d="m4.75 1c-2.0775 0-3.75 1.6725-3.75 3.75s1.6725 3.75 3.75 3.75c0.92575 0 1.7691-0.33418 2.4219-0.88623l3.3862 3.3862 0.44189-0.4419-3.3862-3.3862c0.55205-0.65276 0.88623-1.4961 0.88623-2.4219 0-2.0775-1.6725-3.75-3.75-3.75zm0 0.625c1.7313 0 3.125 1.3937 3.125 3.125s-1.3937 3.125-3.125 3.125-3.125-1.3937-3.125-3.125 1.3937-3.125 3.125-3.125zm-3.125 8.125c-0.34625 0-0.625 0.27875-0.625 0.625s0.27875 0.625 0.625 0.625 0.625-0.27875 0.625-0.625-0.27875-0.625-0.625-0.625zm2.5 0c-0.34625 0-0.625 0.27875-0.625 0.625s0.27875 0.625 0.625 0.625 0.625-0.27875 0.625-0.625-0.27875-0.625-0.625-0.625zm2.5 0c-0.34625 0-0.625 0.27875-0.625 0.625s0.27875 0.625 0.625 0.625 0.625-0.27875 0.625-0.625-0.27875-0.625-0.625-0.625z" color="#eff0f1"/><path class="ColorScheme-Text" d="m14.75 11c-2.0775 0-3.75 1.6725-3.75 3.75s1.6725 3.75 3.75 3.75c0.92575 0 1.7691-0.33418 2.4219-0.88623l3.3862 3.3862 0.44189-0.4419-3.3862-3.3862c0.55205-0.65276 0.88623-1.4961 0.88623-2.4219 0-2.0775-1.6725-3.75-3.75-3.75zm0 0.625c1.7313 0 3.125 1.3937 3.125 3.125s-1.3937 3.125-3.125 3.125-3.125-1.3937-3.125-3.125 1.3937-3.125 3.125-3.125zm-3.125 8.125c-0.34625 0-0.625 0.27875-0.625 0.625s0.27875 0.625 0.625 0.625 0.625-0.27875 0.625-0.625-0.27875-0.625-0.625-0.625zm2.5 0c-0.34625 0-0.625 0.27875-0.625 0.625s0.27875 0.625 0.625 0.625 0.625-0.27875 0.625-0.625-0.27875-0.625-0.625-0.625zm2.5 0c-0.34625 0-0.625 0.27875-0.625 0.625s0.27875 0.625 0.625 0.625 0.625-0.27875 0.625-0.625-0.27875-0.625-0.625-0.625z" color="#eff0f1"/></g></svg>
