<?xml version="1.0" encoding="UTF-8"?>
<svg version="1.1" viewBox="0 0 22 22" xmlns="http://www.w3.org/2000/svg"><defs><style type="text/css">.ColorScheme-Text {
        color:#eff0f1;
      }</style></defs><path class="ColorScheme-Text" d="m5.8722 1c-0.74231 1.25-1.129 1.25-0.38672 2.5l4.5527 7.6758-2.6468 4.4092c-0.57247-0.51432-1.3326-0.83496-2.1772-0.83496-1.7807 0-3.2143 1.3938-3.2143 3.125s1.4336 3.125 3.2143 3.125 3.2143-1.3938 3.2143-3.125c0-0.20888-0.02295-0.41315-0.062779-0.61035l1.4941-2.5171c1.0034-0.0013 1.1299-0.96825 1.7151-0.98144l2.0617 3.4766c-0.04268 0.2038-0.06529 0.41592-0.06529 0.63232 0 1.7312 1.4336 3.125 3.2143 3.125s3.2143-1.3938 3.2143-3.125-1.4336-3.125-3.2143-3.125c-0.84 0-1.5957 0.31823-2.1671 0.82764l-2.6417-4.4019 4.5527-7.6758c0.74231-1.25 0.35559-1.25-0.38672-2.5l-5.1353 8.5596-5.1353-8.5596m5.1278 10c0.35614 0 0.64286 0.27875 0.64286 0.625s-0.28671 0.625-0.64286 0.625-0.64286-0.27875-0.64286-0.625 0.28671-0.625 0.64286-0.625zm-5.7857 5c1.0684 0 1.9286 0.83625 1.9286 1.875 0 1.0388-0.86014 1.875-1.9286 1.875s-1.9286-0.83625-1.9286-1.875c0-1.0387 0.86014-1.875 1.9286-1.875m11.571 0c1.0684 0 1.9286 0.83625 1.9286 1.875 0 1.0388-0.86014 1.875-1.9286 1.875-1.0684 0-1.9286-0.83625-1.9286-1.875 0-1.0387 0.86014-1.875 1.9286-1.875" color="#eff0f1" fill="#232629"/></svg>
