<?xml version="1.0" encoding="UTF-8"?>
<svg version="1.1" viewBox="0 0 22 22" xmlns="http://www.w3.org/2000/svg"><style type="text/css">.ColorScheme-Text {
            color:#eff0f1;
        }</style><g class="ColorScheme-Text" transform="matrix(1.1111 0 0 1.125 -1.2222 -1.375)" color="#eff0f1" fill="#232629"><path d="m13 3v2c0 0.554-0.446 1-1 1-1.108 0-2 0.892-2 2h-8v11h18v-11h-9c0-0.554 0.446-1 1-1 1.108 0 2-0.892 2-2v-2zm-10 6h16v1h-16zm0 2h16v7h-16z"/><path d="m4 12v1h1v-1zm2 0v1h1v-1zm2 0v1h1v-1zm2 0v1h1v-1zm2 0v1h1v-1zm2 0v1h1v-1zm2 0v1h2v-1zm-12 2v1h2v-1zm3 0v1h1v-1zm2 0v1h1v-1zm2 0v1h1v-1zm2 0v1h1v-1zm2 0v1h3v-1zm-11 2v1h2v-1zm3 0v1h8v-1zm9 0v1h2v-1z"/></g></svg>
