<?xml version="1.0" encoding="UTF-8"?>
<svg version="1.1" viewBox="0 0 22 22" xmlns="http://www.w3.org/2000/svg"><defs><style type="text/css">.ColorScheme-Text {
        color:#eff0f1;
      }</style></defs><path d="m3.5 1v2.5h-2.5v3.75h2.5v7.5h-2.5v3.75h2.5v2.5h6.0723v-1.25h-4.8223v-13.75h15v3.5723h1.25v-8.5723h-17.5zm1.25 1.25h15v2.5h-15v-2.5z" color="#eff0f1" fill="#232629"/><path d="m13.667 17.333h3.6667v2.7499h-3.6667zm0-6.4164h1.8333v2.7499h-1.8333zm-2.75 0h1.8333v3.6665h5.5v-3.6665h0.53353l1.2998 1.2998v7.8665h-1.8333v-3.6665h-5.5v3.6665h-1.8333zm-0.91667-0.91663v11h11v-9.1667h-4e-3l-1.8293-1.8292v-4e-3z" fill="#232629"/></svg>
