<?xml version="1.0" encoding="UTF-8"?>
<svg version="1.1" viewBox="0 0 22 22" xmlns="http://www.w3.org/2000/svg"><defs><style type="text/css">.ColorScheme-Text {
        color:#eff0f1;
      }</style></defs><path class="ColorScheme-Text" d="m1 2v17.993h10v-1.1245h-5.5556v-6.7467h5.5556v-1.1245h-6.6667v7.8712h-2.2222v-15.742h3.3333v5.6223h8.8889v-5.6223h0.32552l3.0078 3.0439v3.7028h1.1111v-4.1596h-0.0087l0.0087-0.010981-3.6589-3.7028-0.0087 0.010981v-0.010981h-0.77691zm5.5556 1.1266h4.3338v4.4978h-4.3338zm12.222 7.8712-1.1068 1.1179h-0.0043l-5.5556 5.6201 0.0087 0.01098-0.0043 1.1288h-0.0043v1.1245h2.2222l0.0065-0.01098h0.01515l-0.0065-0.01098 1.0959-1.1091 4.4444-4.4934-0.78342-0.79722-5.5447 5.6069-0.65972-0.66545 5.5469-5.6091 0.65755 0.66764 0.78342 0.79063 1.111-1.1245z" color="#eff0f1" fill="#232629"/></svg>
