<?xml version="1.0" encoding="UTF-8"?>
<svg version="1.1" viewBox="0 0 22 22" xmlns="http://www.w3.org/2000/svg"><path class="ColorScheme-Text" d="m16.406 3-0.40601 0.70703 4.188 7.293-4.188 7.293 0.40601 0.70703 4.594-8-4.594-8" color="#eff0f1" fill="#232629"/><path class="ColorScheme-Text" d="m6.25 4c-2.9085 0-5.25 2.3442-5.25 5.2483 0 2.9076 2.345 5.2483 5.25 5.2483 1.2409 0 2.3641-0.44459 3.2607-1.1595l4.6644 4.6629 0.82487-0.8246-4.6644-4.6629c0.71826-0.89778 1.1644-2.0217 1.1644-3.2642 0-2.9076-2.345-5.2483-5.25-5.2483zm0 1.1663c2.2622 0 4.0833 1.8206 4.0833 4.082s-1.8212 4.082-4.0833 4.082-4.0833-1.8206-4.0833-4.082 1.8212-4.082 4.0833-4.082z" fill="#232629"/></svg>
