<?xml version="1.0" encoding="UTF-8"?>
<svg version="1.1" viewBox="0 0 22 22" xmlns="http://www.w3.org/2000/svg"><path class="ColorScheme-Text" d="m5.5 5c-2.493 0-4.5 2.0093-4.5 4.4985 0 2.4922 2.01 4.4985 4.5 4.4985 1.0636 0 2.0263-0.38107 2.7949-0.99382l3.998 3.9967 0.70703-0.7068-3.998-3.9967c0.61565-0.76953 0.99805-1.7329 0.99805-2.7979 0-2.4922-2.01-4.4985-4.5-4.4985zm0 0.99967c1.939 0 3.5 1.5605 3.5 3.4989s-1.561 3.4989-3.5 3.4989-3.5-1.5605-3.5-3.4989 1.561-3.4989 3.5-3.4989z" fill="#232629"/><g fill="#232629"><path class="ColorScheme-Text" d="m13.406 3-0.40601 0.70703 4.188 7.293-4.188 7.293 0.40601 0.70703 4.594-8-4.594-8" color="#eff0f1"/><path class="ColorScheme-Text" d="m16.406 3-0.40601 0.70703 4.188 7.293-4.188 7.293 0.40601 0.70703 4.594-8-4.594-8" color="#eff0f1"/></g></svg>
