<?xml version="1.0" encoding="UTF-8"?>
<svg enable-background="new 0 0 1000 1000" version="1.1" viewBox="0 0 128 128" xmlns="http://www.w3.org/2000/svg"><g transform="matrix(.12653 0 0 .12661 .73477 .69518)" fill="#232629"><g transform="matrix(.1 0 0 -.1 0 512)" fill="#232629"><path d="m4883.8 5013.7c-47.9-3.8-197.2-17.2-335.1-26.8-551.5-46-1093.4-149.4-1332.8-254.7-126.4-55.5-798.5-450-1057-620.4-279.6-183.8-526.6-388.7-829.2-687.5-377.2-371.4-572.5-645.3-683.6-959.3-28.7-74.7-86.2-270-128.3-430.9-44-160.8-114.9-400.2-157-532.3-386.8-1216-342.8-2372.6 128.3-3366.4 118.7-250.9 183.8-358.1 417.4-712.4 520.9-783.2 968.9-1194.9 1734.9-1587.5 733.4-375.3 1371.1-540 2309.4-597.4 993.8-59.4 1639.2 53.6 2278.7 400.2 1124.1 607 1574.1 1037.9 2047.1 1960.9 262.3 509.4 360 821.5 469.2 1489.8 189.6 1173.8 199.1 1476.4 57.4 2257.7-139.8 775.5-319.8 1267.7-658.7 1800-277.7 436.6-532.3 716.2-857.9 936.4-346.6 237.5-628.1 371.5-1219.8 591.7-635.8 233.6-1118.3 329.4-1733 340.9-199.1 1.9-402.1 1.9-450-2zm1001.5-342.7c444.3-68.9 773.6-162.8 1332.8-381.1 453.8-178.1 848.3-398.3 1110.6-620.4 367.6-314.1 794.7-1005.3 986.2-1599 145.5-451.9 279.6-1216 279.6-1602.8 0-381.1-143.6-1424.7-258.5-1878.5-159-622.3-561.1-1367.2-965.1-1784.7-386.8-402.1-1313.6-974.7-1817.2-1122.1-436.6-128.3-572.6-145.5-1152.8-143.6-1081.9 3.8-1773.2 147.5-2546.8 532.4s-1196.8 771.7-1727.3 1572.1c-764.1 1154.6-915.4 2299.8-490.2 3705.3 51.7 174.3 137.9 471.1 189.6 660.6 109.1 398.3 193.4 582.1 367.7 813.8 137.9 180 566.8 607 792.8 787 344.7 273.8 1242.8 811.9 1482.1 888.5 568.6 180.1 1805.7 268.2 2416.5 172.5z"/><path d="m5425.7 4048.6c-183.8-38.3-338.9-137.9-400.2-252.8-59.4-114.9-11.5-321.7 103.4-442.3 210.6-224 622.3-174.3 748.7 90 34.5 67 44 120.6 44 239.4 0 176.2-46 289.2-137.9 337-70.7 36.4-252.6 51.7-358 28.7z"/><path d="m2957.4 3198.4c-145.5-90-245.1-298.7-245.1-517-1.9-166.6 26.8-252.8 122.6-373.4 210.6-266.2 620.4-275.7 850.2-19.2 46 51.7 97.7 134 114.9 183.8 40.2 118.7 38.3 283.4-5.7 379.1-82.3 181.9-394.5 371.5-633.8 386.8-107.3 7.8-136.1 2-203.1-40.1z"/><path d="m7488.1 2901.6c-93.8-51.7-132.1-97.7-275.8-335.1-134-222.1-151.3-289.2-99.6-392.6 68.9-130.2 291-271.9 476.8-298.7 130.2-19.2 338.9 21.1 444.3 88.1 237.5 149.4 212.5 543.8-51.7 808.1-158.9 158.9-346.6 208.7-494 130.2z"/><path d="m5395.1 2036c-287.2-97.7-436.6-287.2-379.2-478.7 47.9-160.8 285.3-338.9 492.1-371.5 191.5-28.7 350.4 78.5 392.6 266.2 32.5 145.5 15.3 409.8-32.6 490.2-76.5 132.2-256.5 168.5-472.9 93.8z"/><path d="m1666.8 1304.6c-172.3-47.9-337-193.4-384.9-335.1-32.5-97.7-13.4-321.7 36.4-417.5 107.2-208.7 369.6-279.6 561.1-153.2 120.6 80.4 158.9 191.5 166.6 473 7.7 266.2-13.4 354.3-99.6 409.8-65.2 44-176.2 51.7-279.6 23z"/><path d="m8359.4 594.1c-342.8-109.2-530.4-415.5-413.6-674 67-149.4 203-208.7 434.7-195.3 178.1 11.5 291.1 74.7 365.8 203 49.8 82.3 53.6 105.3 51.7 281.5 0 157-7.7 204.9-42.1 270-65.2 126.3-218.4 170.4-396.5 114.8z"/><path d="m3665.9 125c-130.2-78.5-183.8-203-187.7-432.8-1.9-160.9 40.2-252.8 162.8-361.9 220.2-201.1 572.6-241.3 721.9-82.3 74.7 80.4 124.5 224.1 126.4 369.6 1.9 118.7-5.7 145.5-55.5 229.8-68.9 111.1-248.9 241.3-396.4 285.3-137.8 40.1-298.7 36.3-371.5-7.7z"/><path d="m5979.1-493.5c-237.5-80.4-421.3-471.1-314.1-666.4 74.7-136 338.9-241.3 572.6-226 195.3 11.5 285.3 107.2 304.5 323.6 15.3 149.4-11.5 252.8-93.8 373.4-109.2 162.8-312.1 247.1-469.2 195.4z"/><path d="m1980.8-1347.6c-53.6-19.2-120.6-49.8-147.4-67-124.5-80.4-195.3-256.6-166.6-409.8 32.6-181.9 206.8-384.9 413.6-486.4 383-189.6 645.3-9.6 672.1 463.4 17.2 262.4-51.7 392.6-247 476.8-141.7 61.3-390.6 72.8-524.7 23z"/><path d="m7616.4-1627.2c-124.5-44-229.8-139.8-296.8-270-44-82.3-49.8-120.6-51.7-268.1 0-151.3 5.7-185.8 53.6-283.4 65.1-132.1 151.3-195.3 302.5-227.9 187.7-38.3 321.7 17.2 432.8 183.8 84.2 124.5 122.5 254.7 134 463.4 19.2 316-78.5 428.9-367.7 427-72.7 0.1-166.5-11.4-206.7-24.8z"/><path d="m4826.4-2778c-248.9-78.5-394.5-381.1-296.8-618.5 74.7-178.1 285.3-296.8 446.2-252.8 107.2 28.7 296.8 160.9 365.8 252.8 105.3 141.7 97.6 296.8-17.2 465.3-107.4 155.1-298.9 214.5-498 153.2z"/></g></g></svg>
