<?xml version="1.0" encoding="UTF-8"?>
<svg enable-background="new 0 0 1000 1000" version="1.1" viewBox="0 0 32 32" xmlns="http://www.w3.org/2000/svg"><g transform="matrix(.030612 0 0 .030607 .69388 .69628)" fill="#232629"><g transform="matrix(.1 0 0 -.1 0 512)" fill="#232629"><path d="m2677.4 5008.9c-567.2-84.3-1052-504-1247.5-1078.9-107.3-310.4-103.5-218.5-103.5-3359.2v-2901.2h-484.8c-463.7 0-488.7-1.9-569.1-42.2-105.4-53.6-172.5-170.5-172.5-302.7 0-381.3 128.4-835.5 331.5-1178.5 107.3-185.9 373.7-473.3 536.6-582.6 253-170.5 571.1-287.4 894.9-327.7 132.2-15.3 829.7-19.2 2539.1-15.3 2205.6 5.7 2364.7 9.6 2472 42.2 546.1 164.8 935.1 561.5 1115.3 1136.3l53.6 168.6 9.6 3008.6 9.6 3008.5 827.8 9.6c797.2 9.6 829.7 11.5 879.6 49.8 118.8 88.2 132.2 126.5 130.3 358.3-7.7 536.6-185.9 1078.9-475.3 1444.9-151.4 189.7-314.3 323.8-519.3 425.4-316.2 157.1-32.6 143.7-3257.7 147.6-1580.9 1.9-2918.5-3.8-2970.2-11.5zm6045.8-741.6c323.8-161 551.9-515.5 561.5-870 3.8-105.4-1.9-120.7-49.8-162.9l-53.7-46h-1128.7v293.2c0 463.7 40.2 619 189.7 743.5 155.3 132.3 281.7 143.8 481 42.2zm-5104.9-2345.5c151.4-72.8 214.6-264.4 138-410.1-17.2-30.7-264.4-289.4-551.9-573l-521.2-515.5 538.5-538.5c584.5-584.5 599.8-605.5 557.6-756.9-38.3-147.6-151.4-235.7-297-235.7-46 0-103.5 11.5-130.3 26.8-74.7 40.2-1347.1 1301.1-1381.6 1370.1-38.3 74.7-40.2 178.2-3.8 260.6 36.4 84.3 1305 1345.2 1391.2 1381.6 91.8 40.4 164.7 38.5 260.5-9.4zm2418.3 7.7c32.6-19.2 358.3-331.5 722.4-695.6 555.7-555.7 665-672.6 682.2-737.8 44.1-159 34.5-170.5-678.3-887.2-360.3-362.2-680.3-672.6-712.9-687.9-126.5-69-310.4-24.9-398.6 93.9-53.7 72.8-65.2 222.3-23 310.4 21.1 42.2 243.4 276 557.6 582.6l525.1 513.6-528.9 525c-289.4 289.4-540.4 550-555.7 578.7-34.5 65.2-34.5 193.5 0 260.6 80.5 155.2 266.4 220.3 410.1 143.7zm-415.8-4928.7c49.8-49.8 55.6-70.9 55.6-170.5 0-189.7 93.9-350.7 346.8-601.7 136.1-134.1 208.9-218.4 208.9-245.3 0-23-24.9-67.1-55.6-97.7l-55.6-55.6h-2188.4c-2441.3 0-2351.3-3.8-2634.9 134.1-331.5 161-555.7 490.6-576.8 843.2-9.6 149.5 1.9 182 78.6 226.1 28.7 15.3 661.1 21.1 2401.1 23h2364.7z" fill="#232629"/></g></g></svg>
