<?xml version="1.0" encoding="UTF-8"?>
<svg version="1.1" viewBox="0 0 22 22" xmlns="http://www.w3.org/2000/svg"><defs><style type="text/css">.ColorScheme-Text {
        color:#eff0f1;
      }</style></defs><path d="m11 1c-5.54 0-10 4.46-10 10s4.46 10 10 10 10-4.46 10-10-4.46-10-10-10z" color="#eff0f1" fill="#232629"/><path d="m11 2.25c4.8475 0 8.75 3.9025 8.75 8.75s-3.9025 8.75-8.75 8.75-8.75-3.9025-8.75-8.75 3.9025-8.75 8.75-8.75z" color="#eff0f1" fill="#232629"/><path d="m9.75 4.75v2.5h2.5v-2.5z" color="#eff0f1" fill="#eff0f1"/><path d="m9.75 8.5v8.75h2.5v-8.75z" color="#eff0f1" fill="#eff0f1"/><path d="m9.9855 19.7c-1.0165-0.12302-1.7475-0.33636-2.714-0.79214-2.788-1.3148-4.6293-3.8942-4.9726-6.9661-0.49907-4.4661 2.5202-8.6093 6.9371-9.5194 0.89581-0.18458 2.5391-0.19141 3.4449-0.014312 3.3088 0.64694 5.9098 3.0917 6.8067 6.3979 0.29865 1.1009 0.30128 3.3218 0.0052 4.3936-0.87439 3.1654-3.3702 5.5992-6.4751 6.3141-0.95834 0.22065-2.146 0.29367-3.0322 0.18642zm2.2143-6.7986v-4.3814h-2.4237v8.7627h2.4237zm0-6.8983v-1.2119h-2.4237v2.4237h2.4237z" fill="#c83737" stroke="#232629" stroke-width=".09322"/><path d="m10.242 19.646c-2.0486-0.23176-3.9528-1.1198-5.3472-2.4938-1.0558-1.0403-1.9098-2.5406-2.3137-4.0644-0.29075-1.0971-0.29037-3.146 7.789e-4 -4.2214 0.82403-3.0435 3.1108-5.3672 6.1417-6.2407 0.62133-0.17908 0.9479-0.20926 2.2642-0.20926 1.3217 0 1.6431 0.029942 2.2839 0.2128 2.852 0.81383 5.0725 2.9496 6.0105 5.7812 0.29777 0.89888 0.42336 2.4236 0.29969 3.6382-0.36224 3.5579-3.2268 6.7114-6.7297 7.4083-0.76099 0.15141-2.0912 0.24774-2.6102 0.18902zm2.0508-6.7447v-4.4746h-2.6102v8.9492h2.6102zm0-6.8983v-1.3051h-2.6102v2.6102h2.6102z" fill="#ff2a2a" stroke="#232629" stroke-width=".09322"/></svg>
