<?xml version="1.0" encoding="UTF-8"?>
<svg version="1.1" viewBox="0 0 22 22" xmlns="http://www.w3.org/2000/svg" xmlns:xlink="http://www.w3.org/1999/xlink"><defs><linearGradient id="i" x2="0" y1="34" y2="4" gradientUnits="userSpaceOnUse"><stop stop-color="#7cbaf8" offset="0"/><stop stop-color="#f4fcff" offset="1"/></linearGradient><linearGradient id="e" x1="405.57" x2="427.57" y1="509.8" y2="533.8" gradientUnits="userSpaceOnUse"><stop stop-opacity=".286" offset="0"/><stop stop-opacity="0" offset="1"/></linearGradient><linearGradient id="h" x1="412.57" x2="425.57" y1="514.8" y2="527.8" gradientUnits="userSpaceOnUse" xlink:href="#e"/><linearGradient id="g" x2="0" y1="44" y2="4" gradientTransform="matrix(-1,0,0,1,432.57,499.8)" gradientUnits="userSpaceOnUse"><stop stop-color="#2f74c8" offset="0"/><stop stop-color="#4699d7" offset="1"/></linearGradient><linearGradient id="f" x1="405.57" x2="427.57" y1="509.8" y2="533.8" gradientUnits="userSpaceOnUse" xlink:href="#e"/></defs><g transform="matrix(.5 0 0 .5 -193.28 -250.9)" fill-rule="evenodd"><path d="m428.57 503.8v30h-20l-11 10v-10h-9v-30z" fill="url(#g)"/><path d="m402.57 534.8-6-6v-3l-3-3v-9h4l1 1v-1l20-6 10 7.461v18.539h-26z" fill="url(#f)" opacity=".2"/><path d="m419.57 521.8 9 9v-11l-5-5h-4z" fill="url(#h)" opacity=".2"/><path transform="translate(384.57,499.8)" d="m34 8-20 6v9l20 6v-15zm-25 6v9h4v-9zm26 1v7h4v-7zm-23 9v5h3v-5z" fill="url(#i)"/></g></svg>
