<?xml version="1.0" encoding="UTF-8"?>
<svg version="1.1" viewBox="0 0 22 22" xmlns="http://www.w3.org/2000/svg"><defs><style type="text/css">.ColorScheme-Text {
        color:#eff0f1;
      }</style></defs><path d="m10.998 1a5.0449 5 0 0 0-5.0449 5 5.0449 5 0 0 0 5.0449 5 5.0449 5 0 0 0 5.0449-5 5.0449 5 0 0 0-5.0449-5zm0 1.25a3.7837 3.75 0 0 1 3.7852 3.75 3.7837 3.75 0 0 1-3.7852 3.75 3.7837 3.75 0 0 1-3.7832-3.75 3.7837 3.75 0 0 1 3.7832-3.75zm0 10a10.09 10 0 0 0-9.998 8.75h1.2715a8.8286 8.75 0 0 1 8.7266-7.5 8.8286 8.75 0 0 1 3.9805 0.95312h2.3125a10.09 10 0 0 0-6.293-2.2031z" color="#eff0f1" fill="#2ca05a"/></svg>
