<?xml version="1.0" encoding="UTF-8"?>
<svg version="1.1" viewBox="0 0 22 22" xmlns="http://www.w3.org/2000/svg"><defs><style type="text/css">.ColorScheme-Text {
        color:#eff0f1;
      }</style></defs><path d="m2 1v20h11.571v-1.25h-10.286v-17.5h10.286v5h5.1429v7.5h1.2857v-8.7598l-5.1328-4.9902-0.01004 0.012207v-0.012207h-11.571z" fill="#232629"/><path d="m13.571 20.401h5.8129v-5.6514" fill="none" stroke="#232629" stroke-width="1.2142px"/><path class="ColorScheme-Text" d="m9.125 8s-3.125 7.5e-6 -3.125 3.125c0.62426-1.2485 1.221-1.4309 3.0908-1.4323-0.0075 6.8355-1.8393 6.8649-1.8408 7.9557 0.93802 0.72006 2.4038 0.32093 2.5114-1.0938l0.56315-6.8815 2.4902-0.0098-0.56478 6.9303c0 1.875 2.5 1.875 3.125 0l0.625-1.875c-0.625 1.25-2.4995 3.1254-2.4447 1.2174l0.52897-6.263 1.9157-0.0065v-1.6666z" color="#eff0f1" fill="#232629"/></svg>
