<?xml version="1.0" encoding="UTF-8"?>
<svg version="1.1" viewBox="0 0 22 22" xmlns="http://www.w3.org/2000/svg"><g transform="translate(-326 -534.36)"><g fill="#22a7f0"><rect x="326.5" y="535.99" width="0" height="11"/><rect x="321.94" y="538.51" width="0" height="11"/><rect x="317.44" y="526.09" width="0" height="11"/><rect x="318.28" y="538.32" width="0" height="11"/><rect x="313.73" y="540.84" width="0" height="11"/><rect x="309.22" y="528.43" width="0" height="11"/></g><path d="m327 535.36v20h20v-20zm1.25 1.25h7.5v1.25h1.25v-1.25h8.75v17.5h-17.5zm8.75 1.25v1.25h1.25v-1.25zm0 1.25h-1.25v1.25h1.25zm0 1.25v1.25h1.25v-1.25zm0 1.25h-1.25v1.25h1.25zm0 1.25v1.25h1.25v-1.25zm0 1.25h-1.25v1.25h1.25zm0 1.25v1.25h1.25v-1.25zm0 1.25h-1.25v2.5h2.5v-1.25h-1.25z" fill="#232629" stroke-width="2.5"/><g fill="#4d82b8"><path class="ColorScheme-Text" d="m339.57 542.36v0.90906h-8.5714v9.0909h12v-9.0909h-0.85714v-0.90906zm-7.7143 1.8182h10.286v7.2728h-10.286zm3.4286 0.9091a2.5714 2.7273 0 0 0-2.5714 2.7273 2.5714 2.7273 0 0 0 2.5714 2.7273 2.5714 2.7273 0 0 0 2.5714-2.7273 2.5714 2.7273 0 0 0-2.5714-2.7273zm0 0.9091a1.7143 1.8182 0 0 1 1.7143 1.8182 1.7143 1.8182 0 0 1-1.7143 1.8182 1.7143 1.8182 0 0 1-1.7143-1.8182 1.7143 1.8182 0 0 1 1.7143-1.8182z"/><path transform="translate(326 534.36)" d="m8.7905 15.162c-0.16085-0.05167-0.41324-0.19733-0.56087-0.3237-0.82094-0.7027-0.82136-2.0736-8.43e-4 -2.7759 0.25642-0.21948 0.75637-0.41978 1.0478-0.41978 0.30068 0 0.82726 0.21073 1.0544 0.42194l0.23662 0.22006-0.80686 0.0034v2.4529h0.33065c0.29342 0 0.32116 0.01143 0.24638 0.10154-0.27073 0.32621-1.035 0.48403-1.5472 0.3195z" stroke="#4d82b8" stroke-width=".1291"/><path transform="translate(326 534.36)" d="m9.8253 13.515v-1.1619h0.82492l0.13024 0.27708c0.2741 0.58312 0.23896 1.3106-0.08716 1.8046-0.15241 0.23088-0.17615 0.24206-0.5139 0.24206h-0.35411z" stroke="#4d82b8" stroke-width=".1291"/></g></g></svg>
