<?xml version="1.0" encoding="UTF-8"?>
<svg version="1.1" viewBox="0 0 22 22" xmlns="http://www.w3.org/2000/svg" xmlns:xlink="http://www.w3.org/1999/xlink"><defs><style type="text/css">.ColorScheme-Text {
        color:#eff0f1;
      }</style><linearGradient id="a" x1="34" x2="44" y1="19.008" y2="29.008" gradientUnits="userSpaceOnUse"><stop stop-color="#292c2f" offset="0"/><stop stop-opacity="0" offset="1"/></linearGradient><linearGradient id="d" x1="4" x2="4" y1="44" y2="4" gradientTransform="matrix(.25 0 0 .24998 -12.847 15.052)" gradientUnits="userSpaceOnUse"><stop stop-color="#54d883" offset="0"/><stop stop-color="#abf9c7" offset="1"/></linearGradient><linearGradient id="c" x1="34" x2="44" y1="19.008" y2="29.008" gradientTransform="matrix(.25 0 0 .24998 -12.847 15.052)" gradientUnits="userSpaceOnUse" xlink:href="#a"/><linearGradient id="e" x1="9" x2="38" y1="9" y2="38" gradientTransform="matrix(.25 0 0 .24998 -12.847 15.052)" gradientUnits="userSpaceOnUse" xlink:href="#a"/><linearGradient id="f" x1="4" x2="4" y1="44" y2="4" gradientTransform="matrix(.25 0 0 .24998 -12.847 15.052)" gradientUnits="userSpaceOnUse"><stop stop-color="#197cf1" offset="0"/><stop stop-color="#20bcfa" offset="1"/></linearGradient></defs><path class="ColorScheme-Text" d="m4.3333 3v1.6h-3.3333v14.4h20v-14.4h-3.3333v-1.6h-5v1.6h-3.3333v-1.6zm-1.6667 3.2h16.667v11.2h-16.667z" color="#eff0f1" fill="#232629"/><g transform="matrix(.9 0 0 .89986 17.663 -7.4428)" stroke-width=".24999"><ellipse cx="-6.8474" cy="21.051" rx="5" ry="4.9997" fill="url(#f)"/><path d="m-6.8474 16.051a5 4.9997 0 0 0-4.975 4.4997h0.725l0.75 0.74993 0.5 0.24983 2.7422 4.4872a5 4.9997 0 0 0 0.25775 0.01134 5 4.9997 0 0 0 5-4.9997 5 4.9997 0 0 0-5-4.9997z" fill="url(#e)" opacity=".2"/><path d="m-2.2009 19.21-1.6465 2.3416 1.5537 1.5536a5 4.9997 0 0 0 0.44625-2.0536 5 4.9997 0 0 0-0.34-1.8114 5 4.9997 0 0 0-0.013531-0.03024z" fill="url(#c)" fill-rule="evenodd" opacity=".2"/><path d="m-6.8474 16.051a5 4.9997 0 0 0-0.4755 0.02646 5 4.9997 0 0 0-0.063496 0.0076 5 4.9997 0 0 0-0.80475 0.15912v-0.0076a5 4.9997 0 0 0-2.425 1.5349h0.0025a5 4.9997 0 0 0-0.895 1.4861l0.41125-0.20561h1v0.24983l0.25 0.24983v-0.49996l0.5-0.49965h0.25v-0.24983l0.25-0.24983 0.5-0.24983 0.25-0.24983 0.5-0.24983v0.24983l0.5-0.24983h-0.25v-0.24983l-0.25-0.24983h1l-0.25 0.24983 0.75 0.24983-0.25-0.49999v-0.49996l-0.23675-0.2366a5 4.9997 0 0 0-0.26325-0.01134zm3.75 1.7024v0.54746h0.42275a5 4.9997 0 0 0-0.42275-0.54746zm-6.9845 0.01512h0.01523l-0.03073 0.03024 0.01576-0.03024zm7.506 0.69044-0.2715 0.09033-0.5 0.24983v0.24983l-0.5 0.49999-0.25 0.49996v0.99995l0.25 0.49996 0.5 0.24983 0.25 0.24983 1.1793-0.19616a5 4.9997 0 0 0 4.993e-4 -0.0076 5 4.9997 0 0 0 0.052252-0.43797 5 4.9997 0 0 0 0.01799-0.36019 5 4.9997 0 0 0-0.022488-0.43498 5 4.9997 0 0 0-0.024265-0.2022 5 4.9997 0 0 0-0.047497-0.30841 5 4.9997 0 0 0-0.033751-0.14929 5 4.9997 0 0 0-0.089261-0.34847 5 4.9997 0 0 0-0.036246-0.10809 5 4.9997 0 0 0-0.13476-0.36813 5 4.9997 0 0 0-0.037002-0.08239 5 4.9997 0 0 0-0.185-0.3812 5 4.9997 0 0 0-0.11825-0.20636zm-8.5215 1.5902-0.25 0.24983h-0.25l-0.1625-0.16252a5 4.9997 0 0 0 0 9.45e-4 5 4.9997 0 0 0-0.0665 0.49421 5 4.9997 0 0 0-5e-4 0.0076l0.4795 0.1595 0.5 0.24983 0.5 0.49965h0.5v0.49999l-0.25 0.2502-0.25 0.49996v0.24983l0.5 0.49965 0.25 0.49999 0.25 0.24983 0.5 0.24983v1.0799a5 4.9997 0 0 0 0.00151 4.91e-4 5 4.9997 0 0 0 0.42425 0.16139 5 4.9997 0 0 0 0.048 0.0189 5 4.9997 0 0 0 0.37825 0.10205 5 4.9997 0 0 0 0.11275 0.03024 5 4.9997 0 0 0 0.33 0.05405 5 4.9997 0 0 0 0.17 0.02646 5 4.9997 0 0 0 0.2875 0.0189 5 4.9997 0 0 0 0.24775 0.01134 5 4.9997 0 0 0 0.2545-0.0076l0.2455-0.49073v-0.24983l0.5-0.24983 0.25-0.24983 0.25-0.99995 0.25-0.24983v-0.49999l-0.5-0.25285h-0.25l-0.5-0.24983h-0.25l-0.25-0.50014-0.25-0.24983h-0.5l-0.5-0.5003h-0.5l-0.75-0.24983-0.25 0.49996-0.5-0.24983h-0.25001v-0.49996l-0.5-0.24983 0.25-0.49996z" fill="url(#d)"/><path d="m-11.835 20.926c-1e-3 0.04271-0.01277 0.08202-0.01277 0.1251 0 2.7698 2.23 4.9997 5 4.9997s5-2.2298 5-4.9997c0-0.04271-0.011792-0.08239-0.012775-0.1251-0.00741 0.30123-0.030236 0.59943-0.088505 0.88516a4.9725 4.9722 0 0 1-1.3602 2.5281 4.9875 4.9872 0 0 1-1.5887 1.0697 4.9542 4.9539 0 0 1-0.9395 0.29065 5.051 5.0507 0 0 1-1.01 0.10091c-0.34625 0-0.68425-0.03402-1.01-0.10091a4.9725 4.9722 0 0 1-2.5283-1.3602 4.9875 4.9872 0 0 1-1.0697-1.5886 4.9542 4.9539 0 0 1-0.2905-0.93944c-0.05825-0.28573-0.08075-0.58375-0.0885-0.88516" opacity=".2"/></g></svg>
