<?xml version="1.0" encoding="UTF-8"?>
<svg version="1.1" viewBox="0 0 48 48" xmlns="http://www.w3.org/2000/svg"><g transform="translate(-326 -508.36)"><g fill="#22a7f0"><rect x="326.5" y="535.99" width="0" height="11"/><rect x="321.94" y="538.51" width="0" height="11"/><rect x="317.44" y="526.09" width="0" height="11"/><rect x="318.28" y="538.32" width="0" height="11"/><rect x="313.73" y="540.84" width="0" height="11"/><rect x="309.22" y="528.43" width="0" height="11"/></g><path d="m328 510.36v44h44v-44zm2.75 2.75h16.5v2.75h2.75v-2.75h19.25v38.5h-38.5zm19.25 2.75v2.75h2.75v-2.75zm0 2.75h-2.75v2.75h2.75zm0 2.75v2.75h2.75v-2.75zm0 2.75h-2.75v2.75h2.75zm0 2.75v2.75h2.75v-2.75zm0 2.75h-2.75v2.75h2.75zm0 2.75v2.75h2.75v-2.75zm0 2.75h-2.75v5.5h5.5v-2.75h-2.75z" fill="#232629" stroke-width="5.5"/></g></svg>
