<?xml version="1.0" encoding="UTF-8"?>
<svg version="1.1" viewBox="0 0 22 22" xmlns="http://www.w3.org/2000/svg"><defs><style type="text/css">.ColorScheme-Text {
        color:#eff0f1;
      }</style></defs><path class="ColorScheme-Text" d="m1 1v20h20v-20zm1.25 1.25h17.5v17.5h-17.5zm4.375 1.25c-1.7312 0-3.125 1.3938-3.125 3.125s1.3938 3.125 3.125 3.125 3.125-1.3938 3.125-3.125-1.3938-3.125-3.125-3.125zm0 1.25c1.0388 0 1.875 0.83625 1.875 1.875s-0.83625 1.875-1.875 1.875-1.875-0.83625-1.875-1.875 0.83625-1.875 1.875-1.875zm8.1177 5-4.1821 4.1797-1.6772-1.6797-0.0073243 0.009765-0.0097655-0.009765-5.3662 5.3662 0.88379 0.88379 4.4897-4.4897 1.687 1.687 4.1895-4.1895 2.8662 2.8662 0.88379-0.88379-3.7402-3.7402-0.009765 0.009765z" color="#eff0f1" fill="#232629"/></svg>
