<?xml version="1.0" encoding="UTF-8"?>
<svg version="1.1" viewBox="0 0 22 22" xmlns="http://www.w3.org/2000/svg"><path d="m9.5837 1-7.5837 20h2.1696c0.2359 0 0.43607-0.06584 0.60017-0.19775 0.17436-0.13191 0.29254-0.28404 0.35407-0.45654l1.7076-4.7949h3.8622l2.0366-1.9775h-5.1906l2.8602-8.0371c0.092301-0.24353 0.18873-0.52734 0.29129-0.85205s0.20631-0.6813 0.30887-1.0669l3.0234 8.6987 1.0321-1.001c0.12526-0.12114 0.27486-0.21588 0.43945-0.27832 0.06448-0.14962 0.1583-0.28562 0.27623-0.40039l0.2235-0.21728-3.5633-9.4189zm8.8569 15.879-2.0717 2.0264 0.52232 1.4551c0.082049 0.18265 0.19542 0.33478 0.33901 0.45654 0.15384 0.12176 0.35401 0.1831 0.60017 0.1831h2.1696z" fill="#232629" stroke-width="1.2677"/><path class="ColorScheme-Text" d="m16.999 11-6.9987 6.9987v3.0013h3.0013l6.9987-6.9987zm-1.7074 2.9085 1.8001 1.8001-2.6449 2.6465v-0.56315l-0.84473 0.0179h-0.86263v-1.3509l1.2012-1.1995zm-3.3968 3.3952v1.3509h1.6895l0.0179 0.54362-0.90006 0.90169h-1.2012l-0.60059-0.60059v-1.2012z" fill="#232629"/></svg>
