<?xml version="1.0" encoding="UTF-8"?>
<svg version="1.1" viewBox="0 0 22 22" xmlns="http://www.w3.org/2000/svg" xmlns:xlink="http://www.w3.org/1999/xlink"><defs><linearGradient id="e" x1="8" x2="8" y1="25" y2="11" gradientUnits="userSpaceOnUse"><stop stop-color="#2e3436" offset="0"/><stop stop-color="#555753" offset="1"/></linearGradient></defs><linearGradient id="a"><stop offset="0"/><stop stop-opacity="0" offset="1"/></linearGradient><linearGradient id="h" x2="0" y1="543.8" y2="502.66" gradientTransform="matrix(.66667 0 0 .63518 128.19 198.52)" gradientUnits="userSpaceOnUse"><stop stop-color="#c6cdd1" offset="0"/><stop stop-color="#e0e5e7" offset="1"/></linearGradient><linearGradient id="g" x1="391.57" x2="406.57" y1="525.8" y2="540.8" gradientUnits="userSpaceOnUse" xlink:href="#a"/><linearGradient id="f" x1="11" x2="25" y1="14" y2="28" gradientTransform="matrix(.625 0 0 .64286 1 .71429)" gradientUnits="userSpaceOnUse" xlink:href="#a"/><g transform="matrix(.625 0 0 .64286 -239.36 -330.87)"><path d="m384.57 517.8h32v28h-32z" fill="url(#h)"/><path d="m385.57 543.8 30-20 1 1v21h-29z" fill="url(#g)" fill-rule="evenodd" opacity=".2"/><path d="m384.57 517.8h32v4h-32z" fill="#566069"/><path d="m384.57 521.8h32v1h-32z" fill="#3daee9"/><path d="m385.57 523.8h30v20h-30z" fill="#fff"/><rect x="413.57" y="518.8" width="2" height="2" rx="1" fill="#eff0f1"/></g><path d="m6 7.7857h10l4.375 4.5v6.4286h-10.625l-3.75-3.8571z" fill="url(#f)" opacity=".2" stroke-width=".63387"/><path d="m6.625 8.4286h8.75v5.7857h-8.75z" fill="#fcfcfc" stroke-width=".63387"/><g transform="matrix(.625 0 0 .64286 1 .71429)" fill="url(#e)"><path d="m16 12a9 9 0 0 0-7.877 4.668c0.129 0.364 0.357 0.677 0.656 0.908a8 8 0 0 1 7.221-4.576 4 4 0 0 0-4 4 4 4 0 0 0 4 4 4 4 0 0 0 4-4 4 4 0 0 0-3.65-3.982 8 8 0 0 1 6.87 4.558c0.302-0.234 0.533-0.55 0.66-0.918a9 9 0 0 0-7.88-4.658zm0 2a3 3 0 0 1 3 3 3 3 0 0 1-3 3 3 3 0 0 1-3-3 3 3 0 0 1 3-3zm0 1a2 2 0 0 0-2 2 2 2 0 0 0 2 2 2 2 0 0 0 2-2 2 2 0 0 0-0.09-0.588 1 1 0 0 1-0.91 0.588 1 1 0 0 1-1-1 1 1 0 0 1 0.59-0.91 2 2 0 0 0-0.59-0.09z"/><path d="m8 11v11h7v2h-3v1h8v-1h-3v-2h7v-11h-15zm1 1h14v9h-14z"/></g></svg>
