<?xml version="1.0" encoding="UTF-8"?>
<svg version="1.1" viewBox="0 0 22 22" xmlns="http://www.w3.org/2000/svg"><defs><style type="text/css">.ColorScheme-Text {
        color:#eff0f1
      }</style></defs><path class="ColorScheme-Text" d="m11 1a10 3.75 0 0 0-10 3.75v12.5a10 3.75 0 0 0 10 3.75 10 3.75 0 0 0 10-3.75v-12.5a10 3.75 0 0 0-10-3.75zm0 1.25a8.75 2.5 0 0 1 8.75 2.5 8.75 2.5 0 0 1-8.75 2.5 8.75 2.5 0 0 1-8.75-2.5 8.75 2.5 0 0 1 8.75-2.5zm8.75 4.3066v4.4434a8.75 2.5 0 0 1-8.75 2.5 8.75 2.5 0 0 1-8.75-2.5v-4.436a10 3.75 0 0 0 8.75 1.936 10 3.75 0 0 0 8.75-1.9434zm0 6.25v4.4434a8.75 2.5 0 0 1-8.75 2.5 8.75 2.5 0 0 1-8.75-2.5v-4.436a10 3.75 0 0 0 8.75 1.936 10 3.75 0 0 0 8.75-1.9434z" color="#eff0f1" fill="#232629"/></svg>
