<?xml version="1.0" encoding="UTF-8"?>
<svg version="1.1" viewBox="0 0 22 22" xmlns="http://www.w3.org/2000/svg"><defs><style type="text/css">.ColorScheme-Text {
        color:#eff0f1;
      }</style></defs><path class="ColorScheme-Text" d="m3.5 1v2.5h-2.5v3.75h2.5v7.5h-2.5v3.75h2.5v2.5h17.5v-20h-17.5m1.25 1.25h2.5v17.5h-2.5v-17.5m3.75 0h11.25v17.5h-11.25v-17.5" color="#eff0f1" fill="#232629"/><path class="ColorScheme-Text" d="m14 7a4 4 0 0 0-4 4 4 4 0 0 0 4 4 4 4 0 0 0 4-4 4 4 0 0 0-4-4zm-4 0.66667v1.3333l1.3333-1.3333zm4 0a3.3333 3.3333 0 0 1 1.5938 0.40625l-1.0143 1.0143a2 2 0 0 0-0.57943-0.08724 2 2 0 0 0-0.57943 0.08724l-1.0117-1.0117a3.3333 3.3333 0 0 1 1.5911-0.40885zm2.6667 0 1.3333 1.3333v-1.3333zm-5.5938 1.7396 1.0143 1.0143a2 2 0 0 0-0.087239 0.57943 2 2 0 0 0 0.08724 0.57943l-1.0117 1.0117a3.3333 3.3333 0 0 1-0.40886-1.5911 3.3333 3.3333 0 0 1 0.40625-1.5938zm5.8516 0.0026a3.3333 3.3333 0 0 1 0.40885 1.5911 3.3333 3.3333 0 0 1-0.40625 1.5938l-1.0143-1.0143a2 2 0 0 0 0.08724-0.57943 2 2 0 0 0-0.08724-0.57943zm-2.9245 0.25781a1.3333 1.3333 0 0 1 1.3333 1.3333 1.3333 1.3333 0 0 1-1.3333 1.3333 1.3333 1.3333 0 0 1-1.3333-1.3333 1.3333 1.3333 0 0 1 1.3333-1.3333zm-0.57943 3.2461a2 2 0 0 0 0.57943 0.08724 2 2 0 0 0 0.57943-0.08724l1.0117 1.0117a3.3333 3.3333 0 0 1-1.5911 0.40885 3.3333 3.3333 0 0 1-1.5938-0.40625zm-3.4206 0.08724v1.3333h1.3333zm8 0-1.3333 1.3333h1.3333z" color="#eff0f1" fill="#232629"/></svg>
