<?xml version="1.0" encoding="UTF-8"?>
<svg version="1.1" viewBox="0 0 22 22" xmlns="http://www.w3.org/2000/svg"><defs><style type="text/css">.ColorScheme-Text {
        color:#eff0f1;
      }</style></defs><path d="m3.5 1v2.5h-2.5v3.75h2.5v7.5h-2.5v3.75h2.5v2.5h7.5v-1.25h-6.25v-13.75h15v5h1.25v-10h-17.5zm1.25 1.25h15v2.5h-15v-2.5z" color="#eff0f1" fill="#232629"/><path class="ColorScheme-Text" d="m12 12.5v8.4969h4.5v-0.53096h-2.5v-3.186h2.5v-0.531h-3v3.717h-1v-7.4339h1.5v2.655h4v-2.655h0.14648l1.3535 1.4374v1.7486h0.5v-1.9643h-0.0039l0.0039-0.0051-1.6465-1.7486-0.0039 0.0051v-0.0051h-0.34961zm2.5 0.53203h1.9502v2.124h-1.9502zm5.5 3.717-0.49805 0.52788h-0.0019l-2.5 2.6539 0.0039 0.0051-0.0019 0.53307h-0.0019v0.531h1l0.0029-0.0051h0.0068l-0.0029-0.0051 0.49316-0.52374 2-2.1219-0.35254-0.37647-2.4951 2.6477-0.29688-0.31424 2.4961-2.6488 0.2959 0.31528 0.35254 0.37336 0.49996-0.531z" color="#eff0f1" fill="#232629"/></svg>
