<?xml version="1.0" encoding="UTF-8"?>
<svg version="1.1" viewBox="0 0 22 22" xmlns="http://www.w3.org/2000/svg"><defs><style type="text/css">.ColorScheme-Text {
        color:#eff0f1;
      }</style></defs><path d="m3.5 1v2.5h-2.5v3.75h2.5v7.5h-2.5v3.75h2.5v2.5h7.5v-1.25h-6.25v-13.75h15v5h1.25v-10h-17.5zm1.25 1.25h15v2.5h-15v-2.5z" color="#eff0f1" fill="#232629"/><path d="m14.75 12.25c1.385 0 2.5 1.115 2.5 2.5s-1.115 2.5-2.5 2.5-2.5-1.115-2.5-2.5 1.115-2.5 2.5-2.5m0-1.25c-2.0775 0-3.75 1.6725-3.75 3.75s1.6725 3.75 3.75 3.75c0.81174 0 1.5579-0.26073 2.1704-0.6958l3.1958 3.1958 0.88379-0.88379-3.1958-3.1958c0.43507-0.61247 0.6958-1.3587 0.6958-2.1704 0-2.0775-1.6725-3.75-3.75-3.75" color="#eff0f1" fill="#232629"/></svg>
