<?xml version="1.0" encoding="UTF-8"?>
<svg width="48" height="48" version="1.1" viewBox="0 0 12.7 12.7" xmlns="http://www.w3.org/2000/svg"><g transform="translate(0 -284.3)"><g transform="matrix(.16848 0 0 .17114 -13.238 233.74)"><g fill="none" stroke="#000" stroke-width=".26458px"><path d="m118.28 306.56 24.296 39.595 8.0688-13.372-15.86-26.144z"/><path d="m118.4 358.41 15.327-26.548 8.852 14.302-7.2814 12.548z"/><path d="m114.23 358.55-24.296-39.595-8.0688 13.372 15.86 26.144z"/><path d="m114.11 306.71-15.327 26.548-8.852-14.302 7.2814-12.548z"/></g><g stroke-width="1.4286"><path transform="matrix(.26458 0 0 .26458 0 229.27)" d="m357.13 365.26c-8.6429-13.995-15.806-25.67-15.918-25.945s5.8423-10.912 13.232-23.639l13.436-23.139 22.125 0.27632c12.169 0.15198 26.054 0.47341 30.856 0.71429l8.7307 0.43796-27.841 48.214c-15.313 26.518-28.081 48.284-28.374 48.369-0.29267 0.0852-7.6036-11.295-16.246-25.29z" fill="#d43f36" stroke="#d43f36"/><path transform="matrix(.26458 0 0 .26458 0 229.27)" d="m372.93 487.25-3.4798-0.4235-29.293-48.214c-16.111-26.518-29.304-48.568-29.318-48.999-0.0134-0.43185 6.5094-11.599 14.495-24.817 12.505-20.698 14.637-23.859 15.369-22.786 0.46713 0.68483 18.787 30.495 40.712 66.245 21.924 35.75 41.896 68.295 44.381 72.321l4.519 7.3214-26.953-0.11221c-14.824-0.0617-28.518-0.3028-30.432-0.53572z" fill="#4585f4" stroke="#4585f4"/><path transform="matrix(.26458 0 0 .26458 0 229.27)" d="m493.83 366.73c-24.508-39.924-44.668-72.871-44.799-73.214-0.26874-0.70508 48.374-0.85844 55.595-0.17528l4.6429 0.43925 28.429 46.877c15.636 25.782 28.941 47.714 29.567 48.738 1.1259 1.8409 0.98313 2.1174-13.375 25.893-7.9824 13.218-14.735 24.032-15.006 24.032-0.27105 0-20.545-32.665-45.054-72.59z" fill="#099e57" stroke="#099e57"/><path transform="matrix(.26458 0 0 .26458 0 229.27)" d="m476.53 487.83c-14.864-0.29748-27.105-0.64702-27.203-0.77677-0.2692-0.35971 55.595-96.981 56.085-97.003 0.82593-0.0366 31.663 50.354 31.68 51.767 9e-3 0.78572-5.9199 11.634-13.175 24.107l-13.192 22.679-3.5845-0.1161c-1.9715-0.0639-15.746-0.35948-30.611-0.65696z" fill="#f7c542" stroke="#f7c542"/></g></g></g></svg>
