<?xml version="1.0" encoding="UTF-8"?>
<svg version="1.1" viewBox="0 0 22 22" xmlns="http://www.w3.org/2000/svg"><defs><style type="text/css">.ColorScheme-Text {
        color:#232629;
      }</style></defs><path class="ColorScheme-Text" d="m10.959 1c-2.2762 0-4.4289 0.527-6.4594 1.5796l1.0105 2.2339c1.0152-0.4794 1.9275-0.82185 2.7396-1.0303 0.82286-0.20841 1.6613-0.3125 2.5162-0.3125 1.2824 0 2.2664 0.27531 2.9504 0.82764 0.68393 0.55234 1.0258 1.3438 1.0258 2.3755 0 0.55234-0.07383 1.0382-0.22344 1.4551-0.1496 0.41685-0.406 0.83314-0.76934 1.25-0.36332 0.41686-1.128 1.1042-2.2928 2.063-1.4301 1.2542-2.9264 3.4819-3.057 5.8081h2.6l-0.0076-0.03906c0-0.94835 0.17091-1.7095 0.51289-2.2827 0.35266-0.58361 1.0571-1.3188 2.115-2.2046 1.2931-1.0526 2.1548-1.844 2.5822-2.3755 0.43815-0.5315 0.76382-1.093 0.97754-1.687 0.21383-0.59404 0.31991-1.2771 0.31991-2.0483 0-1.7717-0.58205-3.1488-1.7469-4.1284-1.1648-0.99005-2.7633-1.4844-4.7937-1.4844zm-2.5594 17.5v2.5h2.6v-2.5z" color="#232629" fill="currentColor"/></svg>
