<?xml version="1.0" encoding="UTF-8"?>
<svg version="1.1" viewBox="0 0 22 22" xmlns="http://www.w3.org/2000/svg"><defs><style type="text/css">.ColorScheme-Text {
        color:#eff0f1;
      }</style></defs><path class="ColorScheme-Text" d="m13 7c0 1.0813-0.28719 2.092-0.78369 2.9663l-0.55371-0.55371 0.0015-0.00144-2.083-2.0845 0.53027-0.53027 1.8604 1.8618c0.17447-0.52172 0.27828-1.0761 0.27828-1.6582 0-2.9085-2.3415-5.25-5.25-5.25-0.87187 0-1.6904 0.21437-2.4126 0.5874l-0.55371-0.55371c0.87435-0.49654 1.885-0.78369 2.9663-0.78369 3.324 0 6 2.676 6 6zm-3.0337 5.2163c-0.87435 0.49654-1.885 0.78369-2.9663 0.78369-3.324 0-6-2.676-6-6 0-1.0813 0.28719-2.092 0.78369-2.9663l0.5127 0.5127 0.00149-0.00144 2.1211 2.1211-0.53027 0.53027-1.8589-1.8589c-0.17548 0.52295-0.27982 1.0789-0.27982 1.6626 0 2.9085 2.3415 5.25 5.25 5.25 0.87187 0 1.6904-0.21437 2.4126-0.5874z" color="#eff0f1" fill="#ffb380" stroke-width=".75"/><path class="ColorScheme-NegativeText" d="m12.414 11-1.414 1.414 3.586 3.586-3.586 3.586 1.414 1.414 3.586-3.586 3.586 3.586 1.414-1.414-3.586-3.586 3.586-3.586-1.414-1.414-3.586 3.586z" fill="#da4453"/></svg>
