<?xml version="1.0" encoding="UTF-8"?>
<svg version="1.1" viewBox="0 0 48 48" xmlns="http://www.w3.org/2000/svg"><g transform="translate(0 -1004.4)" fill="#f27935"><path d="m2 1006.4v5.5a38.5 38.5 0 0 1 38.5 38.5h5.5a44 44 0 0 0-44-44zm0 13.75v5.5a24.75 24.75 0 0 1 24.75 24.75h5.5a30.25 30.25 0 0 0-30.25-30.25zm6.875 16.5a6.875 6.875 0 0 0-6.875 6.875 6.875 6.875 0 0 0 6.875 6.875 6.875 6.875 0 0 0 6.875-6.875 6.875 6.875 0 0 0-6.875-6.875z" fill="#fc963a" stroke-linecap="round" stroke-width=".275"/></g></svg>
