<?xml version="1.0" encoding="UTF-8"?>
<svg version="1.1" viewBox="0 0 22 22" xmlns="http://www.w3.org/2000/svg"><defs><linearGradient id="a" x2="0" y1="543.8" y2="502.66" gradientTransform="matrix(.41667 0 0 .40833 225.33 322.55)" gradientUnits="userSpaceOnUse"><stop stop-color="#c6cdd1" offset="0"/><stop stop-color="#e0e5e7" offset="1"/></linearGradient><linearGradient id="b" x1="391.57" x2="406.57" y1="525.8" y2="540.8" gradientTransform="matrix(.625 0 0 .64286 145.21 194.93)" gradientUnits="userSpaceOnUse"><stop offset="0"/><stop stop-opacity="0" offset="1"/></linearGradient></defs><g transform="translate(-384.57 -525.8)"><g stroke-width=".63387"><rect x="385.57" y="527.8" width="20" height="18" rx="0" fill="url(#a)"/><path d="m386.2 544.51 18.75-12.857 0.625 0.64286v13.5l-18.125 2e-5z" fill="url(#b)" fill-rule="evenodd" opacity=".2"/><rect x="385.57" y="527.8" width="20" height="2.5714" fill="#566069"/><rect x="385.57" y="530.37" width="20" height=".64286" fill="#3daee9"/><rect x="386.2" y="531.66" width="18.75" height="12.857" fill="#fff"/><rect x="403.7" y="528.44" width="1.25" height="1.2857" rx=".625" fill="#eff0f1"/></g><path d="m392.95 535.08h1.6667v1.7143h1.6667v-1.7143h1.6667l-2.5-3.4286-2.5 3.4286" fill="#da4453"/><path d="m392.95 541.08h1.6667v-1.7143h1.6667v1.7143h1.6667l-2.5 3.4286-2.5-3.4286" fill="#da4453"/></g></svg>
