<?xml version="1.0" encoding="UTF-8"?>
<svg version="1.1" viewBox="0 0 22 22" xmlns="http://www.w3.org/2000/svg"><defs><style type="text/css">.ColorScheme-Text {
        color:#eff0f1;
      }
      .ColorScheme-NeutralText {
        color:#f67400;
      }</style></defs><path class="ColorScheme-Text" d="m10.412 0.99995s-2.3529 3.3219-9.4118 4.1553c0 0 0 11.667 9.4118 15.845 9.4118-4.1774 9.4118-15.845 9.4118-15.845-7.0588-0.83338-9.4118-4.1553-9.4118-4.1553zm0 1.7212c1.8671 1.681 4.5614 2.8022 8.0538 3.3667-0.18972 1.8065-0.37162 3.166-0.81112 4.48-0.92364 2.7614-2.0006 4.4413-2.9665 5.6494-1.4967 1.8721-2.856 2.6298-4.2762 3.3838-1.4202-0.75396-2.7795-1.5117-4.2762-3.3838-0.9659-1.2081-2.0428-2.888-2.9665-5.6494-0.4395-1.314-0.62141-2.6735-0.81112-4.48 3.4924-0.56448 6.1867-1.6857 8.0538-3.3667zm0 1.499c-2.0512 1.5128-4.3555 2.279-6.6682 2.8003 1.0951 6.6025 3.4542 9.4259 6.6682 11.194z" color="#eff0f1" fill="#232629"/><path class="ColorScheme-NeutralText" d="m15.706 10.997h0.0046a0.58824 0.625 0 0 1 0.517 0.33688h0.0046l4.6898 8.7182h-0.0024a0.58824 0.625 0 0 1 0.08042 0.315 0.58824 0.625 0 0 1-0.58824 0.625h-9.4118a0.58824 0.625 0 0 1-0.58824-0.625 0.58824 0.625 0 0 1 0.08042-0.315h-0.0024l4.6899-8.7159h0.0024a0.58824 0.625 0 0 1 0.0024 0 0.58824 0.625 0 0 1 0.5216-0.33938z" color="#f67400" fill="currentColor"/><path d="m15.118 13.5v3.75h1.1765v-3.75zm0 5v1.25h1.1765v-1.25z" fill="#fff"/></svg>
