<?xml version="1.0" encoding="UTF-8"?>
<svg version="1.1" viewBox="0 0 32 32" xmlns="http://www.w3.org/2000/svg"><defs><style type="text/css">.ColorScheme-Text {
        color:#eff0f1;
      }
      .ColorScheme-PositiveText {
        color:#27ae60;
      }</style></defs><path class="ColorScheme-Text" d="m16 0.99992s-3.75 4.9828-15 6.2329c0 0 0 17.501 15 23.767 15-6.2661 15-23.767 15-23.767-11.25-1.2501-15-6.2329-15-6.2329zm0 2.5818c2.9756 2.5213 7.2697 4.2033 12.836 5.05-0.30236 2.7098-0.59226 4.749-1.2927 6.72-1.472 4.1421-3.1884 6.6619-4.7278 8.4741-2.3854 2.8082-4.5517 3.9447-6.8152 5.0757-2.2635-1.131-4.4298-2.2675-6.8152-5.0757-1.5394-1.8122-3.2557-4.3321-4.7278-8.4741-0.70046-1.971-0.99036-4.0102-1.2927-6.72 5.566-0.84675 9.8601-2.5287 12.836-5.05zm0 2.2485c-3.269 2.2693-6.9415 3.4186-10.627 4.2004 1.7453 9.9037 5.5052 14.139 10.627 16.791 5.1223-2.652 8.8821-6.887 10.627-16.791-3.6859-0.78188-7.3584-1.9311-10.627-4.2004z" color="#eff0f1" fill="#232629"/><path class="ColorScheme-PositiveText" d="m23.5 16c4.155 0 7.5 3.345 7.5 7.5s-3.345 7.5-7.5 7.5-7.5-3.345-7.5-7.5 3.345-7.5 7.5-7.5z" color="#27ae60" fill="currentColor"/><path d="m27.25 19.75-5.625 5.625-1.875-1.875-1.875 1.875 3.75 3.75 7.5-7.5z" fill="#fff" stroke-width="1.875"/></svg>
