<?xml version="1.0" encoding="UTF-8"?>
<svg version="1.1" viewBox="0 0 32 32" xmlns="http://www.w3.org/2000/svg"><defs><style type="text/css">.ColorScheme-Text {
        color:#eff0f1;
      }
      .ColorScheme-NeutralText {
        color:#f67400;
      }</style></defs><path class="ColorScheme-Text" d="m15.118 0.99992s-3.5294 4.9828-14.118 6.2329c0 0 0 17.501 14.118 23.767 14.118-6.2661 14.118-23.767 14.118-23.767-10.588-1.2501-14.118-6.2329-14.118-6.2329zm0 2.5818c2.8006 2.5215 6.8421 4.2033 12.081 5.05-0.28458 2.7098-0.55743 4.749-1.2167 6.72-1.3855 4.1421-3.0008 6.6619-4.4497 8.4741-2.2451 2.8081-4.284 3.9447-6.4143 5.0757-2.1303-1.1309-4.1692-2.2676-6.4143-5.0757-1.4488-1.8122-3.0642-4.3321-4.4497-8.4741-0.65926-1.971-0.93211-4.0102-1.2167-6.72 5.2386-0.84672 9.2801-2.5286 12.081-5.05zm0 2.2485c-3.0768 2.2693-6.5332 3.4185-10.002 4.2004 1.6427 9.9037 5.1813 14.139 10.002 16.791z" color="#eff0f1" fill="#232629"/><path class="ColorScheme-NeutralText" d="m23.059 15.996h0.0069a0.88236 0.9375 0 0 1 0.77551 0.50531h0.0069l7.0347 13.077h-0.0035a0.88236 0.9375 0 0 1 0.12057 0.4725 0.88236 0.9375 0 0 1-0.88236 0.9375h-14.118a0.88236 0.9375 0 0 1-0.88236-0.9375 0.88236 0.9375 0 0 1 0.12064-0.4725h-0.0035l7.0347-13.074h0.0035a0.88236 0.9375 0 0 1 0.0035 0 0.88236 0.9375 0 0 1 0.7824-0.50906z" color="#f67400" fill="currentColor"/><path d="m22.177 19.75v5.625h1.7647v-5.625zm0 7.5v1.875h1.7647v-1.875z" fill="#fff"/></svg>
