<?xml version="1.0" encoding="UTF-8"?>
<svg version="1.1" viewBox="0 0 22 22" xmlns="http://www.w3.org/2000/svg"><defs><style type="text/css">.ColorScheme-Text {
        color:#eff0f1;
      }
      .ColorScheme-Highlight {
        color:#3daee9;
      }</style></defs><path d="m1 1v20h9v-1.25h-7.75v-13.75h5v-5h-6.25zm13.75 0v5h5v4h1.25v-9h-6.25zm-5.7148 7.5c-1.3326 0-1.8926 0.43933-1.8926 1.5664v1.5293c0 0.69614-0.025631 1.502-0.76172 1.502h-0.38086v0.80469h0.38086c0.73611 0 0.76172 0.80581 0.76172 1.502v1.5273c0 1.1271 0.55997 1.5684 1.8926 1.5684v-0.74023c-0.8884 0-0.90234-0.29797-0.90234-1.3809v-1.2598c0-0.51932-0.15354-1.2928-0.90234-1.6133 0.7488-0.32044 0.90234-1.092 0.90234-1.6113v-1.2734c0-1.0829 0.013969-1.3809 0.90234-1.3809v-0.74023zm3.9199 0v0.74023c0.6831 0 0.85393 0.18581 0.89648 0.75977h1.002c-0.023746-1.0747-0.59411-1.5-1.8984-1.5z" color="#eff0f1" fill="#232629"/><path d="M 7.5,1 11,6.25 14.5,1 Z" fill="#f60" fill-rule="evenodd" stroke-width="1.75"/><path class="ColorScheme-NegativeText" d="m12.414 11-1.414 1.414 3.586 3.586-3.586 3.586 1.414 1.414 3.586-3.586 3.586 3.586 1.414-1.414-3.586-3.586 3.586-3.586-1.414-1.414-3.586 3.586z" fill="#da4453"/></svg>
