<?xml version="1.0" encoding="UTF-8"?>
<svg version="1.1" viewBox="0 0 22 22" xmlns="http://www.w3.org/2000/svg"><defs><style type="text/css">.ColorScheme-Text {
        color:#eff0f1;
      }</style></defs><path class="ColorScheme-Text" d="m11 1.6977c-2.3577 0-4.5015 0.87988-6.141 2.3256-0.14679 0.12944-0.29771 0.26137-0.43605 0.39971l-0.39971 0.43605c-1.4457 1.6395-2.3256 3.7833-2.3256 6.141 0 5.1375 4.1648 9.3023 9.3023 9.3023 2.3577 0 4.5015-0.87988 6.141-2.3256l0.43605-0.39971c0.13834-0.13834 0.27027-0.28926 0.39971-0.43605 1.4457-1.6395 2.3256-3.7833 2.3256-6.141 0-5.1375-4.1648-9.3023-9.3023-9.3023m0 1.1628c4.4953 0 8.1395 3.6442 8.1395 8.1395 0 2.0391-0.75955 3.8771-1.9985 5.3052l-11.446-11.446c1.4282-1.239 3.2661-1.9985 5.3052-1.9985m-6.141 2.8343 11.446 11.446c-1.4282 1.239-3.2661 1.9985-5.3052 1.9985-4.4953 0-8.1395-3.6442-8.1395-8.1395 0-2.0391 0.75955-3.8771 1.9985-5.3052" color="#eff0f1" fill="#da4453" stroke="#da4453" stroke-width="1.3953"/></svg>
