<?xml version="1.0" encoding="UTF-8"?>
<svg version="1.1" viewBox="0 0 22 22" xmlns="http://www.w3.org/2000/svg"><defs><style type="text/css">.ColorScheme-Text {
        color:#eff0f1
      }</style></defs><path d="m11 1a10 3.75 0 0 0-10 3.75v12.5a10 3.75 0 0 0 9 3.7266v-1.2441a8.75 2.5 0 0 1-7.75-2.4824v-4.4355a10 3.75 0 0 0 7.75 1.9121v-1.2441a8.75 2.5 0 0 1-7.75-2.4824v-4.4355a10 3.75 0 0 0 8.75 1.9355 10 3.75 0 0 0 8.75-1.9434v3.4434h1.25v-5.25a10 3.75 0 0 0-10-3.75zm0 1.25a8.75 2.5 0 0 1 8.75 2.5 8.75 2.5 0 0 1-8.75 2.5 8.75 2.5 0 0 1-8.75-2.5 8.75 2.5 0 0 1 8.75-2.5z" color="#eff0f1" fill="#232629"/><path d="m14.333 21v-3.3333h-3.3333v-3.3333h3.3333v-3.3333l6.6667 5-6.6667 5" fill="#ff7f2a"/></svg>
