<?xml version="1.0" encoding="UTF-8"?>
<svg version="1.1" viewBox="0 0 22 22" xmlns="http://www.w3.org/2000/svg"><defs><style type="text/css">.ColorScheme-Text {
        color:#eff0f1
      }</style></defs><path d="m11 1a10 3.75 0 0 0-10 3.75v12.5a10 3.75 0 0 0 9 3.7266v-1.2441a8.75 2.5 0 0 1-7.75-2.4824v-4.4355a10 3.75 0 0 0 7.75 1.9121v-1.2441a8.75 2.5 0 0 1-7.75-2.4824v-4.4355a10 3.75 0 0 0 7.75 1.9121v-1.2441a8.75 2.5 0 0 1-7.75-2.4824 8.75 2.5 0 0 1 8.75-2.5 8.75 2.5 0 0 1 8.6973 2.25h1.2695a10 3.75 0 0 0-9.9668-3.5z" color="#eff0f1" fill="#232629"/><path class="ColorScheme-Text" d="m16 5.5c-2.7614 0-5 2.2412-5 5.0059s2.2386 5.0059 5 5.0059 5-2.2412 5-5.0059-2.2386-5.0059-5-5.0059zm0 0.83432c2.3012 0 4.1667 1.8677 4.1667 4.1716s-1.8655 4.1716-4.1667 4.1716-4.1667-1.8677-4.1667-4.1716 1.8655-4.1716 4.1667-4.1716zm-0.83333 0.83432v4.1716h4.1667v-0.83432h-3.3333v-3.3373z" color="#eff0f1" fill="#ff9000"/><path class="ColorScheme-Text" d="m18.599 12.991-5.599 5.6056v2.4039h2.401l5.599-5.6056zm-1.3659 2.3296 1.4401 1.4418-2.1159 2.1197v-0.45105l-0.67578 0.01433h-0.6901v-1.082l0.96094-0.96077zm-2.7174 2.7194v1.082h1.3516l0.01432 0.43541-0.72005 0.72221h-0.96094l-0.48047-0.48104v-0.96207z" color="#eff0f1" fill="#ff9000"/></svg>
