<?xml version="1.0" encoding="UTF-8"?>
<svg version="1.1" viewBox="0 0 22 22" xmlns="http://www.w3.org/2000/svg"><defs><style type="text/css">.ColorScheme-Text {
        color:#eff0f1
      }</style></defs><path d="m11 1a10 3.75 0 0 0-10 3.75v12.5a10 3.75 0 0 0 10 3.75 10 3.75 0 0 0 1-0.019531v-1.25a8.75 2.5 0 0 1-1 0.019531 8.75 2.5 0 0 1-8.75-2.5v-4.4355a10 3.75 0 0 0 8.75 1.9355 10 3.75 0 0 0 1-0.019531v-1.25a8.75 2.5 0 0 1-1 0.019531 8.75 2.5 0 0 1-8.75-2.5v-4.4355a10 3.75 0 0 0 8.75 1.9355 10 3.75 0 0 0 8.75-1.9434v3.4434h1.25v-5.25a10 3.75 0 0 0-10-3.75zm0 1.25a8.75 2.5 0 0 1 8.75 2.5 8.75 2.5 0 0 1-8.75 2.5 8.75 2.5 0 0 1-8.75-2.5 8.75 2.5 0 0 1 8.75-2.5z" color="#eff0f1" fill="#232629"/><g transform="matrix(.71275 0 0 .75612 11.298 -773.67)" fill="#ff2a2a" stroke="#ff2a2a" stroke-width="1.2247"><path class="ColorScheme-Text" d="m8 1038.4c-1.662 0-3 1.338-3 3v3h-2v6h10v-6h-2v-3c0-1.662-1.338-3-3-3zm0 1c1.2465 0 2 0.5458 2 2v3h-4v-3c0-1.4542 0.75351-2 2-2zm-4 6h8v4h-8z" color="#eff0f1" fill="#ff2a2a" stroke="#ff2a2a" stroke-width="1.2247"/></g><path d="m13.882 18.268v-1.8147h6.2365v3.6294h-6.2365z" fill="#ff2a2a" stroke-width="0"/></svg>
