<?xml version="1.0" encoding="UTF-8"?>
<svg version="1.1" viewBox="0 0 22 22" xmlns="http://www.w3.org/2000/svg"><defs><style type="text/css">.ColorScheme-Text {
        color:#eff0f1;
      }</style></defs><path class="ColorScheme-Text" d="m1 1v20h20v-20zm1.25 5h17.5v13.75h-17.5z" color="#eff0f1" fill="#232629"/><path class="ColorScheme-Text" d="m11 7a6 2.25 0 0 0-6 2.25v7.5a6 2.25 0 0 0 6 2.25 6 2.25 0 0 0 6-2.25v-7.5a6 2.25 0 0 0-6-2.25zm0 0.75a5.25 1.5 0 0 1 5.25 1.5 5.25 1.5 0 0 1-5.25 1.5 5.25 1.5 0 0 1-5.25-1.5 5.25 1.5 0 0 1 5.25-1.5zm5.25 2.584v2.666a5.25 1.5 0 0 1-5.25 1.5 5.25 1.5 0 0 1-5.25-1.5v-2.6616a6 2.25 0 0 0 5.25 1.1616 6 2.25 0 0 0 5.25-1.166zm0 3.75v2.666a5.25 1.5 0 0 1-5.25 1.5 5.25 1.5 0 0 1-5.25-1.5v-2.6616a6 2.25 0 0 0 5.25 1.1616 6 2.25 0 0 0 5.25-1.166z" color="#eff0f1" fill="#ff9000"/></svg>
