<?xml version="1.0" encoding="UTF-8"?>
<svg version="1.1" viewBox="0 0 22 22" xmlns="http://www.w3.org/2000/svg"><defs><style type="text/css">.ColorScheme-Text {
        color:#eff0f1
      }</style></defs><path d="m11 1a10 3.75 0 0 0-10 3.75v12.5a10 3.75 0 0 0 9 3.7266v-1.2441a8.75 2.5 0 0 1-7.75-2.4824v-4.4355a10 3.75 0 0 0 7.75 1.9121v-1.2441a8.75 2.5 0 0 1-7.75-2.4824v-4.4355a10 3.75 0 0 0 8.75 1.9355 10 3.75 0 0 0 8.75-1.9434v2.4434h1.25v-4.25a10 3.75 0 0 0-10-3.75zm0 1.25a8.75 2.5 0 0 1 8.75 2.5 8.75 2.5 0 0 1-8.75 2.5 8.75 2.5 0 0 1-8.75-2.5 8.75 2.5 0 0 1 8.75-2.5z" color="#eff0f1" fill="#232629"/><path d="m12.5 10a0.5 0.5 0 0 1 0.5 0.5 0.5 0.5 0 0 1-0.5 0.5 0.5 0.5 0 0 1-0.5-0.5 0.5 0.5 0 0 1 0.5-0.5zm0-1a1.5 1.5 0 0 0-1.5 1.5 1.5 1.5 0 0 0 1 1.4121v6.0879c0 1.105 0.895 2 2 2h1v1l2-1.5-2-1.5v1h-1c-0.552 0-1-0.448-1-1v-6.0879a1.5 1.5 0 0 0 1-1.4121 1.5 1.5 0 0 0-1.5-1.5z" color="#eff0f1" fill="#ff9000"/><path d="m19.5 19a0.5 0.5 0 0 1 0.5 0.5 0.5 0.5 0 0 1-0.5 0.5 0.5 0.5 0 0 1-0.5-0.5 0.5 0.5 0 0 1 0.5-0.5zm-2.5-10-2 1.5 2 1.5v-1h1c0.552 0 1 0.448 1 1v6.0879a1.5 1.5 0 0 0-1 1.4121 1.5 1.5 0 0 0 1.5 1.5 1.5 1.5 0 0 0 1.5-1.5 1.5 1.5 0 0 0-1-1.4121v-6.0879c0-1.105-0.895-2-2-2h-1z" color="#eff0f1" fill="#5fd35f"/></svg>
