<?xml version="1.0" encoding="UTF-8"?>
<svg version="1.1" viewBox="0 0 22 22" xmlns="http://www.w3.org/2000/svg" xmlns:xlink="http://www.w3.org/1999/xlink"><defs><style type="text/css">.ColorScheme-Text {
        color:#eff0f1;
      }</style><linearGradient id="f" x1="4" x2="4" y1="44" y2="4" gradientTransform="matrix(.325 0 0 .325 .7 .95)" gradientUnits="userSpaceOnUse"><stop stop-color="#54d883" offset="0"/><stop stop-color="#abf9c7" offset="1"/></linearGradient><linearGradient id="e" x1="34" x2="44" y1="19.008" y2="29.008" gradientTransform="matrix(.325 0 0 .325 .7 .95)" gradientUnits="userSpaceOnUse" xlink:href="#a"/><linearGradient id="a" x1="34" x2="44" y1="19.008" y2="29.008" gradientUnits="userSpaceOnUse"><stop stop-color="#292c2f" offset="0"/><stop stop-opacity="0" offset="1"/></linearGradient><linearGradient id="g" x1="9" x2="38" y1="9" y2="38" gradientTransform="matrix(.325 0 0 .325 .7 .95)" gradientUnits="userSpaceOnUse" xlink:href="#a"/><linearGradient id="h" x1="4" x2="4" y1="44" y2="4" gradientTransform="matrix(.325 0 0 .325 .7 .95)" gradientUnits="userSpaceOnUse"><stop stop-color="#197cf1" offset="0"/><stop stop-color="#20bcfa" offset="1"/></linearGradient></defs><g stroke-width=".325"><circle cx="8.5" cy="8.75" r="6.5" fill="url(#h)"/><path d="m8.5 2.25a6.5 6.5 0 0 0-6.4675 5.85h0.9425l0.975 0.975 0.65 0.325 3.5649 5.8337a6.5 6.5 0 0 0 0.33507 0.01625 6.5 6.5 0 0 0 6.5-6.5 6.5 6.5 0 0 0-6.5-6.5z" fill="url(#g)" opacity=".2"/><path d="m14.54 6.3557-2.1404 3.0443 2.0199 2.0199a6.5 6.5 0 0 0 0.58012-2.6699 6.5 6.5 0 0 0-0.442-2.3549 6.5 6.5 0 0 0-0.01755-0.039325z" fill="url(#e)" fill-rule="evenodd" opacity=".2"/><path d="m8.5 2.25a6.5 6.5 0 0 0-0.61815 0.03575 6.5 6.5 0 0 0-0.08255 0.00975 6.5 6.5 0 0 0-1.0462 0.20702v-0.013a6.5 6.5 0 0 0-3.1525 1.9955h0.00325a6.5 6.5 0 0 0-1.1635 1.9321l0.53462-0.26715h1.3v0.325l0.325 0.325v-0.65l0.65-0.65h0.325v-0.325l0.325-0.325 0.65-0.325 0.325-0.325 0.65-0.325v0.325l0.65-0.325h-0.325v-0.325l-0.325-0.325h1.3l-0.325 0.325 0.975 0.325-0.325-0.65v-0.65l-0.30778-0.30778a6.5 6.5 0 0 0-0.34222-0.017225zm4.875 2.2132v0.71175h0.54958a6.5 6.5 0 0 0-0.54958-0.71175zm-9.0798 0.021775h0.019825l-0.039975 0.039975 0.020475-0.039975zm9.7578 0.89765-0.35295 0.11732-0.65 0.325v0.325l-0.65 0.65-0.325 0.65v1.3l0.325 0.65 0.65 0.325 0.325 0.325 1.533-0.25513a6.5 6.5 0 0 0 6.5e-4 -0.00715 6.5 6.5 0 0 0 0.06793-0.5694 6.5 6.5 0 0 0 0.0234-0.46832 6.5 6.5 0 0 0-0.02925-0.5655 6.5 6.5 0 0 0-0.03153-0.26292 6.5 6.5 0 0 0-0.06175-0.40105 6.5 6.5 0 0 0-0.04387-0.19435 6.5 6.5 0 0 0-0.11602-0.45305 6.5 6.5 0 0 0-0.04713-0.1404 6.5 6.5 0 0 0-0.17517-0.47872 6.5 6.5 0 0 0-0.0481-0.10725 6.5 6.5 0 0 0-0.2405-0.49563 6.5 6.5 0 0 0-0.15372-0.26845zm-11.078 2.0673-0.325 0.325h-0.325l-0.21125-0.21125a6.5 6.5 0 0 0 0 0.00163 6.5 6.5 0 0 0-0.08645 0.64252 6.5 6.5 0 0 0-6.5e-4 0.00975l0.62335 0.20735 0.65 0.325 0.65 0.65h0.65v0.65l-0.325 0.325-0.325 0.65v0.325l0.65 0.65 0.325 0.65 0.325 0.325 0.65 0.325v1.404a6.5 6.5 0 0 0 0.00195 6.5e-4 6.5 6.5 0 0 0 0.55152 0.20962 6.5 6.5 0 0 0 0.0624 0.0221 6.5 6.5 0 0 0 0.49172 0.1326 6.5 6.5 0 0 0 0.14658 0.0377 6.5 6.5 0 0 0 0.429 0.0702 6.5 6.5 0 0 0 0.221 0.0338 6.5 6.5 0 0 0 0.37375 0.0234 6.5 6.5 0 0 0 0.32207 0.01593 6.5 6.5 0 0 0 0.33085-0.01203l0.31915-0.63798v-0.325l0.65-0.325 0.325-0.325 0.325-1.3 0.325-0.325v-0.65l-0.65-0.325h-0.325l-0.65-0.325h-0.325l-0.325-0.65-0.325-0.325h-0.65l-0.65-0.65h-0.65l-0.975-0.325-0.325 0.65-0.65-0.325h-0.325v-0.65l-0.65-0.325 0.325-0.65z" fill="url(#f)"/><path d="m2.0166 8.5875c-0.0013 0.05525-0.016575 0.10692-0.016575 0.1625 0 3.601 2.899 6.5 6.5 6.5s6.5-2.899 6.5-6.5c0-0.055575-0.01528-0.10725-0.01658-0.1625-0.0097 0.39195-0.03932 0.77935-0.11505 1.1508a6.4642 6.4642 0 0 1-1.7683 3.2867 6.4837 6.4837 0 0 1-2.0654 1.3907 6.4405 6.4405 0 0 1-1.2213 0.37765 6.5663 6.5663 0 0 1-1.313 0.1313c-0.45012 0-0.88952-0.04518-1.313-0.1313a6.4642 6.4642 0 0 1-3.2867-1.7683 6.4837 6.4837 0 0 1-1.3907-2.0654 6.4405 6.4405 0 0 1-0.37765-1.2214c-0.075725-0.37147-0.10498-0.75887-0.11505-1.1508" opacity=".2"/></g><path class="ColorScheme-Text" d="m8.5 1c-4.155 0-7.5 3.345-7.5 7.5s3.345 7.5 7.5 7.5c1.8515 0 3.5382-0.66835 4.8438-1.7725l6.7725 6.7725 0.88379-0.88379-6.7725-6.7725c1.1041-1.3055 1.7725-2.9922 1.7725-4.8438 0-4.155-3.345-7.5-7.5-7.5zm0 1.25c3.4625 0 6.25 2.7875 6.25 6.25s-2.7875 6.25-6.25 6.25-6.25-2.7875-6.25-6.25 2.7875-6.25 6.25-6.25z" color="#eff0f1" fill="#232629"/></svg>
